{"glyphs":{"0":{"ha":957,"x_min":50,"x_max":910,"o":"m 479 -12 q 713 59 615 -12 q 860 247 811 131 q 910 494 910 364 q 860 743 910 626 q 713 932 811 860 q 479 1004 615 1004 q 244 932 342 1004 q 99 744 147 860 q 50 494 50 628 q 99 247 50 363 q 244 59 147 131 q 479 -12 342 -12 m 436 935 q 597 855 525 935 q 708 651 668 775 q 749 403 749 526 q 692 168 749 261 q 526 75 636 75 q 367 155 438 75 q 256 358 296 235 q 217 607 217 482 q 272 842 217 749 q 436 935 326 935 z "},"1":{"ha":453,"x_min":8,"x_max":343,"o":"m 8 818 l 39 761 l 169 832 l 169 -32 l 343 24 l 343 997 l 8 818 z "},"2":{"ha":801,"x_min":22,"x_max":774,"o":"m 374 996 q 610 917 521 996 q 699 700 699 838 q 634 484 699 582 q 489 322 569 386 q 275 165 408 257 l 281 158 q 386 178 331 178 q 448 172 418 178 q 485 165 478 167 q 592 151 551 151 q 675 176 640 151 q 740 246 710 201 l 774 221 l 654 -12 q 471 10 581 -7 q 338 28 393 22 q 225 33 283 33 q 63 -12 126 33 l 26 22 q 100 88 61 54 q 306 280 224 196 q 449 465 389 364 q 510 665 510 565 q 453 820 510 761 q 304 879 397 879 q 172 844 236 879 q 61 751 107 810 l 22 785 q 178 933 81 871 q 374 996 276 996 z "},"3":{"ha":738,"x_min":26,"x_max":693,"o":"m 303 549 q 503 680 417 603 q 590 846 590 757 q 537 965 590 924 q 399 1007 483 1007 q 201 956 303 1007 q 26 811 100 906 l 63 775 q 168 858 104 822 q 285 893 232 893 q 358 869 331 893 q 385 794 385 844 q 295 619 385 696 q 85 486 206 542 l 103 439 q 201 474 158 463 q 285 485 243 485 q 437 432 376 485 q 497 290 497 379 q 426 120 497 194 q 251 2 356 46 q 49 -54 147 -42 l 58 -97 q 342 -56 194 -97 q 591 74 489 -15 q 693 294 693 163 q 654 429 693 371 q 549 520 615 488 q 403 553 482 553 q 306 540 349 553 l 303 549 z "},"4":{"ha":799,"x_min":-6,"x_max":772,"o":"m 647 996 l 476 942 l 476 404 l 199 404 q 339 602 271 479 q 432 824 407 725 l 311 878 q 188 546 265 697 q -6 260 111 394 l 476 260 l 476 -32 l 647 24 l 647 260 l 719 260 l 772 404 l 647 404 l 647 996 z "},"5":{"ha":718,"x_min":32,"x_max":669,"o":"m 669 297 q 623 467 669 399 q 499 567 576 535 q 329 600 421 600 q 233 592 275 600 q 146 564 192 583 l 211 821 l 617 821 l 669 988 l 163 988 l 32 465 q 226 517 125 517 q 405 464 332 517 q 478 314 478 411 q 350 63 478 157 q 38 -74 222 -31 l 49 -119 q 328 -66 183 -115 q 571 77 472 -17 q 669 297 669 171 z "},"6":{"ha":882,"x_min":51,"x_max":847,"o":"m 847 329 q 812 485 847 414 q 707 601 776 557 q 540 644 638 644 q 282 575 392 644 q 384 737 314 661 q 545 866 454 813 q 731 943 636 919 l 718 994 q 404 885 558 971 q 151 665 250 800 q 51 367 51 529 q 100 164 51 256 q 238 19 149 72 q 442 -35 326 -35 q 646 15 553 -35 q 793 149 739 65 q 847 329 847 233 m 253 482 q 334 542 288 521 q 431 563 381 563 q 560 522 508 563 q 636 418 613 482 q 660 282 660 354 q 611 111 660 178 q 467 44 563 44 q 295 131 351 44 q 239 346 239 218 q 253 482 239 418 z "},"7":{"ha":696,"x_min":7,"x_max":746,"o":"m 746 979 q 477 576 582 801 q 372 139 372 350 q 379 51 372 75 l 156 -33 q 261 415 156 186 q 524 819 367 643 l 301 819 q 185 811 226 819 q 114 782 143 803 q 49 717 85 761 l 7 747 l 136 979 l 574 979 q 652 988 619 979 q 710 1015 685 996 l 746 979 z "},"8":{"ha":831,"x_min":46,"x_max":785,"o":"m 785 258 q 742 392 785 338 q 624 490 699 447 l 507 554 q 719 797 719 658 q 647 949 719 896 q 451 1003 575 1003 q 290 974 365 1003 q 168 888 215 946 q 121 744 121 829 q 160 617 121 675 q 265 518 200 558 q 109 399 172 471 q 46 240 46 328 q 95 90 46 154 q 226 -10 144 25 q 403 -44 307 -44 q 608 -7 522 -44 q 740 99 694 31 q 785 258 785 167 m 553 781 q 515 674 553 721 q 424 596 478 626 q 317 685 357 632 q 276 804 276 738 q 316 902 276 865 q 414 939 356 939 q 515 894 476 939 q 553 781 553 849 m 497 388 q 598 302 568 349 q 628 200 628 256 q 580 83 628 131 q 446 36 532 36 q 300 99 357 36 q 243 263 243 161 q 272 376 243 321 q 347 468 300 431 l 497 388 z "},"9":{"ha":882,"x_min":38,"x_max":833,"o":"m 38 632 q 72 475 38 547 q 176 359 107 403 q 343 315 244 315 q 600 386 490 315 q 498 224 568 300 q 336 94 428 147 q 149 17 244 40 l 165 -35 q 480 75 325 -11 q 734 296 635 161 q 833 594 833 431 q 784 797 833 706 q 646 942 735 889 q 440 994 557 994 q 238 944 331 994 q 92 811 146 894 q 38 632 38 728 m 628 479 q 547 419 593 440 q 450 399 501 399 q 322 439 374 399 q 247 544 271 479 q 224 681 224 608 q 272 849 224 783 q 415 914 321 914 q 587 829 531 914 q 643 614 643 744 q 628 479 643 547 z "}," ":{"ha":299,"x_min":0,"x_max":0,"o":""},"A":{"ha":953,"x_min":39,"x_max":974,"o":"m 751 940 q 481 836 603 921 q 289 622 358 751 q 219 347 219 493 q 261 147 219 218 q 375 76 303 76 q 503 183 442 76 q 603 463 565 289 q 640 824 640 636 l 815 881 l 815 140 q 829 92 815 111 q 865 74 843 74 q 908 86 886 74 q 944 121 929 99 l 974 93 q 794 -10 911 -10 q 681 37 721 -10 q 640 175 640 83 l 640 364 l 631 364 q 510 81 590 175 q 313 -14 429 -14 q 113 72 186 -14 q 39 310 39 158 q 135 642 39 488 q 395 892 232 797 q 751 994 558 988 l 751 940 z "},"Á":{"ha":953,"x_min":39,"x_max":974,"o":"m 751 940 q 481 836 603 921 q 289 622 358 751 q 219 347 219 493 q 261 147 219 218 q 375 76 303 76 q 503 183 442 76 q 603 463 565 289 q 640 824 640 636 l 815 881 l 815 140 q 829 92 815 111 q 865 74 843 74 q 908 86 886 74 q 944 121 929 99 l 974 93 q 794 -10 911 -10 q 681 37 721 -10 q 640 175 640 83 l 640 364 l 631 364 q 510 81 590 175 q 313 -14 429 -14 q 113 72 186 -14 q 39 310 39 158 q 135 642 39 488 q 395 892 232 797 q 751 994 558 988 l 751 940 m 607 1315 l 417 1117 l 442 1075 l 699 1185 l 607 1315 z "},"Ă":{"ha":953,"x_min":39,"x_max":974,"o":"m 751 940 q 481 836 603 921 q 289 622 358 751 q 219 347 219 493 q 261 147 219 218 q 375 76 303 76 q 503 183 442 76 q 603 463 565 289 q 640 824 640 636 l 815 881 l 815 140 q 829 92 815 111 q 865 74 843 74 q 908 86 886 74 q 944 121 929 99 l 974 93 q 794 -10 911 -10 q 681 37 721 -10 q 640 175 640 83 l 640 364 l 631 364 q 510 81 590 175 q 313 -14 429 -14 q 113 72 186 -14 q 39 310 39 158 q 135 642 39 488 q 395 892 232 797 q 751 994 558 988 l 751 940 m 454 1336 q 406 1277 424 1313 q 389 1203 389 1242 q 429 1111 389 1146 q 531 1076 469 1076 q 654 1119 606 1076 q 703 1231 703 1161 q 656 1340 703 1292 l 557 1278 q 585 1238 574 1263 q 596 1186 596 1213 q 581 1141 596 1158 q 542 1124 565 1124 q 487 1163 507 1124 q 467 1244 467 1203 q 483 1315 467 1285 l 454 1336 z "},"Â":{"ha":953,"x_min":39,"x_max":974,"o":"m 751 940 q 481 836 603 921 q 289 622 358 751 q 219 347 219 493 q 261 147 219 218 q 375 76 303 76 q 503 183 442 76 q 603 463 565 289 q 640 824 640 636 l 815 881 l 815 140 q 829 92 815 111 q 865 74 843 74 q 908 86 886 74 q 944 121 929 99 l 974 93 q 794 -10 911 -10 q 681 37 721 -10 q 640 175 640 83 l 640 364 l 631 364 q 510 81 590 175 q 313 -14 429 -14 q 113 72 186 -14 q 39 310 39 158 q 135 642 39 488 q 395 892 232 797 q 751 994 558 988 l 751 940 m 736 1167 l 658 1069 l 500 1196 l 404 1082 l 357 1118 l 533 1328 l 736 1167 z "},"Ä":{"ha":953,"x_min":39,"x_max":974,"o":"m 751 940 q 481 836 603 921 q 289 622 358 751 q 219 347 219 493 q 261 147 219 218 q 375 76 303 76 q 503 183 442 76 q 603 463 565 289 q 640 824 640 636 l 815 881 l 815 140 q 829 92 815 111 q 865 74 843 74 q 908 86 886 74 q 944 121 929 99 l 974 93 q 794 -10 911 -10 q 681 37 721 -10 q 640 175 640 83 l 640 364 l 631 364 q 510 81 590 175 q 313 -14 429 -14 q 113 72 186 -14 q 39 310 39 158 q 135 642 39 488 q 395 892 232 797 q 751 994 558 988 l 751 940 m 422 1307 q 485 1280 458 1307 q 511 1217 511 1253 q 485 1153 511 1179 q 422 1128 458 1128 q 358 1153 385 1128 q 332 1217 332 1179 q 358 1280 332 1253 q 422 1307 385 1307 m 671 1307 q 736 1281 710 1307 q 763 1217 763 1254 q 736 1153 763 1179 q 671 1128 710 1128 q 608 1153 635 1128 q 582 1217 582 1179 q 608 1280 582 1253 q 671 1307 635 1307 z "},"À":{"ha":953,"x_min":39,"x_max":974,"o":"m 751 940 q 481 836 603 921 q 289 622 358 751 q 219 347 219 493 q 261 147 219 218 q 375 76 303 76 q 503 183 442 76 q 603 463 565 289 q 640 824 640 636 l 815 881 l 815 140 q 829 92 815 111 q 865 74 843 74 q 908 86 886 74 q 944 121 929 99 l 974 93 q 794 -10 911 -10 q 681 37 721 -10 q 640 175 640 83 l 640 364 l 631 364 q 510 81 590 175 q 313 -14 429 -14 q 113 72 186 -14 q 39 310 39 158 q 135 642 39 488 q 395 892 232 797 q 751 994 558 988 l 751 940 m 681 1117 l 488 1315 l 397 1185 l 656 1074 l 681 1117 z "},"Ā":{"ha":953,"x_min":39,"x_max":974,"o":"m 751 940 q 481 836 603 921 q 289 622 358 751 q 219 347 219 493 q 261 147 219 218 q 375 76 303 76 q 503 183 442 76 q 603 463 565 289 q 640 824 640 636 l 815 881 l 815 140 q 829 92 815 111 q 865 74 843 74 q 908 86 886 74 q 944 121 929 99 l 974 93 q 794 -10 911 -10 q 681 37 721 -10 q 640 175 640 83 l 640 364 l 631 364 q 510 81 590 175 q 313 -14 429 -14 q 113 72 186 -14 q 39 310 39 158 q 135 642 39 488 q 395 892 232 797 q 751 994 558 988 l 751 940 m 731 1272 l 419 1272 l 368 1160 l 681 1160 l 731 1272 z "},"Ą":{"ha":953,"x_min":39,"x_max":974,"o":"m 974 93 q 831 -7 921 7 q 778 -124 778 -69 q 842 -192 778 -192 q 910 -154 879 -192 l 935 -175 q 874 -246 910 -219 q 799 -272 839 -272 q 721 -246 754 -272 q 688 -167 688 -219 q 779 -8 688 -82 q 676 42 713 -4 q 640 175 640 89 l 640 364 l 631 364 q 510 81 590 175 q 313 -14 429 -14 q 113 72 186 -14 q 39 310 39 158 q 135 642 39 488 q 395 892 232 797 q 751 994 558 988 l 751 940 q 481 836 603 921 q 289 622 358 751 q 219 347 219 493 q 261 147 219 218 q 375 76 303 76 q 503 183 442 76 q 603 463 565 289 q 640 824 640 636 l 815 881 l 815 140 q 829 92 815 111 q 865 74 843 74 q 908 86 886 74 q 944 121 929 99 l 974 93 z "},"Å":{"ha":953,"x_min":39,"x_max":974,"o":"m 751 940 q 481 836 603 921 q 289 622 358 751 q 219 347 219 493 q 261 147 219 218 q 375 76 303 76 q 503 183 442 76 q 603 463 565 289 q 640 824 640 636 l 815 881 l 815 140 q 829 92 815 111 q 865 74 843 74 q 908 86 886 74 q 944 121 929 99 l 974 93 q 794 -10 911 -10 q 681 37 721 -10 q 640 175 640 83 l 640 364 l 631 364 q 510 81 590 175 q 313 -14 429 -14 q 113 72 186 -14 q 39 310 39 158 q 135 642 39 488 q 395 892 232 797 q 751 994 558 988 l 751 940 m 546 1381 q 651 1342 610 1381 q 692 1244 692 1304 q 649 1149 692 1190 q 546 1108 606 1108 q 444 1148 485 1108 q 403 1244 403 1188 q 445 1341 403 1301 q 546 1381 488 1381 m 529 1331 q 503 1315 513 1331 q 494 1272 494 1300 q 517 1192 494 1225 q 564 1160 539 1160 q 589 1176 581 1160 q 597 1221 597 1193 q 575 1299 597 1268 q 529 1331 553 1331 z "},"Ã":{"ha":953,"x_min":39,"x_max":974,"o":"m 751 940 q 481 836 603 921 q 289 622 358 751 q 219 347 219 493 q 261 147 219 218 q 375 76 303 76 q 503 183 442 76 q 603 463 565 289 q 640 824 640 636 l 815 881 l 815 140 q 829 92 815 111 q 865 74 843 74 q 908 86 886 74 q 944 121 929 99 l 974 93 q 794 -10 911 -10 q 681 37 721 -10 q 640 175 640 83 l 640 364 l 631 364 q 510 81 590 175 q 313 -14 429 -14 q 113 72 186 -14 q 39 310 39 158 q 135 642 39 488 q 395 892 232 797 q 751 994 558 988 l 751 940 m 681 1319 q 715 1231 715 1281 q 686 1154 715 1185 q 608 1124 657 1124 q 560 1136 579 1124 q 521 1169 540 1149 q 497 1190 507 1183 q 475 1197 486 1197 q 450 1164 450 1197 q 460 1131 450 1146 l 414 1113 q 379 1203 379 1153 q 408 1279 379 1249 q 485 1310 436 1310 q 533 1297 514 1310 q 572 1264 553 1285 q 597 1243 586 1250 q 618 1236 607 1236 q 638 1244 631 1236 q 644 1268 644 1253 q 633 1301 644 1286 l 681 1319 z "},"Æ":{"ha":1253,"x_min":40,"x_max":1258,"o":"m 1258 261 q 1076 64 1192 143 q 825 -15 960 -15 q 644 33 717 -15 q 549 163 572 81 q 304 -14 463 -14 q 112 74 183 -14 q 40 310 40 163 q 133 633 40 478 q 406 885 226 788 q 831 983 586 982 l 831 968 q 1006 1004 914 1004 q 1122 980 1068 1004 q 1214 908 1175 956 l 1090 831 q 1022 910 1061 882 q 936 938 983 938 q 861 918 897 938 q 803 863 825 899 q 781 785 781 828 q 831 667 781 713 q 950 621 881 621 q 1032 635 999 621 l 1044 590 q 813 469 899 544 q 726 278 726 394 q 772 151 726 201 q 897 100 818 100 q 1085 159 997 100 q 1217 297 1172 218 l 1258 261 m 543 276 q 621 432 557 363 q 772 547 685 501 q 649 724 649 603 q 677 835 649 785 q 754 924 706 886 q 462 807 582 894 q 282 598 342 719 q 222 347 222 476 q 256 156 222 235 q 367 76 289 76 q 543 276 475 76 z "},"Ǽ":{"ha":1253,"x_min":40,"x_max":1258,"o":"m 1258 261 q 1076 64 1192 143 q 825 -15 960 -15 q 644 33 717 -15 q 549 163 572 81 q 304 -14 463 -14 q 112 74 183 -14 q 40 310 40 163 q 133 633 40 478 q 406 885 226 788 q 831 983 586 982 l 831 968 q 1006 1004 914 1004 q 1122 980 1068 1004 q 1214 908 1175 956 l 1090 831 q 1022 910 1061 882 q 936 938 983 938 q 861 918 897 938 q 803 863 825 899 q 781 785 781 828 q 831 667 781 713 q 950 621 881 621 q 1032 635 999 621 l 1044 590 q 813 469 899 544 q 726 278 726 394 q 772 151 726 201 q 897 100 818 100 q 1085 159 997 100 q 1217 297 1172 218 l 1258 261 m 543 276 q 621 432 557 363 q 772 547 685 501 q 649 724 649 603 q 677 835 649 785 q 754 924 706 886 q 462 807 582 894 q 282 598 342 719 q 222 347 222 476 q 256 156 222 235 q 367 76 289 76 q 543 276 475 76 m 757 1315 l 567 1117 l 592 1075 l 849 1185 l 757 1315 z "},"B":{"ha":901,"x_min":94,"x_max":865,"o":"m 575 542 q 781 484 696 542 q 865 314 865 426 q 762 90 865 185 q 510 -53 658 -4 q 233 -107 363 -103 l 221 -57 q 535 67 399 -21 q 672 303 672 154 q 641 399 672 357 q 560 465 610 442 q 458 488 511 488 q 271 450 367 488 l 268 457 l 268 38 l 94 -19 l 94 492 q 156 749 94 632 q 327 933 217 865 q 576 1000 438 1000 q 696 965 647 1000 q 744 865 744 931 q 654 687 744 778 q 453 533 564 596 l 456 526 q 575 542 526 542 m 268 492 q 470 629 385 547 q 556 811 556 711 q 529 894 556 863 q 457 925 503 925 q 345 866 388 925 q 285 725 303 807 q 268 568 268 643 l 268 492 z "},"C":{"ha":857,"x_min":47,"x_max":828,"o":"m 621 1014 q 771 964 714 1014 q 828 832 828 914 q 790 698 828 765 q 690 579 753 631 q 550 507 626 528 l 529 543 q 626 628 589 571 q 663 753 663 686 q 619 880 663 832 q 507 928 576 928 q 369 869 433 928 q 266 710 304 810 q 228 497 228 611 q 264 291 228 381 q 365 151 300 201 q 513 101 429 101 q 633 131 572 101 q 750 218 693 161 l 788 183 q 626 42 722 99 q 424 -14 529 -14 q 224 39 310 -14 q 93 185 139 92 q 47 400 47 279 q 124 710 47 569 q 333 933 201 851 q 621 1014 464 1014 z "},"Ć":{"ha":857,"x_min":47,"x_max":828,"o":"m 621 1014 q 771 964 714 1014 q 828 832 828 914 q 790 698 828 765 q 690 579 753 631 q 550 507 626 528 l 529 543 q 626 628 589 571 q 663 753 663 686 q 619 880 663 832 q 507 928 576 928 q 369 869 433 928 q 266 710 304 810 q 228 497 228 611 q 264 291 228 381 q 365 151 300 201 q 513 101 429 101 q 633 131 572 101 q 750 218 693 161 l 788 183 q 626 42 722 99 q 424 -14 529 -14 q 224 39 310 -14 q 93 185 139 92 q 47 400 47 279 q 124 710 47 569 q 333 933 201 851 q 621 1014 464 1014 m 572 1315 l 382 1117 l 407 1075 l 664 1185 l 572 1315 z "},"Č":{"ha":857,"x_min":47,"x_max":828,"o":"m 621 1014 q 771 964 714 1014 q 828 832 828 914 q 790 698 828 765 q 690 579 753 631 q 550 507 626 528 l 529 543 q 626 628 589 571 q 663 753 663 686 q 619 880 663 832 q 507 928 576 928 q 369 869 433 928 q 266 710 304 810 q 228 497 228 611 q 264 291 228 381 q 365 151 300 201 q 513 101 429 101 q 633 131 572 101 q 750 218 693 161 l 788 183 q 626 42 722 99 q 424 -14 529 -14 q 224 39 310 -14 q 93 185 139 92 q 47 400 47 279 q 124 710 47 569 q 333 933 201 851 q 621 1014 464 1014 m 558 1221 l 657 1336 l 703 1299 l 526 1090 l 324 1251 l 403 1347 l 558 1221 z "},"Ç":{"ha":857,"x_min":47,"x_max":828,"o":"m 513 101 q 633 131 572 101 q 750 218 693 161 l 788 183 q 626 42 722 99 q 424 -14 529 -14 l 417 -14 l 389 -62 q 443 -51 418 -51 q 524 -81 492 -51 q 556 -162 556 -110 q 517 -247 556 -214 q 426 -279 478 -279 q 357 -260 390 -279 q 306 -210 324 -240 l 336 -187 q 396 -224 364 -224 q 437 -206 422 -224 q 451 -162 451 -187 q 435 -118 451 -136 q 393 -100 418 -100 q 353 -112 372 -100 l 326 -92 l 374 -11 q 199 56 274 0 q 86 200 125 111 q 47 400 47 289 q 124 710 47 569 q 333 933 201 851 q 621 1014 464 1014 q 771 964 714 1014 q 828 832 828 914 q 790 698 828 765 q 690 579 753 631 q 550 507 626 528 l 529 543 q 626 628 589 571 q 663 753 663 686 q 619 880 663 832 q 507 928 576 928 q 369 869 433 928 q 266 710 304 810 q 228 497 228 611 q 264 291 228 381 q 365 151 300 201 q 513 101 429 101 z "},"Ĉ":{"ha":857,"x_min":47,"x_max":828,"o":"m 621 1014 q 771 964 714 1014 q 828 832 828 914 q 790 698 828 765 q 690 579 753 631 q 550 507 626 528 l 529 543 q 626 628 589 571 q 663 753 663 686 q 619 880 663 832 q 507 928 576 928 q 369 869 433 928 q 266 710 304 810 q 228 497 228 611 q 264 291 228 381 q 365 151 300 201 q 513 101 429 101 q 633 131 572 101 q 750 218 693 161 l 788 183 q 626 42 722 99 q 424 -14 529 -14 q 224 39 310 -14 q 93 185 139 92 q 47 400 47 279 q 124 710 47 569 q 333 933 201 851 q 621 1014 464 1014 m 701 1167 l 624 1069 l 465 1196 l 369 1082 l 322 1118 l 499 1328 l 701 1167 z "},"Ċ":{"ha":857,"x_min":47,"x_max":828,"o":"m 621 1014 q 771 964 714 1014 q 828 832 828 914 q 790 698 828 765 q 690 579 753 631 q 550 507 626 528 l 529 543 q 626 628 589 571 q 663 753 663 686 q 619 880 663 832 q 507 928 576 928 q 369 869 433 928 q 266 710 304 810 q 228 497 228 611 q 264 291 228 381 q 365 151 300 201 q 513 101 429 101 q 633 131 572 101 q 750 218 693 161 l 788 183 q 626 42 722 99 q 424 -14 529 -14 q 224 39 310 -14 q 93 185 139 92 q 47 400 47 279 q 124 710 47 569 q 333 933 201 851 q 621 1014 464 1014 m 511 1313 q 576 1284 549 1313 q 604 1217 604 1256 q 576 1151 604 1179 q 511 1124 549 1124 q 445 1151 472 1124 q 418 1217 418 1179 q 445 1284 418 1256 q 511 1313 472 1313 z "},"D":{"ha":943,"x_min":33,"x_max":897,"o":"m 532 1010 q 804 911 711 1010 q 897 642 897 813 q 781 311 897 458 q 484 78 664 164 q 121 -18 304 -7 l 121 760 l 293 817 l 293 69 q 511 187 417 107 q 659 378 606 267 q 713 619 713 489 q 644 839 713 757 q 454 921 575 921 q 255 876 358 921 q 68 760 151 831 l 33 800 q 260 949 122 888 q 532 1010 397 1010 z "},"Ð":{"ha":943,"x_min":-22,"x_max":897,"o":"m 532 1010 q 804 911 711 1010 q 897 642 897 813 q 781 311 897 458 q 484 78 664 164 q 121 -18 304 -7 l 121 449 l -22 449 l 10 521 l 121 521 l 121 760 l 293 817 l 293 521 l 497 521 l 467 449 l 293 449 l 293 69 q 511 187 417 107 q 659 378 606 267 q 713 619 713 489 q 644 839 713 757 q 454 921 575 921 q 255 876 358 921 q 68 760 151 831 l 33 800 q 260 949 122 888 q 532 1010 397 1010 z "},"Ď":{"ha":943,"x_min":33,"x_max":897,"o":"m 532 1010 q 804 911 711 1010 q 897 642 897 813 q 781 311 897 458 q 484 78 664 164 q 121 -18 304 -7 l 121 760 l 293 817 l 293 69 q 511 187 417 107 q 659 378 606 267 q 713 619 713 489 q 644 839 713 757 q 454 921 575 921 q 255 876 358 921 q 68 760 151 831 l 33 800 q 260 949 122 888 q 532 1010 397 1010 m 517 1221 l 615 1336 l 661 1299 l 485 1090 l 282 1251 l 361 1347 l 517 1221 z "},"Đ":{"ha":943,"x_min":-22,"x_max":897,"o":"m 532 1010 q 804 911 711 1010 q 897 642 897 813 q 781 311 897 458 q 484 78 664 164 q 121 -18 304 -7 l 121 449 l -22 449 l 10 521 l 121 521 l 121 760 l 293 817 l 293 521 l 497 521 l 467 449 l 293 449 l 293 69 q 511 187 417 107 q 659 378 606 267 q 713 619 713 489 q 644 839 713 757 q 454 921 575 921 q 255 876 358 921 q 68 760 151 831 l 33 800 q 260 949 122 888 q 532 1010 397 1010 z "},"E":{"ha":744,"x_min":26,"x_max":747,"o":"m 493 1004 q 608 979 554 1004 q 700 908 663 954 l 578 831 q 425 938 515 938 q 350 918 386 938 q 291 863 314 899 q 268 785 268 828 q 318 667 268 713 q 438 621 368 621 q 518 635 485 621 l 531 590 q 314 474 406 551 q 222 282 222 396 q 266 151 222 203 q 383 100 310 100 q 571 159 482 100 q 703 297 660 218 l 747 261 q 563 64 679 143 q 313 -15 447 -15 q 104 53 182 -15 q 26 235 26 122 q 99 410 26 332 q 278 539 172 489 q 174 608 214 557 q 135 724 135 660 q 188 872 135 808 q 323 970 240 936 q 493 1004 406 1004 z "},"É":{"ha":744,"x_min":26,"x_max":747,"o":"m 493 1004 q 608 979 554 1004 q 700 908 663 954 l 578 831 q 425 938 515 938 q 350 918 386 938 q 291 863 314 899 q 268 785 268 828 q 318 667 268 713 q 438 621 368 621 q 518 635 485 621 l 531 590 q 314 474 406 551 q 222 282 222 396 q 266 151 222 203 q 383 100 310 100 q 571 159 482 100 q 703 297 660 218 l 747 261 q 563 64 679 143 q 313 -15 447 -15 q 104 53 182 -15 q 26 235 26 122 q 99 410 26 332 q 278 539 172 489 q 174 608 214 557 q 135 724 135 660 q 188 872 135 808 q 323 970 240 936 q 493 1004 406 1004 m 503 1315 l 313 1117 l 338 1075 l 594 1185 l 503 1315 z "},"Ĕ":{"ha":744,"x_min":26,"x_max":747,"o":"m 493 1004 q 608 979 554 1004 q 700 908 663 954 l 578 831 q 425 938 515 938 q 350 918 386 938 q 291 863 314 899 q 268 785 268 828 q 318 667 268 713 q 438 621 368 621 q 518 635 485 621 l 531 590 q 314 474 406 551 q 222 282 222 396 q 266 151 222 203 q 383 100 310 100 q 571 159 482 100 q 703 297 660 218 l 747 261 q 563 64 679 143 q 313 -15 447 -15 q 104 53 182 -15 q 26 235 26 122 q 99 410 26 332 q 278 539 172 489 q 174 608 214 557 q 135 724 135 660 q 188 872 135 808 q 323 970 240 936 q 493 1004 406 1004 m 350 1336 q 302 1277 319 1313 q 285 1203 285 1242 q 325 1111 285 1146 q 426 1076 365 1076 q 550 1119 501 1076 q 599 1231 599 1161 q 551 1340 599 1292 l 453 1278 q 481 1238 469 1263 q 492 1186 492 1213 q 476 1141 492 1158 q 438 1124 461 1124 q 383 1163 403 1124 q 363 1244 363 1203 q 379 1315 363 1285 l 350 1336 z "},"Ě":{"ha":744,"x_min":26,"x_max":747,"o":"m 493 1004 q 608 979 554 1004 q 700 908 663 954 l 578 831 q 425 938 515 938 q 350 918 386 938 q 291 863 314 899 q 268 785 268 828 q 318 667 268 713 q 438 621 368 621 q 518 635 485 621 l 531 590 q 314 474 406 551 q 222 282 222 396 q 266 151 222 203 q 383 100 310 100 q 571 159 482 100 q 703 297 660 218 l 747 261 q 563 64 679 143 q 313 -15 447 -15 q 104 53 182 -15 q 26 235 26 122 q 99 410 26 332 q 278 539 172 489 q 174 608 214 557 q 135 724 135 660 q 188 872 135 808 q 323 970 240 936 q 493 1004 406 1004 m 489 1221 l 588 1336 l 633 1299 l 457 1090 l 254 1251 l 333 1347 l 489 1221 z "},"Ê":{"ha":744,"x_min":26,"x_max":747,"o":"m 493 1004 q 608 979 554 1004 q 700 908 663 954 l 578 831 q 425 938 515 938 q 350 918 386 938 q 291 863 314 899 q 268 785 268 828 q 318 667 268 713 q 438 621 368 621 q 518 635 485 621 l 531 590 q 314 474 406 551 q 222 282 222 396 q 266 151 222 203 q 383 100 310 100 q 571 159 482 100 q 703 297 660 218 l 747 261 q 563 64 679 143 q 313 -15 447 -15 q 104 53 182 -15 q 26 235 26 122 q 99 410 26 332 q 278 539 172 489 q 174 608 214 557 q 135 724 135 660 q 188 872 135 808 q 323 970 240 936 q 493 1004 406 1004 m 632 1167 l 554 1069 l 396 1196 l 300 1082 l 253 1118 l 429 1328 l 632 1167 z "},"Ë":{"ha":744,"x_min":26,"x_max":747,"o":"m 493 1004 q 608 979 554 1004 q 700 908 663 954 l 578 831 q 425 938 515 938 q 350 918 386 938 q 291 863 314 899 q 268 785 268 828 q 318 667 268 713 q 438 621 368 621 q 518 635 485 621 l 531 590 q 314 474 406 551 q 222 282 222 396 q 266 151 222 203 q 383 100 310 100 q 571 159 482 100 q 703 297 660 218 l 747 261 q 563 64 679 143 q 313 -15 447 -15 q 104 53 182 -15 q 26 235 26 122 q 99 410 26 332 q 278 539 172 489 q 174 608 214 557 q 135 724 135 660 q 188 872 135 808 q 323 970 240 936 q 493 1004 406 1004 m 318 1307 q 381 1280 354 1307 q 407 1217 407 1253 q 381 1153 407 1179 q 318 1128 354 1128 q 254 1153 281 1128 q 228 1217 228 1179 q 254 1280 228 1253 q 318 1307 281 1307 m 567 1307 q 632 1281 606 1307 q 658 1217 658 1254 q 632 1153 658 1179 q 567 1128 606 1128 q 504 1153 531 1128 q 478 1217 478 1179 q 504 1280 478 1253 q 567 1307 531 1307 z "},"Ė":{"ha":744,"x_min":26,"x_max":747,"o":"m 493 1004 q 608 979 554 1004 q 700 908 663 954 l 578 831 q 425 938 515 938 q 350 918 386 938 q 291 863 314 899 q 268 785 268 828 q 318 667 268 713 q 438 621 368 621 q 518 635 485 621 l 531 590 q 314 474 406 551 q 222 282 222 396 q 266 151 222 203 q 383 100 310 100 q 571 159 482 100 q 703 297 660 218 l 747 261 q 563 64 679 143 q 313 -15 447 -15 q 104 53 182 -15 q 26 235 26 122 q 99 410 26 332 q 278 539 172 489 q 174 608 214 557 q 135 724 135 660 q 188 872 135 808 q 323 970 240 936 q 493 1004 406 1004 m 442 1313 q 507 1284 479 1313 q 535 1217 535 1256 q 507 1151 535 1179 q 442 1124 479 1124 q 376 1151 403 1124 q 349 1217 349 1179 q 376 1284 349 1256 q 442 1313 403 1313 z "},"È":{"ha":744,"x_min":26,"x_max":747,"o":"m 493 1004 q 608 979 554 1004 q 700 908 663 954 l 578 831 q 425 938 515 938 q 350 918 386 938 q 291 863 314 899 q 268 785 268 828 q 318 667 268 713 q 438 621 368 621 q 518 635 485 621 l 531 590 q 314 474 406 551 q 222 282 222 396 q 266 151 222 203 q 383 100 310 100 q 571 159 482 100 q 703 297 660 218 l 747 261 q 563 64 679 143 q 313 -15 447 -15 q 104 53 182 -15 q 26 235 26 122 q 99 410 26 332 q 278 539 172 489 q 174 608 214 557 q 135 724 135 660 q 188 872 135 808 q 323 970 240 936 q 493 1004 406 1004 m 576 1117 l 383 1315 l 293 1185 l 551 1074 l 576 1117 z "},"Ē":{"ha":744,"x_min":26,"x_max":747,"o":"m 493 1004 q 608 979 554 1004 q 700 908 663 954 l 578 831 q 425 938 515 938 q 350 918 386 938 q 291 863 314 899 q 268 785 268 828 q 318 667 268 713 q 438 621 368 621 q 518 635 485 621 l 531 590 q 314 474 406 551 q 222 282 222 396 q 266 151 222 203 q 383 100 310 100 q 571 159 482 100 q 703 297 660 218 l 747 261 q 563 64 679 143 q 313 -15 447 -15 q 104 53 182 -15 q 26 235 26 122 q 99 410 26 332 q 278 539 172 489 q 174 608 214 557 q 135 724 135 660 q 188 872 135 808 q 323 970 240 936 q 493 1004 406 1004 m 626 1272 l 315 1272 l 264 1160 l 576 1160 l 626 1272 z "},"Ę":{"ha":744,"x_min":26,"x_max":747,"o":"m 747 261 q 599 90 690 164 q 401 -6 508 17 q 347 -124 347 -68 q 411 -192 347 -192 q 479 -154 449 -192 l 504 -175 q 444 -246 479 -219 q 368 -272 408 -272 q 290 -246 324 -272 q 257 -167 257 -219 q 342 -14 257 -86 q 313 -15 332 -15 q 104 53 182 -15 q 26 235 26 122 q 99 410 26 332 q 278 539 172 489 q 174 608 214 557 q 135 724 135 660 q 188 872 135 808 q 323 970 240 936 q 493 1004 406 1004 q 608 979 554 1004 q 700 908 663 954 l 578 831 q 425 938 515 938 q 350 918 386 938 q 291 863 314 899 q 268 785 268 828 q 318 667 268 713 q 438 621 368 621 q 518 635 485 621 l 531 590 q 314 474 406 551 q 222 282 222 396 q 266 151 222 203 q 383 100 310 100 q 571 159 482 100 q 703 297 660 218 l 747 261 z "},"F":{"ha":819,"x_min":-21,"x_max":861,"o":"m 453 847 q 414 783 426 813 q 401 713 401 753 l 401 515 l 494 515 q 690 572 615 515 l 714 547 q 458 425 635 425 l 401 425 l 401 161 q 358 -5 401 64 q 224 -131 314 -74 l 194 -97 q 229 38 229 -60 l 229 425 l 103 425 l 172 515 l 229 515 l 229 632 q 360 847 229 732 l 169 849 q 8 764 81 849 l -21 793 q 112 929 43 879 q 269 979 181 979 l 601 979 q 736 991 668 979 q 840 1033 804 1003 l 861 1008 q 739 894 817 940 q 568 847 661 847 l 453 847 z "},"G":{"ha":922,"x_min":49,"x_max":838,"o":"m 607 1011 q 750 975 694 1011 q 806 879 806 939 q 756 760 806 819 q 628 660 707 700 q 468 615 550 619 l 449 651 q 572 723 521 669 q 622 833 622 776 q 595 904 622 878 q 522 931 568 931 q 377 869 442 931 q 276 699 313 807 q 239 457 239 592 q 290 204 239 297 q 433 111 340 111 q 543 155 490 111 q 629 269 596 199 q 664 415 663 340 l 838 469 l 838 -96 l 668 -153 l 668 246 l 660 246 q 542 56 625 125 q 353 -12 458 -12 q 194 34 263 -12 q 87 165 125 81 q 49 357 49 249 q 123 687 49 538 q 325 924 197 836 q 607 1011 453 1011 z "},"Ğ":{"ha":922,"x_min":49,"x_max":838,"o":"m 607 1011 q 750 975 694 1011 q 806 879 806 939 q 756 760 806 819 q 628 660 707 700 q 468 615 550 619 l 449 651 q 572 723 521 669 q 622 833 622 776 q 595 904 622 878 q 522 931 568 931 q 377 869 442 931 q 276 699 313 807 q 239 457 239 592 q 290 204 239 297 q 433 111 340 111 q 543 155 490 111 q 629 269 596 199 q 664 415 663 340 l 838 469 l 838 -96 l 668 -153 l 668 246 l 660 246 q 542 56 625 125 q 353 -12 458 -12 q 194 34 263 -12 q 87 165 125 81 q 49 357 49 249 q 123 687 49 538 q 325 924 197 836 q 607 1011 453 1011 m 432 1336 q 384 1277 401 1313 q 367 1203 367 1242 q 407 1111 367 1146 q 508 1076 447 1076 q 632 1119 583 1076 q 681 1231 681 1161 q 633 1340 681 1292 l 535 1278 q 563 1238 551 1263 q 574 1186 574 1213 q 558 1141 574 1158 q 519 1124 543 1124 q 465 1163 485 1124 q 444 1244 444 1203 q 461 1315 444 1285 l 432 1336 z "},"Ĝ":{"ha":922,"x_min":49,"x_max":838,"o":"m 607 1011 q 750 975 694 1011 q 806 879 806 939 q 756 760 806 819 q 628 660 707 700 q 468 615 550 619 l 449 651 q 572 723 521 669 q 622 833 622 776 q 595 904 622 878 q 522 931 568 931 q 377 869 442 931 q 276 699 313 807 q 239 457 239 592 q 290 204 239 297 q 433 111 340 111 q 543 155 490 111 q 629 269 596 199 q 664 415 663 340 l 838 469 l 838 -96 l 668 -153 l 668 246 l 660 246 q 542 56 625 125 q 353 -12 458 -12 q 194 34 263 -12 q 87 165 125 81 q 49 357 49 249 q 123 687 49 538 q 325 924 197 836 q 607 1011 453 1011 m 714 1167 l 636 1069 l 478 1196 l 382 1082 l 335 1118 l 511 1328 l 714 1167 z "},"Ģ":{"ha":922,"x_min":49,"x_max":838,"o":"m 607 1011 q 750 975 694 1011 q 806 879 806 939 q 756 760 806 819 q 628 660 707 700 q 468 615 550 619 l 449 651 q 572 723 521 669 q 622 833 622 776 q 595 904 622 878 q 522 931 568 931 q 377 869 442 931 q 276 699 313 807 q 239 457 239 592 q 290 204 239 297 q 433 111 340 111 q 543 155 490 111 q 629 269 596 199 q 664 415 663 340 l 838 469 l 838 -96 l 668 -153 l 668 246 l 660 246 q 542 56 625 125 q 353 -12 458 -12 q 194 34 263 -12 q 87 165 125 81 q 49 357 49 249 q 123 687 49 538 q 325 924 197 836 q 607 1011 453 1011 m 547 -150 q 521 -85 547 -112 q 457 -58 494 -58 q 394 -85 419 -58 q 368 -150 368 -112 q 387 -206 368 -181 q 436 -239 406 -231 q 420 -277 432 -257 q 393 -312 408 -297 l 421 -336 q 512 -256 476 -303 q 547 -150 547 -208 z "},"Ġ":{"ha":922,"x_min":49,"x_max":838,"o":"m 607 1011 q 750 975 694 1011 q 806 879 806 939 q 756 760 806 819 q 628 660 707 700 q 468 615 550 619 l 449 651 q 572 723 521 669 q 622 833 622 776 q 595 904 622 878 q 522 931 568 931 q 377 869 442 931 q 276 699 313 807 q 239 457 239 592 q 290 204 239 297 q 433 111 340 111 q 543 155 490 111 q 629 269 596 199 q 664 415 663 340 l 838 469 l 838 -96 l 668 -153 l 668 246 l 660 246 q 542 56 625 125 q 353 -12 458 -12 q 194 34 263 -12 q 87 165 125 81 q 49 357 49 249 q 123 687 49 538 q 325 924 197 836 q 607 1011 453 1011 m 525 1313 q 590 1284 563 1313 q 618 1217 618 1256 q 590 1151 618 1179 q 525 1124 563 1124 q 459 1151 486 1124 q 432 1217 432 1179 q 459 1284 432 1256 q 525 1313 486 1313 z "},"H":{"ha":917,"x_min":14,"x_max":807,"o":"m 633 963 l 633 469 l 299 469 l 299 1018 l 125 963 l 125 469 l 61 469 l 14 376 l 125 376 l 125 -25 l 299 32 l 299 376 l 633 376 l 633 -25 l 807 32 l 807 1018 l 633 963 z "},"Ħ":{"ha":917,"x_min":14,"x_max":892,"o":"m 857 576 l 807 576 l 807 32 l 633 -25 l 633 376 l 299 376 l 299 32 l 125 -25 l 125 376 l 14 376 l 61 469 l 125 469 l 125 576 l 17 576 l 53 654 l 125 654 l 125 963 l 299 1018 l 299 654 l 633 654 l 633 963 l 807 1018 l 807 654 l 892 654 l 857 576 m 633 576 l 299 576 l 299 469 l 633 469 l 633 576 z "},"Ĥ":{"ha":917,"x_min":14,"x_max":807,"o":"m 633 963 l 633 469 l 299 469 l 299 1018 l 125 963 l 125 469 l 61 469 l 14 376 l 125 376 l 125 -25 l 299 32 l 299 376 l 633 376 l 633 -25 l 807 32 l 807 1018 l 633 963 m 676 1167 l 599 1069 l 440 1196 l 344 1082 l 297 1118 l 474 1328 l 676 1167 z "},"I":{"ha":406,"x_min":111,"x_max":285,"o":"m 285 31 l 111 -25 l 111 964 l 285 1018 l 285 31 z "},"Ĳ":{"ha":922,"x_min":111,"x_max":924,"o":"m 285 31 l 111 -25 l 111 964 l 285 1018 l 285 31 m 853 900 q 778 790 799 833 q 757 694 757 747 l 757 139 q 713 -33 757 46 q 587 -160 668 -112 q 403 -207 506 -207 q 165 -131 271 -207 l 300 -15 q 367 -101 325 -64 q 463 -137 410 -137 q 553 -97 524 -137 q 583 13 583 -56 l 583 610 q 627 739 583 679 q 742 847 671 799 l 589 849 q 498 828 539 849 q 419 764 457 807 l 389 794 q 533 930 457 881 q 711 979 610 979 l 924 979 l 853 900 z "},"Í":{"ha":406,"x_min":69,"x_max":351,"o":"m 285 31 l 111 -25 l 111 964 l 285 1018 l 285 31 m 260 1315 l 69 1117 l 94 1075 l 351 1185 l 260 1315 z "},"Ĭ":{"ha":406,"x_min":40,"x_max":354,"o":"m 285 31 l 111 -25 l 111 964 l 285 1018 l 285 31 m 106 1336 q 58 1277 75 1313 q 40 1203 40 1242 q 81 1111 40 1146 q 182 1076 121 1076 q 306 1119 257 1076 q 354 1231 354 1161 q 307 1340 354 1292 l 208 1278 q 236 1238 225 1263 q 247 1186 247 1213 q 232 1141 247 1158 q 193 1124 217 1124 q 138 1163 158 1124 q 118 1244 118 1203 q 135 1315 118 1285 l 106 1336 z "},"Î":{"ha":406,"x_min":8,"x_max":388,"o":"m 285 31 l 111 -25 l 111 964 l 285 1018 l 285 31 m 388 1167 l 310 1069 l 151 1196 l 56 1082 l 8 1118 l 185 1328 l 388 1167 z "},"Ï":{"ha":406,"x_min":-17,"x_max":414,"o":"m 285 31 l 111 -25 l 111 964 l 285 1018 l 285 31 m 74 1307 q 136 1280 110 1307 q 163 1217 163 1253 q 136 1153 163 1179 q 74 1128 110 1128 q 10 1153 36 1128 q -17 1217 -17 1179 q 10 1280 -17 1253 q 74 1307 36 1307 m 322 1307 q 388 1281 361 1307 q 414 1217 414 1254 q 388 1153 414 1179 q 322 1128 361 1128 q 260 1153 286 1128 q 233 1217 233 1179 q 260 1280 233 1253 q 322 1307 286 1307 z "},"İ":{"ha":406,"x_min":106,"x_max":292,"o":"m 285 31 l 111 -25 l 111 964 l 285 1018 l 285 31 m 199 1313 q 264 1284 236 1313 q 292 1217 292 1256 q 264 1151 292 1179 q 199 1124 236 1124 q 133 1151 160 1124 q 106 1217 106 1179 q 133 1284 106 1256 q 199 1313 160 1313 z "},"Ì":{"ha":406,"x_min":50,"x_max":333,"o":"m 285 31 l 111 -25 l 111 964 l 285 1018 l 285 31 m 333 1117 l 140 1315 l 50 1185 l 308 1074 l 333 1117 z "},"Ī":{"ha":406,"x_min":19,"x_max":382,"o":"m 285 31 l 111 -25 l 111 964 l 285 1018 l 285 31 m 382 1272 l 71 1272 l 19 1160 l 332 1160 l 382 1272 z "},"Į":{"ha":382,"x_min":82,"x_max":329,"o":"m 329 -156 q 269 -227 304 -200 q 193 -254 233 -254 q 116 -228 150 -254 q 82 -147 82 -201 q 147 -14 82 -76 l 111 -25 l 111 964 l 285 1018 l 285 31 l 224 11 q 172 -104 172 -50 q 236 -172 172 -172 q 304 -135 274 -172 l 329 -156 z "},"Ĩ":{"ha":406,"x_min":32,"x_max":368,"o":"m 285 31 l 111 -25 l 111 964 l 285 1018 l 285 31 m 333 1319 q 368 1231 368 1281 q 339 1154 368 1185 q 261 1124 310 1124 q 213 1136 232 1124 q 174 1169 193 1149 q 149 1190 160 1183 q 128 1197 139 1197 q 103 1164 103 1197 q 113 1131 103 1146 l 67 1113 q 32 1203 32 1153 q 60 1279 32 1249 q 138 1310 89 1310 q 186 1297 167 1310 q 225 1264 206 1285 q 249 1243 239 1250 q 271 1236 260 1236 q 290 1244 283 1236 q 297 1268 297 1253 q 286 1301 297 1286 l 333 1319 z "},"J":{"ha":525,"x_min":-233,"x_max":525,"o":"m 454 900 q 379 790 400 833 q 358 694 358 747 l 358 139 q 314 -33 358 46 q 188 -160 269 -112 q 4 -207 107 -207 q -233 -131 -128 -207 l -99 -15 q -31 -101 -74 -64 q 64 -137 11 -137 q 155 -97 125 -137 q 185 13 185 -56 l 185 610 q 228 739 185 679 q 343 847 272 799 l 190 849 q 99 828 140 849 q 21 764 58 807 l -10 794 q 135 930 58 881 q 313 979 211 979 l 525 979 l 454 900 z "},"Ĵ":{"ha":525,"x_min":-233,"x_max":525,"o":"m 454 900 q 379 790 400 833 q 358 694 358 747 l 358 139 q 314 -33 358 46 q 188 -160 269 -112 q 4 -207 107 -207 q -233 -131 -128 -207 l -99 -15 q -31 -101 -74 -64 q 64 -137 11 -137 q 155 -97 125 -137 q 185 13 185 -56 l 185 610 q 228 739 185 679 q 343 847 272 799 l 190 849 q 99 828 140 849 q 21 764 58 807 l -10 794 q 135 930 58 881 q 313 979 211 979 l 525 979 l 454 900 m 500 1167 l 422 1069 l 264 1196 l 168 1082 l 121 1118 l 297 1328 l 500 1167 z "},"K":{"ha":867,"x_min":110,"x_max":875,"o":"m 875 161 q 765 34 829 81 q 636 -12 701 -12 q 534 20 574 -12 q 438 143 494 53 l 300 349 l 283 329 l 283 32 l 110 -25 l 110 963 l 283 1018 l 283 464 l 717 989 l 826 981 l 408 479 l 622 163 q 663 113 643 128 q 713 100 683 99 q 780 124 744 100 q 843 188 815 149 l 875 161 z "},"Ķ":{"ha":867,"x_min":110,"x_max":875,"o":"m 875 161 q 765 34 829 81 q 636 -12 701 -12 q 534 20 574 -12 q 438 143 494 53 l 300 349 l 283 329 l 283 32 l 110 -25 l 110 963 l 283 1018 l 283 464 l 717 989 l 826 981 l 408 479 l 622 163 q 663 113 643 128 q 713 100 683 99 q 780 124 744 100 q 843 188 815 149 l 875 161 m 521 -150 q 494 -85 521 -112 q 431 -58 468 -58 q 367 -85 393 -58 q 342 -150 342 -112 q 360 -206 342 -181 q 410 -239 379 -231 q 394 -277 406 -257 q 367 -312 382 -297 l 394 -336 q 485 -256 450 -303 q 521 -150 521 -208 z "},"L":{"ha":785,"x_min":46,"x_max":775,"o":"m 556 1014 q 687 978 635 1014 q 739 872 739 942 q 697 758 739 811 q 583 665 654 704 q 425 608 511 626 l 410 646 q 525 729 485 681 q 565 838 565 778 q 541 906 565 881 q 472 932 517 932 q 367 897 410 932 q 303 806 324 861 q 282 693 282 751 l 282 274 q 270 205 282 233 q 232 147 258 176 l 240 142 q 372 181 303 181 q 482 169 418 181 q 522 164 492 168 q 583 160 551 160 q 670 185 632 160 q 742 253 708 210 l 775 229 l 663 -14 q 482 14 592 -8 q 365 33 415 26 q 257 40 315 40 q 88 -12 164 40 l 46 26 q 92 88 78 53 q 107 181 107 124 l 107 557 q 163 789 107 685 q 322 953 219 893 q 556 1014 424 1014 z "},"Ĺ":{"ha":785,"x_min":46,"x_max":775,"o":"m 556 1014 q 687 978 635 1014 q 739 872 739 942 q 697 758 739 811 q 583 665 654 704 q 425 608 511 626 l 410 646 q 525 729 485 681 q 565 838 565 778 q 541 906 565 881 q 472 932 517 932 q 367 897 410 932 q 303 806 324 861 q 282 693 282 751 l 282 274 q 270 205 282 233 q 232 147 258 176 l 240 142 q 372 181 303 181 q 482 169 418 181 q 522 164 492 168 q 583 160 551 160 q 670 185 632 160 q 742 253 708 210 l 775 229 l 663 -14 q 482 14 592 -8 q 365 33 415 26 q 257 40 315 40 q 88 -12 164 40 l 46 26 q 92 88 78 53 q 107 181 107 124 l 107 557 q 163 789 107 685 q 322 953 219 893 q 556 1014 424 1014 m 521 1315 l 331 1117 l 356 1075 l 613 1185 l 521 1315 z "},"Ľ":{"ha":785,"x_min":46,"x_max":964,"o":"m 556 1014 q 687 978 635 1014 q 739 872 739 942 q 697 758 739 811 q 583 665 654 704 q 425 608 511 626 l 410 646 q 525 729 485 681 q 565 838 565 778 q 541 906 565 881 q 472 932 517 932 q 367 897 410 932 q 303 806 324 861 q 282 693 282 751 l 282 274 q 270 205 282 233 q 232 147 258 176 l 240 142 q 372 181 303 181 q 482 169 418 181 q 522 164 492 168 q 583 160 551 160 q 670 185 632 160 q 742 253 708 210 l 775 229 l 663 -14 q 482 14 592 -8 q 365 33 415 26 q 257 40 315 40 q 88 -12 164 40 l 46 26 q 92 88 78 53 q 107 181 107 124 l 107 557 q 163 789 107 685 q 322 953 219 893 q 556 1014 424 1014 m 964 1060 q 938 1125 964 1097 q 875 1153 911 1153 q 810 1125 838 1153 q 783 1060 783 1097 q 803 1005 783 1029 q 853 971 822 981 q 838 933 851 953 q 810 899 825 913 l 838 874 q 928 955 893 907 q 964 1060 964 1003 z "},"Ļ":{"ha":785,"x_min":46,"x_max":775,"o":"m 556 1014 q 687 978 635 1014 q 739 872 739 942 q 697 758 739 811 q 583 665 654 704 q 425 608 511 626 l 410 646 q 525 729 485 681 q 565 838 565 778 q 541 906 565 881 q 472 932 517 932 q 367 897 410 932 q 303 806 324 861 q 282 693 282 751 l 282 274 q 270 205 282 233 q 232 147 258 176 l 240 142 q 372 181 303 181 q 482 169 418 181 q 522 164 492 168 q 583 160 551 160 q 670 185 632 160 q 742 253 708 210 l 775 229 l 663 -14 q 482 14 592 -8 q 365 33 415 26 q 257 40 315 40 q 88 -12 164 40 l 46 26 q 92 88 78 53 q 107 181 107 124 l 107 557 q 163 789 107 685 q 322 953 219 893 q 556 1014 424 1014 m 503 -150 q 476 -85 503 -112 q 413 -58 450 -58 q 349 -85 375 -58 q 324 -150 324 -112 q 342 -206 324 -181 q 392 -239 361 -231 q 376 -277 388 -257 q 349 -312 364 -297 l 376 -336 q 467 -256 432 -303 q 503 -150 503 -208 z "},"Ŀ":{"ha":785,"x_min":46,"x_max":775,"o":"m 556 1014 q 687 978 635 1014 q 739 872 739 942 q 697 758 739 811 q 583 665 654 704 q 425 608 511 626 l 410 646 q 525 729 485 681 q 565 838 565 778 q 541 906 565 881 q 472 932 517 932 q 367 897 410 932 q 303 806 324 861 q 282 693 282 751 l 282 274 q 270 205 282 233 q 232 147 258 176 l 240 142 q 372 181 303 181 q 482 169 418 181 q 522 164 492 168 q 583 160 551 160 q 670 185 632 160 q 742 253 708 210 l 775 229 l 663 -14 q 482 14 592 -8 q 365 33 415 26 q 257 40 315 40 q 88 -12 164 40 l 46 26 q 92 88 78 53 q 107 181 107 124 l 107 557 q 163 789 107 685 q 322 953 219 893 q 556 1014 424 1014 m 750 453 q 722 517 750 489 q 656 544 693 544 q 590 517 618 544 q 563 453 563 490 q 590 385 563 411 q 656 358 617 358 q 722 385 694 358 q 750 453 750 413 z "},"Ł":{"ha":785,"x_min":11,"x_max":775,"o":"m 775 229 l 663 -14 q 482 14 592 -8 q 365 33 415 26 q 257 40 315 40 q 88 -12 164 40 l 46 26 q 92 88 78 53 q 107 181 107 124 l 107 339 l 11 301 l 11 383 l 107 419 l 107 557 q 163 789 107 685 q 322 953 219 893 q 556 1014 424 1014 q 687 978 635 1014 q 739 872 739 942 q 697 758 739 811 q 583 665 654 704 q 425 608 511 626 l 410 646 q 525 729 485 681 q 565 838 565 778 q 541 906 565 881 q 472 932 517 932 q 367 897 410 932 q 303 806 324 861 q 282 693 282 751 l 282 485 l 392 526 l 392 446 l 282 404 l 282 274 q 270 205 282 233 q 232 147 258 176 l 240 142 q 372 181 303 181 q 482 169 418 181 q 522 164 492 168 q 583 160 551 160 q 670 185 632 160 q 742 253 708 210 l 775 229 z "},"M":{"ha":1250,"x_min":114,"x_max":1275,"o":"m 286 1019 l 286 729 q 396 940 322 868 q 553 1013 469 1013 q 661 967 625 1013 q 700 846 697 921 l 700 728 q 808 940 735 867 q 965 1013 882 1013 q 1076 966 1038 1013 q 1114 846 1114 919 l 1114 140 q 1127 92 1114 111 q 1165 74 1140 74 q 1208 87 1186 74 q 1246 121 1229 100 l 1275 93 q 1094 -10 1211 -10 q 981 36 1021 -10 q 940 175 940 82 l 940 810 q 886 921 940 921 q 801 854 844 921 q 728 685 757 788 q 700 488 700 583 l 700 32 l 526 -25 l 526 810 q 475 921 526 921 q 389 854 433 921 q 315 685 344 788 q 286 488 286 583 l 286 32 l 114 -25 l 114 963 l 286 1019 z "},"N":{"ha":878,"x_min":111,"x_max":903,"o":"m 285 1021 l 285 778 q 563 1014 364 1014 q 696 956 650 1014 q 742 814 742 899 l 742 140 q 754 92 742 111 q 792 74 767 74 q 835 87 814 74 q 872 121 857 100 l 903 93 q 831 18 874 46 q 724 -10 788 -10 q 609 36 650 -10 q 568 175 568 82 l 568 768 q 554 888 568 842 q 489 935 540 935 q 376 863 422 935 q 308 694 331 790 q 285 535 285 599 l 285 35 l 111 -24 l 111 964 l 285 1021 z "},"Ń":{"ha":878,"x_min":111,"x_max":903,"o":"m 285 1021 l 285 778 q 563 1014 364 1014 q 696 956 650 1014 q 742 814 742 899 l 742 140 q 754 92 742 111 q 792 74 767 74 q 835 87 814 74 q 872 121 857 100 l 903 93 q 831 18 874 46 q 724 -10 788 -10 q 609 36 650 -10 q 568 175 568 82 l 568 768 q 554 888 568 842 q 489 935 540 935 q 376 863 422 935 q 308 694 331 790 q 285 535 285 599 l 285 35 l 111 -24 l 111 964 l 285 1021 m 508 1315 l 318 1117 l 343 1075 l 600 1185 l 508 1315 z "},"Ň":{"ha":878,"x_min":111,"x_max":903,"o":"m 285 1021 l 285 778 q 563 1014 364 1014 q 696 956 650 1014 q 742 814 742 899 l 742 140 q 754 92 742 111 q 792 74 767 74 q 835 87 814 74 q 872 121 857 100 l 903 93 q 831 18 874 46 q 724 -10 788 -10 q 609 36 650 -10 q 568 175 568 82 l 568 768 q 554 888 568 842 q 489 935 540 935 q 376 863 422 935 q 308 694 331 790 q 285 535 285 599 l 285 35 l 111 -24 l 111 964 l 285 1021 m 494 1221 l 593 1336 l 639 1299 l 463 1090 l 260 1251 l 339 1347 l 494 1221 z "},"Ņ":{"ha":878,"x_min":111,"x_max":903,"o":"m 285 1021 l 285 778 q 563 1014 364 1014 q 696 956 650 1014 q 742 814 742 899 l 742 140 q 754 92 742 111 q 792 74 767 74 q 835 87 814 74 q 872 121 857 100 l 903 93 q 831 18 874 46 q 724 -10 788 -10 q 609 36 650 -10 q 568 175 568 82 l 568 768 q 554 888 568 842 q 489 935 540 935 q 376 863 422 935 q 308 694 331 790 q 285 535 285 599 l 285 35 l 111 -24 l 111 964 l 285 1021 m 531 -150 q 504 -85 531 -112 q 440 -58 478 -58 q 377 -85 403 -58 q 351 -150 351 -112 q 370 -206 351 -181 q 419 -239 389 -231 q 403 -277 415 -257 q 376 -312 392 -297 l 404 -336 q 495 -256 460 -303 q 531 -150 531 -208 z "},"Ŋ":{"ha":826,"x_min":117,"x_max":739,"o":"m 290 778 q 394 952 328 890 q 563 1014 460 1014 q 694 957 649 1014 q 739 814 739 900 l 739 38 q 694 -134 739 -54 q 573 -261 650 -214 q 403 -308 496 -308 q 174 -232 267 -308 l 304 -117 q 370 -201 328 -164 q 457 -237 413 -237 q 540 -194 513 -237 q 567 -82 567 -150 l 567 768 q 553 888 567 840 q 489 935 539 935 q 380 863 425 935 q 313 695 335 790 q 290 536 290 600 l 290 35 l 117 -24 l 117 964 l 290 1021 l 290 778 z "},"Ñ":{"ha":878,"x_min":111,"x_max":903,"o":"m 285 1021 l 285 778 q 563 1014 364 1014 q 696 956 650 1014 q 742 814 742 899 l 742 140 q 754 92 742 111 q 792 74 767 74 q 835 87 814 74 q 872 121 857 100 l 903 93 q 831 18 874 46 q 724 -10 788 -10 q 609 36 650 -10 q 568 175 568 82 l 568 768 q 554 888 568 842 q 489 935 540 935 q 376 863 422 935 q 308 694 331 790 q 285 535 285 599 l 285 35 l 111 -24 l 111 964 l 285 1021 m 582 1319 q 617 1231 617 1281 q 588 1154 617 1185 q 510 1124 558 1124 q 461 1136 481 1124 q 422 1169 442 1149 q 398 1190 408 1183 q 376 1197 388 1197 q 351 1164 351 1197 q 361 1131 351 1146 l 315 1113 q 281 1203 281 1153 q 309 1279 281 1249 q 386 1310 338 1310 q 435 1297 415 1310 q 474 1264 454 1285 q 498 1243 488 1250 q 519 1236 508 1236 q 539 1244 532 1236 q 546 1268 546 1253 q 535 1301 546 1286 l 582 1319 z "},"O":{"ha":1015,"x_min":50,"x_max":968,"o":"m 511 1010 q 751 936 647 1010 q 912 744 856 863 q 968 494 968 625 q 915 242 968 360 q 759 53 863 125 q 511 -18 656 -18 q 269 56 375 -18 q 107 247 164 129 q 50 494 50 365 q 104 747 50 629 q 263 938 158 865 q 511 1010 367 1010 m 460 932 q 323 880 376 932 q 246 749 269 828 q 222 586 222 669 q 258 345 222 465 q 369 144 293 225 q 560 64 444 64 q 695 117 642 64 q 772 251 749 171 q 796 413 796 331 q 760 649 796 529 q 649 851 725 769 q 460 932 574 932 z "},"Ó":{"ha":1015,"x_min":50,"x_max":968,"o":"m 511 1010 q 751 936 647 1010 q 912 744 856 863 q 968 494 968 625 q 915 242 968 360 q 759 53 863 125 q 511 -18 656 -18 q 269 56 375 -18 q 107 247 164 129 q 50 494 50 365 q 104 747 50 629 q 263 938 158 865 q 511 1010 367 1010 m 460 932 q 323 880 376 932 q 246 749 269 828 q 222 586 222 669 q 258 345 222 465 q 369 144 293 225 q 560 64 444 64 q 695 117 642 64 q 772 251 749 171 q 796 413 796 331 q 760 649 796 529 q 649 851 725 769 q 460 932 574 932 m 572 1315 l 382 1117 l 407 1075 l 664 1185 l 572 1315 z "},"Ŏ":{"ha":1015,"x_min":50,"x_max":968,"o":"m 511 1010 q 751 936 647 1010 q 912 744 856 863 q 968 494 968 625 q 915 242 968 360 q 759 53 863 125 q 511 -18 656 -18 q 269 56 375 -18 q 107 247 164 129 q 50 494 50 365 q 104 747 50 629 q 263 938 158 865 q 511 1010 367 1010 m 460 932 q 323 880 376 932 q 246 749 269 828 q 222 586 222 669 q 258 345 222 465 q 369 144 293 225 q 560 64 444 64 q 695 117 642 64 q 772 251 749 171 q 796 413 796 331 q 760 649 796 529 q 649 851 725 769 q 460 932 574 932 m 419 1336 q 372 1277 389 1313 q 354 1203 354 1242 q 394 1111 354 1146 q 496 1076 435 1076 q 619 1119 571 1076 q 668 1231 668 1161 q 621 1340 668 1292 l 522 1278 q 550 1238 539 1263 q 561 1186 561 1213 q 546 1141 561 1158 q 507 1124 531 1124 q 452 1163 472 1124 q 432 1244 432 1203 q 449 1315 432 1285 l 419 1336 z "},"Ô":{"ha":1015,"x_min":50,"x_max":968,"o":"m 511 1010 q 751 936 647 1010 q 912 744 856 863 q 968 494 968 625 q 915 242 968 360 q 759 53 863 125 q 511 -18 656 -18 q 269 56 375 -18 q 107 247 164 129 q 50 494 50 365 q 104 747 50 629 q 263 938 158 865 q 511 1010 367 1010 m 460 932 q 323 880 376 932 q 246 749 269 828 q 222 586 222 669 q 258 345 222 465 q 369 144 293 225 q 560 64 444 64 q 695 117 642 64 q 772 251 749 171 q 796 413 796 331 q 760 649 796 529 q 649 851 725 769 q 460 932 574 932 m 701 1167 l 624 1069 l 465 1196 l 369 1082 l 322 1118 l 499 1328 l 701 1167 z "},"Ö":{"ha":1015,"x_min":50,"x_max":968,"o":"m 511 1010 q 751 936 647 1010 q 912 744 856 863 q 968 494 968 625 q 915 242 968 360 q 759 53 863 125 q 511 -18 656 -18 q 269 56 375 -18 q 107 247 164 129 q 50 494 50 365 q 104 747 50 629 q 263 938 158 865 q 511 1010 367 1010 m 460 932 q 323 880 376 932 q 246 749 269 828 q 222 586 222 669 q 258 345 222 465 q 369 144 293 225 q 560 64 444 64 q 695 117 642 64 q 772 251 749 171 q 796 413 796 331 q 760 649 796 529 q 649 851 725 769 q 460 932 574 932 m 388 1307 q 450 1280 424 1307 q 476 1217 476 1253 q 450 1153 476 1179 q 388 1128 424 1128 q 324 1153 350 1128 q 297 1217 297 1179 q 324 1280 297 1253 q 388 1307 350 1307 m 636 1307 q 701 1281 675 1307 q 728 1217 728 1254 q 701 1153 728 1179 q 636 1128 675 1128 q 574 1153 600 1128 q 547 1217 547 1179 q 574 1280 547 1253 q 636 1307 600 1307 z "},"Ò":{"ha":1015,"x_min":50,"x_max":968,"o":"m 511 1010 q 751 936 647 1010 q 912 744 856 863 q 968 494 968 625 q 915 242 968 360 q 759 53 863 125 q 511 -18 656 -18 q 269 56 375 -18 q 107 247 164 129 q 50 494 50 365 q 104 747 50 629 q 263 938 158 865 q 511 1010 367 1010 m 460 932 q 323 880 376 932 q 246 749 269 828 q 222 586 222 669 q 258 345 222 465 q 369 144 293 225 q 560 64 444 64 q 695 117 642 64 q 772 251 749 171 q 796 413 796 331 q 760 649 796 529 q 649 851 725 769 q 460 932 574 932 m 646 1117 l 453 1315 l 363 1185 l 621 1074 l 646 1117 z "},"Ő":{"ha":1015,"x_min":50,"x_max":968,"o":"m 511 1010 q 751 936 647 1010 q 912 744 856 863 q 968 494 968 625 q 915 242 968 360 q 759 53 863 125 q 511 -18 656 -18 q 269 56 375 -18 q 107 247 164 129 q 50 494 50 365 q 104 747 50 629 q 263 938 158 865 q 511 1010 367 1010 m 460 932 q 323 880 376 932 q 246 749 269 828 q 222 586 222 669 q 258 345 222 465 q 369 144 293 225 q 560 64 444 64 q 695 117 642 64 q 772 251 749 171 q 796 413 796 331 q 760 649 796 529 q 649 851 725 769 q 460 932 574 932 m 428 1315 l 261 1117 l 292 1075 l 519 1185 l 428 1315 m 671 1315 l 504 1117 l 533 1075 l 763 1185 l 671 1315 z "},"Ō":{"ha":1015,"x_min":50,"x_max":968,"o":"m 511 1010 q 751 936 647 1010 q 912 744 856 863 q 968 494 968 625 q 915 242 968 360 q 759 53 863 125 q 511 -18 656 -18 q 269 56 375 -18 q 107 247 164 129 q 50 494 50 365 q 104 747 50 629 q 263 938 158 865 q 511 1010 367 1010 m 460 932 q 323 880 376 932 q 246 749 269 828 q 222 586 222 669 q 258 345 222 465 q 369 144 293 225 q 560 64 444 64 q 695 117 642 64 q 772 251 749 171 q 796 413 796 331 q 760 649 796 529 q 649 851 725 769 q 460 932 574 932 m 696 1272 l 385 1272 l 333 1160 l 646 1160 l 696 1272 z "},"Ø":{"ha":1015,"x_min":50,"x_max":968,"o":"m 811 886 q 927 708 886 811 q 968 494 968 604 q 915 242 968 360 q 759 53 863 125 q 511 -18 656 -18 q 278 50 383 -18 l 229 -28 l 154 22 l 208 106 q 92 282 133 179 q 50 494 50 385 q 104 747 50 629 q 263 938 158 865 q 511 1010 367 1010 q 746 939 642 1010 l 793 1011 l 861 965 l 811 886 m 222 586 q 242 410 222 500 q 299 246 261 319 l 672 825 q 460 932 586 932 q 323 880 376 932 q 246 749 269 828 q 222 586 222 669 m 560 64 q 695 117 642 64 q 772 251 749 171 q 796 413 796 331 q 777 585 796 496 q 722 746 758 674 l 351 164 q 560 64 438 64 z "},"Ǿ":{"ha":1015,"x_min":50,"x_max":968,"o":"m 407 1075 l 382 1117 l 572 1315 l 664 1185 l 407 1075 m 808 889 q 926 710 885 815 q 968 494 968 606 q 915 242 968 360 q 759 53 863 125 q 511 -18 656 -18 q 275 51 382 -18 l 225 -28 l 150 22 l 206 108 q 91 284 132 182 q 50 494 50 386 q 104 747 50 629 q 263 938 158 865 q 511 1010 367 1010 q 743 940 638 1010 l 789 1011 l 857 965 l 808 889 m 222 586 q 241 412 222 501 q 296 249 260 322 l 671 828 q 460 932 583 932 q 323 880 376 932 q 246 749 269 828 q 222 586 222 669 m 560 64 q 695 117 642 64 q 772 251 749 171 q 796 413 796 331 q 776 586 796 496 q 719 750 757 676 l 349 167 q 560 64 438 64 z "},"Õ":{"ha":1015,"x_min":50,"x_max":968,"o":"m 511 1010 q 751 936 647 1010 q 912 744 856 863 q 968 494 968 625 q 915 242 968 360 q 759 53 863 125 q 511 -18 656 -18 q 269 56 375 -18 q 107 247 164 129 q 50 494 50 365 q 104 747 50 629 q 263 938 158 865 q 511 1010 367 1010 m 460 932 q 323 880 376 932 q 246 749 269 828 q 222 586 222 669 q 258 345 222 465 q 369 144 293 225 q 560 64 444 64 q 695 117 642 64 q 772 251 749 171 q 796 413 796 331 q 760 649 796 529 q 649 851 725 769 q 460 932 574 932 m 646 1319 q 681 1231 681 1281 q 651 1154 681 1185 q 574 1124 622 1124 q 525 1136 544 1124 q 486 1169 506 1149 q 462 1190 472 1183 q 440 1197 451 1197 q 415 1164 415 1197 q 425 1131 415 1146 l 379 1113 q 344 1203 344 1153 q 373 1279 344 1249 q 450 1310 401 1310 q 499 1297 479 1310 q 538 1264 518 1285 q 562 1243 551 1250 q 583 1236 572 1236 q 603 1244 596 1236 q 610 1268 610 1253 q 599 1301 610 1286 l 646 1319 z "},"Œ":{"ha":1354,"x_min":50,"x_max":1356,"o":"m 511 1010 q 676 977 600 1010 q 811 885 751 944 q 939 973 858 942 q 1101 1004 1019 1004 q 1218 980 1164 1004 q 1310 908 1272 956 l 1188 831 q 1119 910 1158 882 q 1035 938 1081 938 q 960 918 996 938 q 901 863 924 899 q 879 785 879 828 q 928 666 879 711 q 1047 621 978 621 q 1128 635 1094 621 l 1140 590 q 924 474 1015 551 q 832 282 832 396 q 875 151 832 203 q 994 100 918 100 q 1181 159 1094 100 q 1313 297 1268 218 l 1356 261 q 1172 64 1286 143 q 921 -15 1057 -15 q 733 39 810 -15 q 511 -18 635 -18 q 269 56 375 -18 q 107 247 164 129 q 50 494 50 365 q 104 747 50 629 q 263 938 158 865 q 511 1010 367 1010 m 460 932 q 323 880 376 932 q 246 749 269 828 q 222 586 222 669 q 258 345 222 465 q 369 144 293 225 q 560 64 444 64 q 675 100 625 64 q 640 235 640 156 q 712 410 640 332 q 889 539 783 489 q 806 587 840 553 q 756 667 771 621 q 644 858 718 785 q 460 932 569 932 z "},"P":{"ha":868,"x_min":28,"x_max":857,"o":"m 547 1011 q 772 935 686 1011 q 857 726 857 860 q 779 513 857 611 q 577 358 701 415 q 322 300 453 300 q 294 301 307 300 l 301 340 q 483 401 396 353 q 626 526 571 449 q 681 700 681 603 q 623 861 681 801 q 449 921 565 921 q 249 875 351 921 q 64 756 147 829 l 28 794 q 265 951 132 890 q 547 1011 399 1011 m 289 32 l 121 -25 l 121 760 l 289 817 l 289 32 z "},"Þ":{"ha":861,"x_min":21,"x_max":851,"o":"m 542 869 q 767 794 682 869 q 851 585 851 719 q 774 372 851 469 q 571 216 696 274 q 315 158 446 158 q 288 161 300 158 l 294 200 q 476 260 389 213 q 619 385 564 308 q 675 558 675 463 q 617 719 675 660 q 443 779 560 779 q 285 750 369 779 l 285 15 l 111 -42 l 111 658 q 57 615 79 635 l 21 653 q 111 725 58 688 l 111 963 l 285 1018 l 285 819 q 542 869 414 869 z "},"Q":{"ha":1015,"x_min":50,"x_max":983,"o":"m 983 -46 q 917 -112 957 -85 q 825 -139 878 -139 q 713 -111 760 -139 q 607 -8 665 -83 q 511 -18 564 -18 q 269 56 375 -18 q 107 247 164 129 q 50 494 50 365 q 104 747 50 629 q 263 938 158 865 q 511 1010 367 1010 q 751 936 647 1010 q 912 744 856 863 q 968 494 968 625 q 914 240 968 358 q 758 54 860 122 q 829 -19 799 3 q 892 -40 860 -40 q 957 -17 928 -40 l 983 -46 m 460 932 q 323 880 376 932 q 246 749 269 828 q 222 586 222 669 q 240 416 222 503 q 293 257 257 329 q 435 328 353 328 q 523 312 485 328 q 599 257 561 296 q 689 146 638 218 q 704 126 706 125 q 773 255 750 176 q 796 413 796 333 q 760 649 796 529 q 649 851 725 769 q 460 932 574 932 m 315 215 q 554 64 406 68 q 448 194 488 158 q 367 229 408 229 q 315 215 336 229 z "},"R":{"ha":894,"x_min":28,"x_max":874,"o":"m 547 1011 q 772 935 686 1011 q 857 726 857 860 q 808 553 857 635 q 674 413 758 472 q 489 324 590 353 l 635 142 q 713 101 668 101 q 844 178 768 101 l 874 151 q 761 32 824 81 q 632 -17 699 -17 q 548 7 586 -17 q 463 92 510 31 l 300 301 l 308 340 q 488 401 403 353 q 627 526 574 449 q 681 700 681 603 q 623 861 681 801 q 449 921 565 921 q 249 875 351 921 q 64 756 147 829 l 28 794 q 265 951 132 890 q 547 1011 399 1011 m 286 32 l 118 -26 l 118 761 l 286 817 l 286 32 z "},"Ŕ":{"ha":894,"x_min":28,"x_max":874,"o":"m 547 1011 q 772 935 686 1011 q 857 726 857 860 q 808 553 857 635 q 674 413 758 472 q 489 324 590 353 l 635 142 q 713 101 668 101 q 844 178 768 101 l 874 151 q 761 32 824 81 q 632 -17 699 -17 q 548 7 586 -17 q 463 92 510 31 l 300 301 l 308 340 q 488 401 403 353 q 627 526 574 449 q 681 700 681 603 q 623 861 681 801 q 449 921 565 921 q 249 875 351 921 q 64 756 147 829 l 28 794 q 265 951 132 890 q 547 1011 399 1011 m 286 32 l 118 -26 l 118 761 l 286 817 l 286 32 m 529 1315 l 339 1117 l 364 1075 l 621 1185 l 529 1315 z "},"Ř":{"ha":894,"x_min":28,"x_max":874,"o":"m 547 1011 q 772 935 686 1011 q 857 726 857 860 q 808 553 857 635 q 674 413 758 472 q 489 324 590 353 l 635 142 q 713 101 668 101 q 844 178 768 101 l 874 151 q 761 32 824 81 q 632 -17 699 -17 q 548 7 586 -17 q 463 92 510 31 l 300 301 l 308 340 q 488 401 403 353 q 627 526 574 449 q 681 700 681 603 q 623 861 681 801 q 449 921 565 921 q 249 875 351 921 q 64 756 147 829 l 28 794 q 265 951 132 890 q 547 1011 399 1011 m 286 32 l 118 -26 l 118 761 l 286 817 l 286 32 m 515 1221 l 614 1336 l 660 1299 l 483 1090 l 281 1251 l 360 1347 l 515 1221 z "},"Ŗ":{"ha":894,"x_min":28,"x_max":874,"o":"m 547 1011 q 772 935 686 1011 q 857 726 857 860 q 808 553 857 635 q 674 413 758 472 q 489 324 590 353 l 635 142 q 713 101 668 101 q 844 178 768 101 l 874 151 q 761 32 824 81 q 632 -17 699 -17 q 548 7 586 -17 q 463 92 510 31 l 300 301 l 308 340 q 488 401 403 353 q 627 526 574 449 q 681 700 681 603 q 623 861 681 801 q 449 921 565 921 q 249 875 351 921 q 64 756 147 829 l 28 794 q 265 951 132 890 q 547 1011 399 1011 m 286 32 l 118 -26 l 118 761 l 286 817 l 286 32 m 538 -150 q 511 -85 538 -112 q 447 -58 485 -58 q 384 -85 410 -58 q 358 -150 358 -112 q 377 -206 358 -181 q 426 -239 396 -231 q 410 -277 422 -257 q 383 -312 399 -297 l 411 -336 q 502 -256 467 -303 q 538 -150 538 -208 z "},"S":{"ha":783,"x_min":61,"x_max":772,"o":"m 436 1011 q 626 969 540 1011 q 772 847 713 926 l 649 699 q 546 868 613 801 q 388 935 479 935 q 261 885 308 935 q 214 758 214 835 q 247 647 214 692 q 327 573 279 601 q 457 507 375 544 q 590 439 540 468 q 674 361 640 410 q 708 243 708 313 q 622 53 708 121 q 396 -15 535 -15 q 213 24 300 -15 q 76 133 125 64 l 196 271 q 299 111 235 171 q 439 51 364 51 q 531 86 496 51 q 567 168 567 121 q 539 249 567 214 q 468 310 511 285 q 353 371 425 336 q 201 453 260 417 q 102 550 143 490 q 61 694 61 610 q 110 857 61 785 q 246 970 160 929 q 436 1011 332 1011 z "},"Ś":{"ha":783,"x_min":61,"x_max":772,"o":"m 436 1011 q 626 969 540 1011 q 772 847 713 926 l 649 699 q 546 868 613 801 q 388 935 479 935 q 261 885 308 935 q 214 758 214 835 q 247 647 214 692 q 327 573 279 601 q 457 507 375 544 q 590 439 540 468 q 674 361 640 410 q 708 243 708 313 q 622 53 708 121 q 396 -15 535 -15 q 213 24 300 -15 q 76 133 125 64 l 196 271 q 299 111 235 171 q 439 51 364 51 q 531 86 496 51 q 567 168 567 121 q 539 249 567 214 q 468 310 511 285 q 353 371 425 336 q 201 453 260 417 q 102 550 143 490 q 61 694 61 610 q 110 857 61 785 q 246 970 160 929 q 436 1011 332 1011 m 492 1315 l 301 1117 l 326 1075 l 583 1185 l 492 1315 z "},"Š":{"ha":783,"x_min":61,"x_max":772,"o":"m 436 1011 q 626 969 540 1011 q 772 847 713 926 l 649 699 q 546 868 613 801 q 388 935 479 935 q 261 885 308 935 q 214 758 214 835 q 247 647 214 692 q 327 573 279 601 q 457 507 375 544 q 590 439 540 468 q 674 361 640 410 q 708 243 708 313 q 622 53 708 121 q 396 -15 535 -15 q 213 24 300 -15 q 76 133 125 64 l 196 271 q 299 111 235 171 q 439 51 364 51 q 531 86 496 51 q 567 168 567 121 q 539 249 567 214 q 468 310 511 285 q 353 371 425 336 q 201 453 260 417 q 102 550 143 490 q 61 694 61 610 q 110 857 61 785 q 246 970 160 929 q 436 1011 332 1011 m 478 1221 l 576 1336 l 622 1299 l 446 1090 l 243 1251 l 322 1347 l 478 1221 z "},"Ş":{"ha":783,"x_min":61,"x_max":772,"o":"m 214 758 q 247 647 214 692 q 327 573 279 601 q 457 507 375 544 q 590 439 540 468 q 674 361 640 410 q 708 243 708 313 q 624 55 708 122 q 404 -15 540 -12 l 376 -62 q 431 -51 406 -51 q 511 -81 479 -51 q 543 -162 543 -110 q 504 -247 543 -214 q 414 -279 465 -279 q 344 -260 378 -279 q 293 -210 311 -240 l 324 -187 q 383 -224 351 -224 q 424 -206 410 -224 q 439 -162 439 -187 q 422 -118 439 -136 q 381 -100 406 -100 q 340 -112 360 -100 l 314 -92 l 360 -14 q 196 32 272 -7 q 76 133 119 71 l 196 271 q 299 111 235 171 q 439 51 364 51 q 531 86 496 51 q 567 168 567 121 q 539 249 567 214 q 468 310 511 285 q 353 371 425 336 q 201 453 260 417 q 102 550 143 490 q 61 694 61 610 q 110 857 61 785 q 246 970 160 929 q 436 1011 332 1011 q 626 969 540 1011 q 772 847 713 926 l 649 699 q 546 868 613 801 q 388 935 479 935 q 261 885 308 935 q 214 758 214 835 z "},"Ŝ":{"ha":783,"x_min":61,"x_max":772,"o":"m 436 1011 q 626 969 540 1011 q 772 847 713 926 l 649 699 q 546 868 613 801 q 388 935 479 935 q 261 885 308 935 q 214 758 214 835 q 247 647 214 692 q 327 573 279 601 q 457 507 375 544 q 590 439 540 468 q 674 361 640 410 q 708 243 708 313 q 622 53 708 121 q 396 -15 535 -15 q 213 24 300 -15 q 76 133 125 64 l 196 271 q 299 111 235 171 q 439 51 364 51 q 531 86 496 51 q 567 168 567 121 q 539 249 567 214 q 468 310 511 285 q 353 371 425 336 q 201 453 260 417 q 102 550 143 490 q 61 694 61 610 q 110 857 61 785 q 246 970 160 929 q 436 1011 332 1011 m 621 1167 l 543 1069 l 385 1196 l 289 1082 l 242 1118 l 418 1328 l 621 1167 z "},"Ș":{"ha":783,"x_min":61,"x_max":772,"o":"m 436 1011 q 626 969 540 1011 q 772 847 713 926 l 649 699 q 546 868 613 801 q 388 935 479 935 q 261 885 308 935 q 214 758 214 835 q 247 647 214 692 q 327 573 279 601 q 457 507 375 544 q 590 439 540 468 q 674 361 640 410 q 708 243 708 313 q 622 53 708 121 q 396 -15 535 -15 q 213 24 300 -15 q 76 133 125 64 l 196 271 q 299 111 235 171 q 439 51 364 51 q 531 86 496 51 q 567 168 567 121 q 539 249 567 214 q 468 310 511 285 q 353 371 425 336 q 201 453 260 417 q 102 550 143 490 q 61 694 61 610 q 110 857 61 785 q 246 970 160 929 q 436 1011 332 1011 m 508 -150 q 482 -85 508 -112 q 418 -58 456 -58 q 355 -85 381 -58 q 329 -150 329 -112 q 348 -206 329 -181 q 397 -239 367 -231 q 381 -277 393 -257 q 354 -312 369 -297 l 382 -336 q 473 -256 438 -303 q 508 -150 508 -208 z "},"T":{"ha":694,"x_min":-11,"x_max":746,"o":"m 746 1008 q 618 893 697 939 q 458 847 539 847 q 420 783 432 814 q 408 713 408 753 l 408 264 q 365 96 408 164 q 229 -29 321 28 l 200 4 q 236 139 236 50 l 236 632 q 273 745 236 690 q 364 847 310 800 l 179 849 q 93 828 132 849 q 19 764 54 807 l -11 793 q 123 929 54 879 q 279 979 192 979 l 485 979 q 619 991 551 979 q 722 1033 688 1003 l 746 1008 z "},"Ŧ":{"ha":694,"x_min":-11,"x_max":746,"o":"m 458 847 q 420 783 432 814 q 408 713 408 753 l 408 533 l 536 533 l 499 460 l 408 460 l 408 264 q 365 96 408 164 q 229 -29 321 28 l 200 4 q 236 139 236 50 l 236 460 l 108 460 l 142 533 l 236 533 l 236 632 q 273 745 236 690 q 364 847 310 800 l 179 849 q 93 828 132 849 q 19 764 54 807 l -11 793 q 123 929 54 879 q 279 979 192 979 l 485 979 q 619 991 551 979 q 722 1033 688 1003 l 746 1008 q 618 893 697 939 q 458 847 539 847 z "},"Ť":{"ha":694,"x_min":-11,"x_max":746,"o":"m 746 1008 q 618 893 697 939 q 458 847 539 847 q 420 783 432 814 q 408 713 408 753 l 408 264 q 365 96 408 164 q 229 -29 321 28 l 200 4 q 236 139 236 50 l 236 632 q 273 745 236 690 q 364 847 310 800 l 179 849 q 93 828 132 849 q 19 764 54 807 l -11 793 q 123 929 54 879 q 279 979 192 979 l 485 979 q 619 991 551 979 q 722 1033 688 1003 l 746 1008 m 417 1221 l 515 1336 l 561 1299 l 385 1090 l 182 1251 l 261 1347 l 417 1221 z "},"Ț":{"ha":694,"x_min":-11,"x_max":746,"o":"m 746 1008 q 618 893 697 939 q 458 847 539 847 q 420 783 432 814 q 408 713 408 753 l 408 264 q 365 96 408 164 q 229 -29 321 28 l 200 4 q 236 139 236 50 l 236 632 q 273 745 236 690 q 364 847 310 800 l 179 849 q 93 828 132 849 q 19 764 54 807 l -11 793 q 123 929 54 879 q 279 979 192 979 l 485 979 q 619 991 551 979 q 722 1033 688 1003 l 746 1008 m 417 -150 q 390 -85 417 -112 q 326 -58 364 -58 q 263 -85 289 -58 q 238 -150 238 -112 q 256 -206 238 -181 q 306 -239 275 -231 q 290 -277 301 -257 q 263 -312 278 -297 l 290 -336 q 381 -256 346 -303 q 417 -150 417 -208 z "},"U":{"ha":883,"x_min":106,"x_max":894,"o":"m 735 140 q 747 92 735 111 q 785 74 760 74 q 827 87 806 74 q 865 121 849 100 l 894 93 q 714 -10 833 -10 q 603 36 644 -10 q 561 167 561 82 l 561 226 q 285 -14 482 -14 q 151 44 196 -14 q 106 188 106 101 l 106 953 l 279 1010 l 279 232 q 283 149 279 181 q 303 92 286 117 q 358 67 321 67 q 470 140 425 67 q 538 309 515 213 q 561 469 561 406 l 561 954 l 735 1010 l 735 140 z "},"Ú":{"ha":883,"x_min":106,"x_max":894,"o":"m 735 140 q 747 92 735 111 q 785 74 760 74 q 827 87 806 74 q 865 121 849 100 l 894 93 q 714 -10 833 -10 q 603 36 644 -10 q 561 167 561 82 l 561 226 q 285 -14 482 -14 q 151 44 196 -14 q 106 188 106 101 l 106 953 l 279 1010 l 279 232 q 283 149 279 181 q 303 92 286 117 q 358 67 321 67 q 470 140 425 67 q 538 309 515 213 q 561 469 561 406 l 561 954 l 735 1010 l 735 140 m 507 1315 l 317 1117 l 342 1075 l 599 1185 l 507 1315 z "},"Ŭ":{"ha":883,"x_min":106,"x_max":894,"o":"m 735 140 q 747 92 735 111 q 785 74 760 74 q 827 87 806 74 q 865 121 849 100 l 894 93 q 714 -10 833 -10 q 603 36 644 -10 q 561 167 561 82 l 561 226 q 285 -14 482 -14 q 151 44 196 -14 q 106 188 106 101 l 106 953 l 279 1010 l 279 232 q 283 149 279 181 q 303 92 286 117 q 358 67 321 67 q 470 140 425 67 q 538 309 515 213 q 561 469 561 406 l 561 954 l 735 1010 l 735 140 m 354 1336 q 306 1277 324 1313 q 289 1203 289 1242 q 329 1111 289 1146 q 431 1076 369 1076 q 554 1119 506 1076 q 603 1231 603 1161 q 556 1340 603 1292 l 457 1278 q 485 1238 474 1263 q 496 1186 496 1213 q 481 1141 496 1158 q 442 1124 465 1124 q 387 1163 407 1124 q 367 1244 367 1203 q 383 1315 367 1285 l 354 1336 z "},"Û":{"ha":883,"x_min":106,"x_max":894,"o":"m 735 140 q 747 92 735 111 q 785 74 760 74 q 827 87 806 74 q 865 121 849 100 l 894 93 q 714 -10 833 -10 q 603 36 644 -10 q 561 167 561 82 l 561 226 q 285 -14 482 -14 q 151 44 196 -14 q 106 188 106 101 l 106 953 l 279 1010 l 279 232 q 283 149 279 181 q 303 92 286 117 q 358 67 321 67 q 470 140 425 67 q 538 309 515 213 q 561 469 561 406 l 561 954 l 735 1010 l 735 140 m 636 1167 l 558 1069 l 400 1196 l 304 1082 l 257 1118 l 433 1328 l 636 1167 z "},"Ü":{"ha":883,"x_min":106,"x_max":894,"o":"m 735 140 q 747 92 735 111 q 785 74 760 74 q 827 87 806 74 q 865 121 849 100 l 894 93 q 714 -10 833 -10 q 603 36 644 -10 q 561 167 561 82 l 561 226 q 285 -14 482 -14 q 151 44 196 -14 q 106 188 106 101 l 106 953 l 279 1010 l 279 232 q 283 149 279 181 q 303 92 286 117 q 358 67 321 67 q 470 140 425 67 q 538 309 515 213 q 561 469 561 406 l 561 954 l 735 1010 l 735 140 m 322 1307 q 385 1280 358 1307 q 411 1217 411 1253 q 385 1153 411 1179 q 322 1128 358 1128 q 258 1153 285 1128 q 232 1217 232 1179 q 258 1280 232 1253 q 322 1307 285 1307 m 571 1307 q 636 1281 610 1307 q 663 1217 663 1254 q 636 1153 663 1179 q 571 1128 610 1128 q 508 1153 535 1128 q 482 1217 482 1179 q 508 1280 482 1253 q 571 1307 535 1307 z "},"Ù":{"ha":883,"x_min":106,"x_max":894,"o":"m 735 140 q 747 92 735 111 q 785 74 760 74 q 827 87 806 74 q 865 121 849 100 l 894 93 q 714 -10 833 -10 q 603 36 644 -10 q 561 167 561 82 l 561 226 q 285 -14 482 -14 q 151 44 196 -14 q 106 188 106 101 l 106 953 l 279 1010 l 279 232 q 283 149 279 181 q 303 92 286 117 q 358 67 321 67 q 470 140 425 67 q 538 309 515 213 q 561 469 561 406 l 561 954 l 735 1010 l 735 140 m 581 1117 l 388 1315 l 297 1185 l 556 1074 l 581 1117 z "},"Ű":{"ha":883,"x_min":106,"x_max":894,"o":"m 735 140 q 747 92 735 111 q 785 74 760 74 q 827 87 806 74 q 865 121 849 100 l 894 93 q 714 -10 833 -10 q 603 36 644 -10 q 561 167 561 82 l 561 226 q 285 -14 482 -14 q 151 44 196 -14 q 106 188 106 101 l 106 953 l 279 1010 l 279 232 q 283 149 279 181 q 303 92 286 117 q 358 67 321 67 q 470 140 425 67 q 538 309 515 213 q 561 469 561 406 l 561 954 l 735 1010 l 735 140 m 363 1315 l 196 1117 l 226 1075 l 454 1185 l 363 1315 m 606 1315 l 439 1117 l 468 1075 l 697 1185 l 606 1315 z "},"Ū":{"ha":883,"x_min":106,"x_max":894,"o":"m 735 140 q 747 92 735 111 q 785 74 760 74 q 827 87 806 74 q 865 121 849 100 l 894 93 q 714 -10 833 -10 q 603 36 644 -10 q 561 167 561 82 l 561 226 q 285 -14 482 -14 q 151 44 196 -14 q 106 188 106 101 l 106 953 l 279 1010 l 279 232 q 283 149 279 181 q 303 92 286 117 q 358 67 321 67 q 470 140 425 67 q 538 309 515 213 q 561 469 561 406 l 561 954 l 735 1010 l 735 140 m 629 1272 l 318 1272 l 267 1160 l 579 1160 l 629 1272 z "},"Ų":{"ha":883,"x_min":106,"x_max":894,"o":"m 792 -192 q 860 -154 829 -192 l 885 -175 q 824 -246 860 -219 q 749 -272 789 -272 q 671 -246 704 -272 q 638 -167 638 -219 q 728 -10 638 -85 l 714 -10 q 603 36 644 -10 q 561 167 561 82 l 561 226 q 285 -14 482 -14 q 151 44 196 -14 q 106 188 106 101 l 106 953 l 279 1010 l 279 232 q 283 149 279 181 q 303 92 286 117 q 358 67 321 67 q 470 140 425 67 q 538 309 515 213 q 561 469 561 406 l 561 954 l 735 1010 l 735 140 q 747 92 735 111 q 785 74 760 74 q 827 87 806 74 q 865 121 849 100 l 894 93 q 789 3 853 25 q 728 -124 728 -64 q 792 -192 728 -192 z "},"Ů":{"ha":883,"x_min":106,"x_max":894,"o":"m 735 140 q 747 92 735 111 q 785 74 760 74 q 827 87 806 74 q 865 121 849 100 l 894 93 q 714 -10 833 -10 q 603 36 644 -10 q 561 167 561 82 l 561 226 q 285 -14 482 -14 q 151 44 196 -14 q 106 188 106 101 l 106 953 l 279 1010 l 279 232 q 283 149 279 181 q 303 92 286 117 q 358 67 321 67 q 470 140 425 67 q 538 309 515 213 q 561 469 561 406 l 561 954 l 735 1010 l 735 140 m 446 1381 q 551 1342 510 1381 q 592 1244 592 1304 q 549 1149 592 1190 q 446 1108 506 1108 q 344 1148 385 1108 q 303 1244 303 1188 q 345 1341 303 1301 q 446 1381 388 1381 m 429 1331 q 403 1315 413 1331 q 394 1272 394 1300 q 417 1192 394 1225 q 464 1160 439 1160 q 489 1176 481 1160 q 497 1221 497 1193 q 475 1299 497 1268 q 429 1331 453 1331 z "},"Ũ":{"ha":883,"x_min":106,"x_max":894,"o":"m 735 140 q 747 92 735 111 q 785 74 760 74 q 827 87 806 74 q 865 121 849 100 l 894 93 q 714 -10 833 -10 q 603 36 644 -10 q 561 167 561 82 l 561 226 q 285 -14 482 -14 q 151 44 196 -14 q 106 188 106 101 l 106 953 l 279 1010 l 279 232 q 283 149 279 181 q 303 92 286 117 q 358 67 321 67 q 470 140 425 67 q 538 309 515 213 q 561 469 561 406 l 561 954 l 735 1010 l 735 140 m 581 1319 q 615 1231 615 1281 q 586 1154 615 1185 q 508 1124 557 1124 q 460 1136 479 1124 q 421 1169 440 1149 q 397 1190 407 1183 q 375 1197 386 1197 q 350 1164 350 1197 q 360 1131 350 1146 l 314 1113 q 279 1203 279 1153 q 308 1279 279 1249 q 385 1310 336 1310 q 433 1297 414 1310 q 472 1264 453 1285 q 497 1243 486 1250 q 518 1236 507 1236 q 538 1244 531 1236 q 544 1268 544 1253 q 533 1301 544 1286 l 581 1319 z "},"V":{"ha":790,"x_min":-12,"x_max":779,"o":"m 646 1090 q 743 985 707 1051 q 779 857 779 918 q 714 625 779 761 l 400 -57 l -12 922 l 150 993 l 458 242 l 603 546 q 643 651 631 613 q 656 729 656 689 q 525 958 656 858 l 646 1090 z "},"W":{"ha":1101,"x_min":-11,"x_max":1079,"o":"m 954 1090 q 1049 984 1018 1044 q 1079 856 1079 924 q 1026 638 1079 754 l 736 -51 l 549 454 l 351 -51 l -11 931 l 156 993 l 411 286 l 514 550 l 393 879 l 560 942 l 801 274 l 917 546 q 960 724 960 654 q 833 958 960 856 l 954 1090 z "},"Ẃ":{"ha":1101,"x_min":-11,"x_max":1079,"o":"m 954 1090 q 1049 984 1018 1044 q 1079 856 1079 924 q 1026 638 1079 754 l 736 -51 l 549 454 l 351 -51 l -11 931 l 156 993 l 411 286 l 514 550 l 393 879 l 560 942 l 801 274 l 917 546 q 960 724 960 654 q 833 958 960 856 l 954 1090 m 611 1315 l 421 1117 l 446 1075 l 703 1185 l 611 1315 z "},"Ŵ":{"ha":1101,"x_min":-11,"x_max":1079,"o":"m 954 1090 q 1049 984 1018 1044 q 1079 856 1079 924 q 1026 638 1079 754 l 736 -51 l 549 454 l 351 -51 l -11 931 l 156 993 l 411 286 l 514 550 l 393 879 l 560 942 l 801 274 l 917 546 q 960 724 960 654 q 833 958 960 856 l 954 1090 m 740 1167 l 663 1069 l 504 1196 l 408 1082 l 361 1118 l 538 1328 l 740 1167 z "},"Ẅ":{"ha":1101,"x_min":-11,"x_max":1079,"o":"m 954 1090 q 1049 984 1018 1044 q 1079 856 1079 924 q 1026 638 1079 754 l 736 -51 l 549 454 l 351 -51 l -11 931 l 156 993 l 411 286 l 514 550 l 393 879 l 560 942 l 801 274 l 917 546 q 960 724 960 654 q 833 958 960 856 l 954 1090 m 426 1307 q 489 1280 463 1307 q 515 1217 515 1253 q 489 1153 515 1179 q 426 1128 463 1128 q 363 1153 389 1128 q 336 1217 336 1179 q 363 1280 336 1253 q 426 1307 389 1307 m 675 1307 q 740 1281 714 1307 q 767 1217 767 1254 q 740 1153 767 1179 q 675 1128 714 1128 q 613 1153 639 1128 q 586 1217 586 1179 q 613 1280 586 1253 q 675 1307 639 1307 z "},"Ẁ":{"ha":1101,"x_min":-11,"x_max":1079,"o":"m 954 1090 q 1049 984 1018 1044 q 1079 856 1079 924 q 1026 638 1079 754 l 736 -51 l 549 454 l 351 -51 l -11 931 l 156 993 l 411 286 l 514 550 l 393 879 l 560 942 l 801 274 l 917 546 q 960 724 960 654 q 833 958 960 856 l 954 1090 m 685 1117 l 492 1315 l 401 1185 l 660 1074 l 685 1117 z "},"X":{"ha":807,"x_min":7,"x_max":799,"o":"m 629 -29 l 378 364 q 281 160 329 244 q 164 24 232 76 q 7 -29 96 -29 l 50 151 q 69 143 57 146 q 90 140 81 140 q 223 215 167 140 q 336 431 279 290 l 11 938 l 182 989 l 414 625 q 568 894 486 797 q 774 992 650 992 l 733 811 q 690 821 704 821 q 564 753 618 821 q 457 560 510 686 l 799 25 l 629 -29 z "},"Y":{"ha":881,"x_min":-21,"x_max":769,"o":"m 589 228 q 319 0 511 0 q 186 58 232 0 q 140 203 140 115 l 140 844 q 128 891 140 872 q 90 910 117 910 q 47 897 68 910 q 11 864 25 883 l -21 892 q 154 996 47 996 q 273 946 231 996 q 315 811 315 896 l 315 247 q 330 126 315 174 q 394 79 344 79 q 506 152 461 79 q 574 320 551 225 q 596 479 596 415 l 596 954 l 769 1010 l 769 38 q 724 -135 769 -56 q 599 -261 678 -214 q 428 -308 521 -308 q 299 -289 354 -308 q 197 -231 243 -269 l 329 -117 q 391 -201 351 -164 q 476 -237 431 -237 q 565 -195 535 -237 q 596 -92 596 -153 l 596 228 l 589 228 z "},"Ý":{"ha":881,"x_min":-21,"x_max":769,"o":"m 589 228 q 319 0 511 0 q 186 58 232 0 q 140 203 140 115 l 140 844 q 128 891 140 872 q 90 910 117 910 q 47 897 68 910 q 11 864 25 883 l -21 892 q 154 996 47 996 q 273 946 231 996 q 315 811 315 896 l 315 247 q 330 126 315 174 q 394 79 344 79 q 506 152 461 79 q 574 320 551 225 q 596 479 596 415 l 596 954 l 769 1010 l 769 38 q 724 -135 769 -56 q 599 -261 678 -214 q 428 -308 521 -308 q 299 -289 354 -308 q 197 -231 243 -269 l 329 -117 q 391 -201 351 -164 q 476 -237 431 -237 q 565 -195 535 -237 q 596 -92 596 -153 l 596 228 l 589 228 m 504 1315 l 314 1117 l 339 1075 l 596 1185 l 504 1315 z "},"Ŷ":{"ha":881,"x_min":-21,"x_max":769,"o":"m 589 228 q 319 0 511 0 q 186 58 232 0 q 140 203 140 115 l 140 844 q 128 891 140 872 q 90 910 117 910 q 47 897 68 910 q 11 864 25 883 l -21 892 q 154 996 47 996 q 273 946 231 996 q 315 811 315 896 l 315 247 q 330 126 315 174 q 394 79 344 79 q 506 152 461 79 q 574 320 551 225 q 596 479 596 415 l 596 954 l 769 1010 l 769 38 q 724 -135 769 -56 q 599 -261 678 -214 q 428 -308 521 -308 q 299 -289 354 -308 q 197 -231 243 -269 l 329 -117 q 391 -201 351 -164 q 476 -237 431 -237 q 565 -195 535 -237 q 596 -92 596 -153 l 596 228 l 589 228 m 633 1167 l 556 1069 l 397 1196 l 301 1082 l 254 1118 l 431 1328 l 633 1167 z "},"Ÿ":{"ha":881,"x_min":-21,"x_max":769,"o":"m 589 228 q 319 0 511 0 q 186 58 232 0 q 140 203 140 115 l 140 844 q 128 891 140 872 q 90 910 117 910 q 47 897 68 910 q 11 864 25 883 l -21 892 q 154 996 47 996 q 273 946 231 996 q 315 811 315 896 l 315 247 q 330 126 315 174 q 394 79 344 79 q 506 152 461 79 q 574 320 551 225 q 596 479 596 415 l 596 954 l 769 1010 l 769 38 q 724 -135 769 -56 q 599 -261 678 -214 q 428 -308 521 -308 q 299 -289 354 -308 q 197 -231 243 -269 l 329 -117 q 391 -201 351 -164 q 476 -237 431 -237 q 565 -195 535 -237 q 596 -92 596 -153 l 596 228 l 589 228 m 319 1307 q 382 1280 356 1307 q 408 1217 408 1253 q 382 1153 408 1179 q 319 1128 356 1128 q 256 1153 282 1128 q 229 1217 229 1179 q 256 1280 229 1253 q 319 1307 282 1307 m 568 1307 q 633 1281 607 1307 q 660 1217 660 1254 q 633 1153 660 1179 q 568 1128 607 1128 q 506 1153 532 1128 q 479 1217 479 1179 q 506 1280 479 1253 q 568 1307 532 1307 z "},"Ỳ":{"ha":881,"x_min":-21,"x_max":769,"o":"m 589 228 q 319 0 511 0 q 186 58 232 0 q 140 203 140 115 l 140 844 q 128 891 140 872 q 90 910 117 910 q 47 897 68 910 q 11 864 25 883 l -21 892 q 154 996 47 996 q 273 946 231 996 q 315 811 315 896 l 315 247 q 330 126 315 174 q 394 79 344 79 q 506 152 461 79 q 574 320 551 225 q 596 479 596 415 l 596 954 l 769 1010 l 769 38 q 724 -135 769 -56 q 599 -261 678 -214 q 428 -308 521 -308 q 299 -289 354 -308 q 197 -231 243 -269 l 329 -117 q 391 -201 351 -164 q 476 -237 431 -237 q 565 -195 535 -237 q 596 -92 596 -153 l 596 228 l 589 228 m 578 1117 l 385 1315 l 294 1185 l 553 1074 l 578 1117 z "},"Z":{"ha":814,"x_min":18,"x_max":796,"o":"m 789 982 l 210 147 l 215 142 q 360 181 281 181 q 489 169 414 181 q 597 160 550 160 q 688 185 649 160 q 761 253 726 210 l 796 229 l 682 -14 q 483 14 606 -8 q 359 33 413 26 q 243 40 306 40 q 60 -12 142 40 l 18 28 l 567 821 l 376 821 q 226 815 275 821 q 145 787 178 808 q 74 717 113 765 l 38 744 l 164 979 l 581 979 q 683 987 646 979 q 751 1021 721 994 l 789 982 z "},"Ź":{"ha":814,"x_min":18,"x_max":796,"o":"m 789 982 l 210 147 l 215 142 q 360 181 281 181 q 489 169 414 181 q 597 160 550 160 q 688 185 649 160 q 761 253 726 210 l 796 229 l 682 -14 q 483 14 606 -8 q 359 33 413 26 q 243 40 306 40 q 60 -12 142 40 l 18 28 l 567 821 l 376 821 q 226 815 275 821 q 145 787 178 808 q 74 717 113 765 l 38 744 l 164 979 l 581 979 q 683 987 646 979 q 751 1021 721 994 l 789 982 m 529 1315 l 339 1117 l 364 1075 l 621 1185 l 529 1315 z "},"Ž":{"ha":814,"x_min":18,"x_max":796,"o":"m 789 982 l 210 147 l 215 142 q 360 181 281 181 q 489 169 414 181 q 597 160 550 160 q 688 185 649 160 q 761 253 726 210 l 796 229 l 682 -14 q 483 14 606 -8 q 359 33 413 26 q 243 40 306 40 q 60 -12 142 40 l 18 28 l 567 821 l 376 821 q 226 815 275 821 q 145 787 178 808 q 74 717 113 765 l 38 744 l 164 979 l 581 979 q 683 987 646 979 q 751 1021 721 994 l 789 982 m 515 1221 l 614 1336 l 660 1299 l 483 1090 l 281 1251 l 360 1347 l 515 1221 z "},"Ż":{"ha":814,"x_min":18,"x_max":796,"o":"m 789 982 l 210 147 l 215 142 q 360 181 281 181 q 489 169 414 181 q 597 160 550 160 q 688 185 649 160 q 761 253 726 210 l 796 229 l 682 -14 q 483 14 606 -8 q 359 33 413 26 q 243 40 306 40 q 60 -12 142 40 l 18 28 l 567 821 l 376 821 q 226 815 275 821 q 145 787 178 808 q 74 717 113 765 l 38 744 l 164 979 l 581 979 q 683 987 646 979 q 751 1021 721 994 l 789 982 m 469 1313 q 535 1284 507 1313 q 563 1217 563 1256 q 535 1151 563 1179 q 469 1124 507 1124 q 403 1151 431 1124 q 376 1217 376 1179 q 403 1284 376 1256 q 469 1313 431 1313 z "},"a":{"ha":815,"x_min":63,"x_max":808,"o":"m 443 694 q 580 665 517 694 q 674 575 643 636 l 539 519 q 485 579 519 556 q 411 603 450 603 q 264 525 318 603 q 210 331 210 447 q 242 155 210 224 q 343 86 274 86 q 476 177 440 86 q 513 375 513 268 l 513 436 l 675 494 l 675 133 q 684 99 675 114 q 711 85 693 85 q 782 133 746 85 l 808 107 q 742 24 788 58 q 646 -10 697 -10 q 549 35 579 -10 q 518 151 518 81 l 513 151 q 424 30 479 76 q 294 -17 368 -17 q 123 65 183 -17 q 63 276 63 146 q 110 483 63 388 q 245 637 158 579 q 443 694 332 694 z "},"á":{"ha":815,"x_min":63,"x_max":808,"o":"m 443 694 q 580 665 517 694 q 674 575 643 636 l 539 519 q 485 579 519 556 q 411 603 450 603 q 264 525 318 603 q 210 331 210 447 q 242 155 210 224 q 343 86 274 86 q 476 177 440 86 q 513 375 513 268 l 513 436 l 675 494 l 675 133 q 684 99 675 114 q 711 85 693 85 q 782 133 746 85 l 808 107 q 742 24 788 58 q 646 -10 697 -10 q 549 35 579 -10 q 518 151 518 81 l 513 151 q 424 30 479 76 q 294 -17 368 -17 q 123 65 183 -17 q 63 276 63 146 q 110 483 63 388 q 245 637 158 579 q 443 694 332 694 m 514 1031 l 324 832 l 349 790 l 606 900 l 514 1031 z "},"ă":{"ha":815,"x_min":63,"x_max":808,"o":"m 443 694 q 580 665 517 694 q 674 575 643 636 l 539 519 q 485 579 519 556 q 411 603 450 603 q 264 525 318 603 q 210 331 210 447 q 242 155 210 224 q 343 86 274 86 q 476 177 440 86 q 513 375 513 268 l 513 436 l 675 494 l 675 133 q 684 99 675 114 q 711 85 693 85 q 782 133 746 85 l 808 107 q 742 24 788 58 q 646 -10 697 -10 q 549 35 579 -10 q 518 151 518 81 l 513 151 q 424 30 479 76 q 294 -17 368 -17 q 123 65 183 -17 q 63 276 63 146 q 110 483 63 388 q 245 637 158 579 q 443 694 332 694 m 361 1051 q 313 992 331 1028 q 296 918 296 957 q 336 826 296 861 q 438 792 376 792 q 561 834 513 792 q 610 946 610 876 q 563 1056 610 1007 l 464 993 q 492 953 481 978 q 503 901 503 928 q 488 856 503 874 q 449 839 472 839 q 394 878 414 839 q 374 960 374 918 q 390 1031 374 1000 l 361 1051 z "},"â":{"ha":815,"x_min":63,"x_max":808,"o":"m 443 694 q 580 665 517 694 q 674 575 643 636 l 539 519 q 485 579 519 556 q 411 603 450 603 q 264 525 318 603 q 210 331 210 447 q 242 155 210 224 q 343 86 274 86 q 476 177 440 86 q 513 375 513 268 l 513 436 l 675 494 l 675 133 q 684 99 675 114 q 711 85 693 85 q 782 133 746 85 l 808 107 q 742 24 788 58 q 646 -10 697 -10 q 549 35 579 -10 q 518 151 518 81 l 513 151 q 424 30 479 76 q 294 -17 368 -17 q 123 65 183 -17 q 63 276 63 146 q 110 483 63 388 q 245 637 158 579 q 443 694 332 694 m 643 882 l 565 785 l 407 911 l 311 797 l 264 833 l 440 1043 l 643 882 z "},"ä":{"ha":815,"x_min":63,"x_max":808,"o":"m 443 694 q 580 665 517 694 q 674 575 643 636 l 539 519 q 485 579 519 556 q 411 603 450 603 q 264 525 318 603 q 210 331 210 447 q 242 155 210 224 q 343 86 274 86 q 476 177 440 86 q 513 375 513 268 l 513 436 l 675 494 l 675 133 q 684 99 675 114 q 711 85 693 85 q 782 133 746 85 l 808 107 q 742 24 788 58 q 646 -10 697 -10 q 549 35 579 -10 q 518 151 518 81 l 513 151 q 424 30 479 76 q 294 -17 368 -17 q 123 65 183 -17 q 63 276 63 146 q 110 483 63 388 q 245 637 158 579 q 443 694 332 694 m 329 1022 q 392 995 365 1022 q 418 932 418 968 q 392 869 418 894 q 329 843 365 843 q 265 869 292 843 q 239 932 239 894 q 265 995 239 968 q 329 1022 292 1022 m 578 1022 q 643 996 617 1022 q 669 932 669 969 q 643 869 669 894 q 578 843 617 843 q 515 869 542 843 q 489 932 489 894 q 515 995 489 968 q 578 1022 542 1022 z "},"à":{"ha":815,"x_min":63,"x_max":808,"o":"m 443 694 q 580 665 517 694 q 674 575 643 636 l 539 519 q 485 579 519 556 q 411 603 450 603 q 264 525 318 603 q 210 331 210 447 q 242 155 210 224 q 343 86 274 86 q 476 177 440 86 q 513 375 513 268 l 513 436 l 675 494 l 675 133 q 684 99 675 114 q 711 85 693 85 q 782 133 746 85 l 808 107 q 742 24 788 58 q 646 -10 697 -10 q 549 35 579 -10 q 518 151 518 81 l 513 151 q 424 30 479 76 q 294 -17 368 -17 q 123 65 183 -17 q 63 276 63 146 q 110 483 63 388 q 245 637 158 579 q 443 694 332 694 m 588 832 l 394 1031 l 304 900 l 563 789 l 588 832 z "},"ā":{"ha":815,"x_min":63,"x_max":808,"o":"m 443 694 q 580 665 517 694 q 674 575 643 636 l 539 519 q 485 579 519 556 q 411 603 450 603 q 264 525 318 603 q 210 331 210 447 q 242 155 210 224 q 343 86 274 86 q 476 177 440 86 q 513 375 513 268 l 513 436 l 675 494 l 675 133 q 684 99 675 114 q 711 85 693 85 q 782 133 746 85 l 808 107 q 742 24 788 58 q 646 -10 697 -10 q 549 35 579 -10 q 518 151 518 81 l 513 151 q 424 30 479 76 q 294 -17 368 -17 q 123 65 183 -17 q 63 276 63 146 q 110 483 63 388 q 245 637 158 579 q 443 694 332 694 m 638 988 l 326 988 l 275 875 l 588 875 l 638 988 z "},"ą":{"ha":815,"x_min":63,"x_max":808,"o":"m 808 -172 q 748 -243 783 -217 q 672 -269 713 -269 q 594 -243 628 -269 q 561 -164 561 -217 q 649 -10 561 -82 l 646 -10 q 549 35 579 -10 q 518 151 518 81 l 513 151 q 424 30 479 76 q 294 -17 368 -17 q 123 65 183 -17 q 63 276 63 146 q 110 483 63 388 q 245 637 158 579 q 443 694 332 694 q 580 665 517 694 q 674 575 643 636 l 539 519 q 485 579 519 556 q 411 603 450 603 q 264 525 318 603 q 210 331 210 447 q 242 155 210 224 q 343 86 274 86 q 476 177 440 86 q 513 375 513 268 l 513 436 l 675 494 l 675 133 q 684 99 675 114 q 711 85 693 85 q 782 133 746 85 l 808 107 q 769 48 794 75 q 713 6 744 21 q 651 -121 651 -61 q 715 -189 651 -189 q 783 -151 753 -189 l 808 -172 z "},"å":{"ha":815,"x_min":63,"x_max":808,"o":"m 443 694 q 580 665 517 694 q 674 575 643 636 l 539 519 q 485 579 519 556 q 411 603 450 603 q 264 525 318 603 q 210 331 210 447 q 242 155 210 224 q 343 86 274 86 q 476 177 440 86 q 513 375 513 268 l 513 436 l 675 494 l 675 133 q 684 99 675 114 q 711 85 693 85 q 782 133 746 85 l 808 107 q 742 24 788 58 q 646 -10 697 -10 q 549 35 579 -10 q 518 151 518 81 l 513 151 q 424 30 479 76 q 294 -17 368 -17 q 123 65 183 -17 q 63 276 63 146 q 110 483 63 388 q 245 637 158 579 q 443 694 332 694 m 453 1096 q 558 1058 517 1096 q 599 960 599 1019 q 556 865 599 906 q 453 824 513 824 q 351 863 392 824 q 310 960 310 903 q 352 1056 310 1017 q 453 1096 394 1096 m 436 1046 q 410 1031 419 1046 q 401 988 401 1015 q 424 908 401 940 q 471 875 446 875 q 496 892 488 875 q 504 936 504 908 q 482 1015 504 983 q 436 1046 460 1046 z "},"ã":{"ha":815,"x_min":63,"x_max":808,"o":"m 443 694 q 580 665 517 694 q 674 575 643 636 l 539 519 q 485 579 519 556 q 411 603 450 603 q 264 525 318 603 q 210 331 210 447 q 242 155 210 224 q 343 86 274 86 q 476 177 440 86 q 513 375 513 268 l 513 436 l 675 494 l 675 133 q 684 99 675 114 q 711 85 693 85 q 782 133 746 85 l 808 107 q 742 24 788 58 q 646 -10 697 -10 q 549 35 579 -10 q 518 151 518 81 l 513 151 q 424 30 479 76 q 294 -17 368 -17 q 123 65 183 -17 q 63 276 63 146 q 110 483 63 388 q 245 637 158 579 q 443 694 332 694 m 588 1035 q 622 946 622 996 q 593 869 622 900 q 515 839 564 839 q 467 851 486 839 q 428 885 447 864 q 403 906 414 899 q 382 913 393 913 q 357 879 357 913 q 367 846 357 861 l 321 828 q 286 918 286 868 q 315 994 286 964 q 392 1025 343 1025 q 440 1013 421 1025 q 479 979 460 1000 q 503 958 493 965 q 525 951 514 951 q 544 960 538 951 q 551 983 551 968 q 540 1017 551 1001 l 588 1035 z "},"æ":{"ha":1183,"x_min":56,"x_max":1150,"o":"m 1150 175 q 994 36 1082 89 q 807 -17 906 -17 q 632 35 708 -17 q 521 172 556 86 q 431 31 490 78 q 294 -17 372 -17 q 119 63 182 -17 q 56 263 56 142 q 103 473 56 374 q 238 633 151 572 q 436 694 325 694 q 552 670 492 694 q 656 608 613 646 q 779 681 713 656 q 917 707 846 707 q 1049 666 996 707 q 1103 547 1103 625 q 1036 407 1103 485 q 878 263 969 329 q 721 169 788 197 q 799 103 756 128 q 889 79 842 79 q 1008 117 947 79 q 1119 207 1068 154 l 1150 175 m 656 357 q 692 214 656 278 q 797 295 742 243 q 890 407 853 347 q 928 515 928 467 q 904 591 928 565 q 836 617 881 617 q 744 579 785 617 q 679 481 703 542 q 656 357 656 421 m 351 86 q 469 192 436 86 q 503 488 503 299 q 472 574 503 544 q 404 603 440 603 q 301 567 346 603 q 231 468 256 531 q 207 331 207 406 q 242 163 207 240 q 351 86 276 86 z "},"ǽ":{"ha":1183,"x_min":56,"x_max":1150,"o":"m 1150 175 q 994 36 1082 89 q 807 -17 906 -17 q 632 35 708 -17 q 521 172 556 86 q 431 31 490 78 q 294 -17 372 -17 q 119 63 182 -17 q 56 263 56 142 q 103 473 56 374 q 238 633 151 572 q 436 694 325 694 q 552 670 492 694 q 656 608 613 646 q 779 681 713 656 q 917 707 846 707 q 1049 666 996 707 q 1103 547 1103 625 q 1036 407 1103 485 q 878 263 969 329 q 721 169 788 197 q 799 103 756 128 q 889 79 842 79 q 1008 117 947 79 q 1119 207 1068 154 l 1150 175 m 656 357 q 692 214 656 278 q 797 295 742 243 q 890 407 853 347 q 928 515 928 467 q 904 591 928 565 q 836 617 881 617 q 744 579 785 617 q 679 481 703 542 q 656 357 656 421 m 351 86 q 469 192 436 86 q 503 488 503 299 q 472 574 503 544 q 404 603 440 603 q 301 567 346 603 q 231 468 256 531 q 207 331 207 406 q 242 163 207 240 q 351 86 276 86 m 649 1031 l 458 832 l 483 790 l 740 900 l 649 1031 z "},"b":{"ha":775,"x_min":106,"x_max":718,"o":"m 718 357 q 665 185 718 272 q 529 40 613 97 q 361 -17 446 -17 q 173 60 240 -17 q 106 258 106 138 l 106 1225 l 272 1283 l 272 228 q 306 113 272 163 q 403 64 339 64 q 494 96 456 64 q 551 178 532 128 q 571 278 571 228 q 537 416 571 347 q 444 531 503 485 q 318 582 386 578 l 468 692 q 590 619 532 672 q 683 497 647 567 q 718 357 718 426 z "},"c":{"ha":721,"x_min":51,"x_max":692,"o":"m 446 703 q 565 669 510 703 q 650 567 619 636 l 506 489 q 456 580 492 547 q 378 613 419 613 q 279 578 322 613 q 213 490 236 544 q 190 376 190 436 q 219 215 190 283 q 299 112 249 147 q 414 76 350 76 q 660 222 542 76 l 692 194 q 544 38 622 93 q 357 -17 465 -17 q 200 24 269 -17 q 91 140 131 65 q 51 311 51 214 q 99 508 51 418 q 235 650 146 597 q 446 703 325 703 z "},"ć":{"ha":721,"x_min":51,"x_max":692,"o":"m 446 703 q 565 669 510 703 q 650 567 619 636 l 506 489 q 456 580 492 547 q 378 613 419 613 q 279 578 322 613 q 213 490 236 544 q 190 376 190 436 q 219 215 190 283 q 299 112 249 147 q 414 76 350 76 q 660 222 542 76 l 692 194 q 544 38 622 93 q 357 -17 465 -17 q 200 24 269 -17 q 91 140 131 65 q 51 311 51 214 q 99 508 51 418 q 235 650 146 597 q 446 703 325 703 m 438 1031 l 247 832 l 272 790 l 529 900 l 438 1031 z "},"č":{"ha":721,"x_min":51,"x_max":692,"o":"m 446 703 q 565 669 510 703 q 650 567 619 636 l 506 489 q 456 580 492 547 q 378 613 419 613 q 279 578 322 613 q 213 490 236 544 q 190 376 190 436 q 219 215 190 283 q 299 112 249 147 q 414 76 350 76 q 660 222 542 76 l 692 194 q 544 38 622 93 q 357 -17 465 -17 q 200 24 269 -17 q 91 140 131 65 q 51 311 51 214 q 99 508 51 418 q 235 650 146 597 q 446 703 325 703 m 424 936 l 522 1051 l 568 1014 l 392 806 l 189 967 l 268 1063 l 424 936 z "},"ç":{"ha":721,"x_min":51,"x_max":692,"o":"m 344 -17 l 318 -62 q 372 -51 347 -51 q 453 -81 421 -51 q 485 -162 485 -110 q 446 -247 485 -214 q 356 -279 407 -279 q 286 -260 319 -279 q 235 -210 253 -240 l 265 -187 q 325 -224 293 -224 q 366 -206 351 -224 q 381 -162 381 -187 q 364 -118 381 -136 q 322 -100 347 -100 q 282 -112 300 -100 l 256 -92 l 301 -12 q 120 94 189 7 q 51 311 51 181 q 99 508 51 418 q 235 650 146 597 q 446 703 325 703 q 565 669 510 703 q 650 567 619 636 l 506 489 q 456 580 492 547 q 378 613 419 613 q 279 578 322 613 q 213 490 236 544 q 190 376 190 436 q 219 215 190 283 q 299 112 249 147 q 414 76 350 76 q 660 222 542 76 l 692 194 q 544 38 622 93 q 357 -17 465 -17 l 344 -17 z "},"ĉ":{"ha":721,"x_min":51,"x_max":692,"o":"m 446 703 q 565 669 510 703 q 650 567 619 636 l 506 489 q 456 580 492 547 q 378 613 419 613 q 279 578 322 613 q 213 490 236 544 q 190 376 190 436 q 219 215 190 283 q 299 112 249 147 q 414 76 350 76 q 660 222 542 76 l 692 194 q 544 38 622 93 q 357 -17 465 -17 q 200 24 269 -17 q 91 140 131 65 q 51 311 51 214 q 99 508 51 418 q 235 650 146 597 q 446 703 325 703 m 567 882 l 489 785 l 331 911 l 235 797 l 188 833 l 364 1043 l 567 882 z "},"ċ":{"ha":721,"x_min":51,"x_max":692,"o":"m 446 703 q 565 669 510 703 q 650 567 619 636 l 506 489 q 456 580 492 547 q 378 613 419 613 q 279 578 322 613 q 213 490 236 544 q 190 376 190 436 q 219 215 190 283 q 299 112 249 147 q 414 76 350 76 q 660 222 542 76 l 692 194 q 544 38 622 93 q 357 -17 465 -17 q 200 24 269 -17 q 91 140 131 65 q 51 311 51 214 q 99 508 51 418 q 235 650 146 597 q 446 703 325 703 m 378 1028 q 443 999 415 1028 q 471 932 471 971 q 443 867 471 894 q 378 839 415 839 q 312 867 339 839 q 285 932 285 894 q 312 999 285 971 q 378 1028 339 1028 z "},"d":{"ha":828,"x_min":61,"x_max":813,"o":"m 681 133 q 690 99 681 114 q 717 85 699 85 q 753 100 735 85 q 782 133 772 115 l 813 107 q 744 24 788 58 q 650 -10 700 -10 q 546 30 578 -10 q 515 151 514 69 l 508 151 q 425 31 476 79 q 301 -17 374 -17 q 171 22 225 -17 q 89 127 117 61 q 61 274 61 193 q 103 476 61 376 q 226 639 146 575 q 414 703 307 703 q 513 676 468 703 l 513 1225 l 681 1283 l 681 133 m 411 614 q 301 569 344 614 q 236 458 257 524 q 215 328 215 392 q 249 164 215 242 q 357 86 283 86 q 479 177 446 86 q 513 375 513 268 l 513 568 q 411 614 467 614 z "},"ð":{"ha":814,"x_min":53,"x_max":747,"o":"m 517 979 q 687 715 626 864 q 747 388 747 565 q 698 190 747 283 q 566 39 649 96 q 386 -18 483 -18 q 215 28 290 -18 q 96 163 139 75 q 53 368 53 250 q 95 529 53 451 q 209 658 138 607 q 367 718 281 710 q 453 656 418 683 q 517 594 489 628 q 333 543 411 594 q 213 415 254 492 q 171 269 171 339 q 219 125 171 183 q 356 67 267 67 q 474 113 424 67 q 553 238 525 160 q 581 410 581 317 q 534 692 581 558 q 403 936 488 825 l 181 854 l 181 950 l 342 1010 q 124 1182 249 1108 l 151 1214 q 443 1047 315 1154 l 663 1129 l 663 1032 l 517 979 z "},"ď":{"ha":828,"x_min":61,"x_max":896,"o":"m 681 133 q 690 99 681 114 q 717 85 699 85 q 753 100 735 85 q 782 133 772 115 l 813 107 q 744 24 788 58 q 650 -10 700 -10 q 546 30 578 -10 q 515 151 514 69 l 508 151 q 425 31 476 79 q 301 -17 374 -17 q 171 22 225 -17 q 89 127 117 61 q 61 274 61 193 q 103 476 61 376 q 226 639 146 575 q 414 703 307 703 q 513 676 468 703 l 513 1225 l 681 1283 l 681 133 m 411 614 q 301 569 344 614 q 236 458 257 524 q 215 328 215 392 q 249 164 215 242 q 357 86 283 86 q 479 177 446 86 q 513 375 513 268 l 513 568 q 411 614 467 614 m 896 964 q 869 1029 896 1001 q 807 1057 843 1057 q 742 1029 769 1057 q 715 964 715 1001 q 735 909 715 933 q 785 875 754 885 q 770 837 783 857 q 742 803 757 817 l 769 778 q 860 859 825 811 q 896 964 896 907 z "},"đ":{"ha":828,"x_min":61,"x_max":813,"o":"m 813 107 q 744 24 788 58 q 650 -10 700 -10 q 546 30 578 -10 q 515 151 514 69 l 508 151 q 425 31 476 79 q 301 -17 374 -17 q 171 22 225 -17 q 89 127 117 61 q 61 274 61 193 q 103 476 61 376 q 226 639 146 575 q 414 703 307 703 q 513 676 468 703 l 513 818 l 324 818 l 361 910 l 513 910 l 513 1225 l 681 1283 l 681 910 l 804 910 l 768 818 l 681 818 l 681 133 q 690 99 681 114 q 717 85 699 85 q 753 100 735 85 q 782 133 772 115 l 813 107 m 513 568 q 411 614 467 614 q 301 569 344 614 q 236 458 257 524 q 215 328 215 392 q 249 164 215 242 q 357 86 283 86 q 479 177 446 86 q 513 375 513 268 l 513 568 z "},"e":{"ha":738,"x_min":53,"x_max":703,"o":"m 467 707 q 601 666 547 707 q 656 547 656 625 q 588 408 656 485 q 428 265 521 331 q 271 169 336 199 q 442 76 329 76 q 567 112 504 76 q 675 206 631 147 l 703 172 q 551 33 631 82 q 361 -17 471 -17 q 202 24 272 -17 q 92 134 132 64 q 53 292 53 204 q 110 494 53 397 q 264 649 168 590 q 467 707 360 707 m 388 617 q 293 578 335 617 q 228 481 251 540 q 204 357 204 421 q 240 214 204 274 q 349 295 292 243 q 446 407 407 347 q 485 515 485 467 q 459 590 485 564 q 388 617 433 617 z "},"é":{"ha":738,"x_min":53,"x_max":703,"o":"m 467 707 q 601 666 547 707 q 656 547 656 625 q 588 408 656 485 q 428 265 521 331 q 271 169 336 199 q 442 76 329 76 q 567 112 504 76 q 675 206 631 147 l 703 172 q 551 33 631 82 q 361 -17 471 -17 q 202 24 272 -17 q 92 134 132 64 q 53 292 53 204 q 110 494 53 397 q 264 649 168 590 q 467 707 360 707 m 388 617 q 293 578 335 617 q 228 481 251 540 q 204 357 204 421 q 240 214 204 274 q 349 295 292 243 q 446 407 407 347 q 485 515 485 467 q 459 590 485 564 q 388 617 433 617 m 454 1031 l 264 832 l 289 790 l 546 900 l 454 1031 z "},"ĕ":{"ha":738,"x_min":53,"x_max":703,"o":"m 467 707 q 601 666 547 707 q 656 547 656 625 q 588 408 656 485 q 428 265 521 331 q 271 169 336 199 q 442 76 329 76 q 567 112 504 76 q 675 206 631 147 l 703 172 q 551 33 631 82 q 361 -17 471 -17 q 202 24 272 -17 q 92 134 132 64 q 53 292 53 204 q 110 494 53 397 q 264 649 168 590 q 467 707 360 707 m 388 617 q 293 578 335 617 q 228 481 251 540 q 204 357 204 421 q 240 214 204 274 q 349 295 292 243 q 446 407 407 347 q 485 515 485 467 q 459 590 485 564 q 388 617 433 617 m 301 1051 q 253 992 271 1028 q 236 918 236 957 q 276 826 236 861 q 378 792 317 792 q 501 834 453 792 q 550 946 550 876 q 503 1056 550 1007 l 404 993 q 432 953 421 978 q 443 901 443 928 q 428 856 443 874 q 389 839 413 839 q 334 878 354 839 q 314 960 314 918 q 331 1031 314 1000 l 301 1051 z "},"ě":{"ha":738,"x_min":53,"x_max":703,"o":"m 467 707 q 601 666 547 707 q 656 547 656 625 q 588 408 656 485 q 428 265 521 331 q 271 169 336 199 q 442 76 329 76 q 567 112 504 76 q 675 206 631 147 l 703 172 q 551 33 631 82 q 361 -17 471 -17 q 202 24 272 -17 q 92 134 132 64 q 53 292 53 204 q 110 494 53 397 q 264 649 168 590 q 467 707 360 707 m 388 617 q 293 578 335 617 q 228 481 251 540 q 204 357 204 421 q 240 214 204 274 q 349 295 292 243 q 446 407 407 347 q 485 515 485 467 q 459 590 485 564 q 388 617 433 617 m 440 936 l 539 1051 l 585 1014 l 408 806 l 206 967 l 285 1063 l 440 936 z "},"ê":{"ha":738,"x_min":53,"x_max":703,"o":"m 467 707 q 601 666 547 707 q 656 547 656 625 q 588 408 656 485 q 428 265 521 331 q 271 169 336 199 q 442 76 329 76 q 567 112 504 76 q 675 206 631 147 l 703 172 q 551 33 631 82 q 361 -17 471 -17 q 202 24 272 -17 q 92 134 132 64 q 53 292 53 204 q 110 494 53 397 q 264 649 168 590 q 467 707 360 707 m 388 617 q 293 578 335 617 q 228 481 251 540 q 204 357 204 421 q 240 214 204 274 q 349 295 292 243 q 446 407 407 347 q 485 515 485 467 q 459 590 485 564 q 388 617 433 617 m 583 882 l 506 785 l 347 911 l 251 797 l 204 833 l 381 1043 l 583 882 z "},"ë":{"ha":738,"x_min":53,"x_max":703,"o":"m 467 707 q 601 666 547 707 q 656 547 656 625 q 588 408 656 485 q 428 265 521 331 q 271 169 336 199 q 442 76 329 76 q 567 112 504 76 q 675 206 631 147 l 703 172 q 551 33 631 82 q 361 -17 471 -17 q 202 24 272 -17 q 92 134 132 64 q 53 292 53 204 q 110 494 53 397 q 264 649 168 590 q 467 707 360 707 m 388 617 q 293 578 335 617 q 228 481 251 540 q 204 357 204 421 q 240 214 204 274 q 349 295 292 243 q 446 407 407 347 q 485 515 485 467 q 459 590 485 564 q 388 617 433 617 m 269 1022 q 332 995 306 1022 q 358 932 358 968 q 332 869 358 894 q 269 843 306 843 q 206 869 232 843 q 179 932 179 894 q 206 995 179 968 q 269 1022 232 1022 m 518 1022 q 583 996 557 1022 q 610 932 610 969 q 583 869 610 894 q 518 843 557 843 q 456 869 482 843 q 429 932 429 894 q 456 995 429 968 q 518 1022 482 1022 z "},"ė":{"ha":738,"x_min":53,"x_max":703,"o":"m 467 707 q 601 666 547 707 q 656 547 656 625 q 588 408 656 485 q 428 265 521 331 q 271 169 336 199 q 442 76 329 76 q 567 112 504 76 q 675 206 631 147 l 703 172 q 551 33 631 82 q 361 -17 471 -17 q 202 24 272 -17 q 92 134 132 64 q 53 292 53 204 q 110 494 53 397 q 264 649 168 590 q 467 707 360 707 m 388 617 q 293 578 335 617 q 228 481 251 540 q 204 357 204 421 q 240 214 204 274 q 349 295 292 243 q 446 407 407 347 q 485 515 485 467 q 459 590 485 564 q 388 617 433 617 m 393 1028 q 458 999 431 1028 q 486 932 486 971 q 458 867 486 894 q 393 839 431 839 q 327 867 354 839 q 300 932 300 894 q 327 999 300 971 q 393 1028 354 1028 z "},"è":{"ha":738,"x_min":53,"x_max":703,"o":"m 467 707 q 601 666 547 707 q 656 547 656 625 q 588 408 656 485 q 428 265 521 331 q 271 169 336 199 q 442 76 329 76 q 567 112 504 76 q 675 206 631 147 l 703 172 q 551 33 631 82 q 361 -17 471 -17 q 202 24 272 -17 q 92 134 132 64 q 53 292 53 204 q 110 494 53 397 q 264 649 168 590 q 467 707 360 707 m 388 617 q 293 578 335 617 q 228 481 251 540 q 204 357 204 421 q 240 214 204 274 q 349 295 292 243 q 446 407 407 347 q 485 515 485 467 q 459 590 485 564 q 388 617 433 617 m 528 832 l 335 1031 l 244 900 l 503 789 l 528 832 z "},"ē":{"ha":738,"x_min":53,"x_max":703,"o":"m 467 707 q 601 666 547 707 q 656 547 656 625 q 588 408 656 485 q 428 265 521 331 q 271 169 336 199 q 442 76 329 76 q 567 112 504 76 q 675 206 631 147 l 703 172 q 551 33 631 82 q 361 -17 471 -17 q 202 24 272 -17 q 92 134 132 64 q 53 292 53 204 q 110 494 53 397 q 264 649 168 590 q 467 707 360 707 m 388 617 q 293 578 335 617 q 228 481 251 540 q 204 357 204 421 q 240 214 204 274 q 349 295 292 243 q 446 407 407 347 q 485 515 485 467 q 459 590 485 564 q 388 617 433 617 m 576 988 l 265 988 l 214 875 l 526 875 l 576 988 z "},"ę":{"ha":738,"x_min":53,"x_max":703,"o":"m 703 172 q 610 75 657 115 q 507 11 564 35 l 513 6 q 451 -121 451 -61 q 515 -189 451 -189 q 583 -151 553 -189 l 608 -172 q 548 -243 583 -217 q 472 -269 513 -269 q 394 -243 428 -269 q 361 -164 361 -217 q 451 -7 361 -79 q 361 -17 403 -17 q 202 24 272 -17 q 92 134 132 64 q 53 292 53 204 q 110 494 53 397 q 264 649 168 590 q 467 707 360 707 q 601 666 547 707 q 656 547 656 625 q 588 408 656 485 q 428 265 521 331 q 271 169 336 199 q 442 76 329 76 q 567 112 504 76 q 675 206 631 147 l 703 172 m 204 357 q 240 214 204 274 q 349 295 292 243 q 446 407 407 347 q 485 515 485 467 q 459 590 485 564 q 388 617 433 617 q 293 578 335 617 q 228 481 251 540 q 204 357 204 421 z "},"f":{"ha":510,"x_min":33,"x_max":671,"o":"m 463 1294 q 576 1262 517 1294 q 671 1175 636 1229 l 542 1104 q 490 1195 524 1160 q 408 1231 456 1231 q 320 1183 346 1231 q 294 1074 294 1136 l 294 694 l 549 694 l 506 603 l 294 603 l 294 -183 l 128 -253 l 128 603 l 33 603 l 72 694 l 128 694 l 128 882 q 160 1083 128 989 q 268 1235 193 1176 q 463 1294 343 1294 z "},"g":{"ha":775,"x_min":61,"x_max":675,"o":"m 440 707 q 577 672 513 707 q 674 575 642 638 l 539 519 q 484 592 518 567 q 410 618 450 618 q 304 573 350 618 q 234 461 258 528 q 210 331 210 394 q 244 159 210 232 q 356 86 279 86 q 477 178 443 86 q 511 375 511 269 l 511 436 l 675 494 l 675 68 q 619 -151 675 -39 q 469 -335 564 -262 q 265 -408 375 -408 q 138 -357 188 -408 l 256 -244 q 360 -303 300 -303 q 483 -233 453 -303 q 513 -47 513 -162 l 511 50 q 522 151 511 113 l 511 151 q 421 30 471 76 q 300 -17 371 -17 q 124 63 186 -17 q 61 263 61 142 q 109 479 61 376 q 244 644 157 582 q 440 707 331 707 z "},"ğ":{"ha":775,"x_min":61,"x_max":675,"o":"m 440 707 q 577 672 513 707 q 674 575 642 638 l 539 519 q 484 592 518 567 q 410 618 450 618 q 304 573 350 618 q 234 461 258 528 q 210 331 210 394 q 244 159 210 232 q 356 86 279 86 q 477 178 443 86 q 511 375 511 269 l 511 436 l 675 494 l 675 68 q 619 -151 675 -39 q 469 -335 564 -262 q 265 -408 375 -408 q 138 -357 188 -408 l 256 -244 q 360 -303 300 -303 q 483 -233 453 -303 q 513 -47 513 -162 l 511 50 q 522 151 511 113 l 511 151 q 421 30 471 76 q 300 -17 371 -17 q 124 63 186 -17 q 61 263 61 142 q 109 479 61 376 q 244 644 157 582 q 440 707 331 707 m 322 1051 q 274 992 292 1028 q 257 918 257 957 q 297 826 257 861 q 399 792 338 792 q 522 834 474 792 q 571 946 571 876 q 524 1056 571 1007 l 425 993 q 453 953 442 978 q 464 901 464 928 q 449 856 464 874 q 410 839 433 839 q 355 878 375 839 q 335 960 335 918 q 351 1031 335 1000 l 322 1051 z "},"ĝ":{"ha":775,"x_min":61,"x_max":675,"o":"m 440 707 q 577 672 513 707 q 674 575 642 638 l 539 519 q 484 592 518 567 q 410 618 450 618 q 304 573 350 618 q 234 461 258 528 q 210 331 210 394 q 244 159 210 232 q 356 86 279 86 q 477 178 443 86 q 511 375 511 269 l 511 436 l 675 494 l 675 68 q 619 -151 675 -39 q 469 -335 564 -262 q 265 -408 375 -408 q 138 -357 188 -408 l 256 -244 q 360 -303 300 -303 q 483 -233 453 -303 q 513 -47 513 -162 l 511 50 q 522 151 511 113 l 511 151 q 421 30 471 76 q 300 -17 371 -17 q 124 63 186 -17 q 61 263 61 142 q 109 479 61 376 q 244 644 157 582 q 440 707 331 707 m 604 882 l 526 785 l 368 911 l 272 797 l 225 833 l 401 1043 l 604 882 z "},"ģ":{"ha":775,"x_min":61,"x_max":675,"o":"m 440 707 q 577 672 513 707 q 674 575 642 638 l 539 519 q 484 592 518 567 q 410 618 450 618 q 304 573 350 618 q 234 461 258 528 q 210 331 210 394 q 244 159 210 232 q 356 86 279 86 q 477 178 443 86 q 511 375 511 269 l 511 436 l 675 494 l 675 68 q 619 -151 675 -39 q 469 -335 564 -262 q 265 -408 375 -408 q 138 -357 188 -408 l 256 -244 q 360 -303 300 -303 q 483 -233 453 -303 q 513 -47 513 -162 l 511 50 q 522 151 511 113 l 511 151 q 421 30 471 76 q 300 -17 371 -17 q 124 63 186 -17 q 61 263 61 142 q 109 479 61 376 q 244 644 157 582 q 440 707 331 707 m 479 1060 q 452 1026 464 1046 q 438 986 440 1006 q 487 954 468 979 q 506 897 506 929 q 479 835 506 861 q 415 808 453 808 q 351 835 378 808 q 325 897 325 861 q 360 1004 325 956 q 451 1085 396 1053 l 479 1060 z "},"ġ":{"ha":775,"x_min":61,"x_max":675,"o":"m 440 707 q 577 672 513 707 q 674 575 642 638 l 539 519 q 484 592 518 567 q 410 618 450 618 q 304 573 350 618 q 234 461 258 528 q 210 331 210 394 q 244 159 210 232 q 356 86 279 86 q 477 178 443 86 q 511 375 511 269 l 511 436 l 675 494 l 675 68 q 619 -151 675 -39 q 469 -335 564 -262 q 265 -408 375 -408 q 138 -357 188 -408 l 256 -244 q 360 -303 300 -303 q 483 -233 453 -303 q 513 -47 513 -162 l 511 50 q 522 151 511 113 l 511 151 q 421 30 471 76 q 300 -17 371 -17 q 124 63 186 -17 q 61 263 61 142 q 109 479 61 376 q 244 644 157 582 q 440 707 331 707 m 415 1028 q 481 999 453 1028 q 508 932 508 971 q 481 867 508 894 q 415 839 453 839 q 349 867 376 839 q 322 932 322 894 q 349 999 322 971 q 415 1028 376 1028 z "},"h":{"ha":810,"x_min":113,"x_max":793,"o":"m 279 344 l 285 344 q 385 593 315 479 q 556 707 454 707 q 626 678 603 707 q 654 609 649 649 q 660 513 660 569 l 660 128 q 670 97 660 111 q 700 82 681 82 q 769 131 733 82 l 793 104 q 725 24 769 57 q 628 -10 681 -10 q 496 136 496 -10 l 496 500 q 490 533 496 518 q 468 547 483 547 q 367 450 410 547 q 302 225 325 353 q 279 18 279 97 l 113 -18 l 113 1225 l 279 1283 l 279 344 z "},"ħ":{"ha":810,"x_min":-15,"x_max":793,"o":"m 793 104 q 725 24 769 57 q 628 -10 681 -10 q 496 136 496 -10 l 496 500 q 490 533 496 518 q 468 547 483 547 q 367 450 410 547 q 302 225 325 353 q 279 18 279 97 l 113 -18 l 113 818 l -15 818 l 24 910 l 113 910 l 113 1225 l 279 1283 l 279 910 l 442 910 l 407 818 l 279 818 l 279 344 l 285 344 q 385 593 315 479 q 556 707 454 707 q 626 678 603 707 q 654 609 649 649 q 660 513 660 569 l 660 128 q 670 97 660 111 q 700 82 681 82 q 769 131 733 82 l 793 104 z "},"ĥ":{"ha":810,"x_min":19,"x_max":793,"o":"m 279 344 l 285 344 q 385 593 315 479 q 556 707 454 707 q 626 678 603 707 q 654 609 649 649 q 660 513 660 569 l 660 128 q 670 97 660 111 q 700 82 681 82 q 769 131 733 82 l 793 104 q 725 24 769 57 q 628 -10 681 -10 q 496 136 496 -10 l 496 500 q 490 533 496 518 q 468 547 483 547 q 367 450 410 547 q 302 225 325 353 q 279 18 279 97 l 113 -18 l 113 1225 l 279 1283 l 279 344 m 399 1389 l 321 1292 l 163 1418 l 67 1304 l 19 1340 l 196 1550 l 399 1389 z "},"i":{"ha":433,"x_min":94,"x_max":415,"o":"m 239 840 l 151 813 l 94 1103 l 288 1168 l 239 840 m 283 128 q 293 94 283 107 q 319 82 303 82 q 390 131 354 82 l 415 104 q 337 19 385 49 q 242 -10 289 -10 q 115 136 115 -10 l 115 636 l 283 694 l 283 128 z "},"ı":{"ha":435,"x_min":115,"x_max":417,"o":"m 283 128 q 294 94 283 107 q 321 82 304 82 q 392 131 354 82 l 417 104 q 338 19 386 49 q 242 -10 290 -10 q 146 26 176 -10 q 115 136 115 61 l 115 636 l 283 694 l 283 128 z "},"í":{"ha":435,"x_min":65,"x_max":417,"o":"m 283 128 q 294 94 283 107 q 321 82 304 82 q 392 131 354 82 l 417 104 q 338 19 386 49 q 242 -10 290 -10 q 146 26 176 -10 q 115 136 115 61 l 115 636 l 283 694 l 283 128 m 256 1031 l 65 832 l 90 790 l 347 900 l 256 1031 z "},"ĭ":{"ha":435,"x_min":38,"x_max":417,"o":"m 283 128 q 294 94 283 107 q 321 82 304 82 q 392 131 354 82 l 417 104 q 338 19 386 49 q 242 -10 290 -10 q 146 26 176 -10 q 115 136 115 61 l 115 636 l 283 694 l 283 128 m 103 1051 q 55 992 72 1028 q 38 918 38 957 q 78 826 38 861 q 179 792 118 792 q 303 834 254 792 q 351 946 351 876 q 304 1056 351 1007 l 206 993 q 233 953 222 978 q 244 901 244 928 q 229 856 244 874 q 190 839 214 839 q 135 878 156 839 q 115 960 115 918 q 132 1031 115 1000 l 103 1051 z "},"î":{"ha":435,"x_min":6,"x_max":417,"o":"m 283 128 q 294 94 283 107 q 321 82 304 82 q 392 131 354 82 l 417 104 q 338 19 386 49 q 242 -10 290 -10 q 146 26 176 -10 q 115 136 115 61 l 115 636 l 283 694 l 283 128 m 385 882 l 307 785 l 149 911 l 53 797 l 6 833 l 182 1043 l 385 882 z "},"ï":{"ha":435,"x_min":-19,"x_max":417,"o":"m 283 128 q 294 94 283 107 q 321 82 304 82 q 392 131 354 82 l 417 104 q 338 19 386 49 q 242 -10 290 -10 q 146 26 176 -10 q 115 136 115 61 l 115 636 l 283 694 l 283 128 m 71 1022 q 133 995 107 1022 q 160 932 160 968 q 133 869 160 894 q 71 843 107 843 q 7 869 33 843 q -19 932 -19 894 q 7 995 -19 968 q 71 1022 33 1022 m 319 1022 q 385 996 358 1022 q 411 932 411 969 q 385 869 411 894 q 319 843 358 843 q 257 869 283 843 q 231 932 231 894 q 257 995 231 968 q 319 1022 283 1022 z "},"ì":{"ha":435,"x_min":46,"x_max":417,"o":"m 283 128 q 294 94 283 107 q 321 82 304 82 q 392 131 354 82 l 417 104 q 338 19 386 49 q 242 -10 290 -10 q 146 26 176 -10 q 115 136 115 61 l 115 636 l 283 694 l 283 128 m 329 832 l 136 1031 l 46 900 l 304 789 l 329 832 z "},"ĳ":{"ha":833,"x_min":94,"x_max":733,"o":"m 239 840 l 151 813 l 94 1103 l 288 1168 l 239 840 m 283 128 q 293 94 283 107 q 319 82 303 82 q 390 131 354 82 l 415 104 q 337 19 385 49 q 242 -10 289 -10 q 115 136 115 -10 l 115 636 l 283 694 l 283 128 m 594 813 l 682 840 l 733 1168 l 540 1103 l 594 813 m 558 636 l 558 -29 q 519 -233 558 -176 q 410 -290 481 -290 q 274 -237 338 -290 l 169 -367 q 294 -406 222 -406 q 499 -337 399 -406 q 661 -158 599 -269 q 724 76 724 -46 l 724 694 l 558 636 z "},"ī":{"ha":435,"x_min":17,"x_max":417,"o":"m 283 128 q 294 94 283 107 q 321 82 304 82 q 392 131 354 82 l 417 104 q 338 19 386 49 q 242 -10 290 -10 q 146 26 176 -10 q 115 136 115 61 l 115 636 l 283 694 l 283 128 m 379 988 l 68 988 l 17 875 l 329 875 l 379 988 z "},"į":{"ha":433,"x_min":74,"x_max":415,"o":"m 151 813 l 94 1103 l 288 1168 l 239 840 l 151 813 m 242 -10 q 215 -8 224 -10 q 164 -124 164 -69 q 228 -192 164 -192 q 296 -154 265 -192 l 321 -175 q 260 -246 296 -219 q 185 -272 225 -272 q 107 -246 140 -272 q 74 -167 74 -219 q 179 1 74 -75 q 115 136 115 32 l 115 636 l 283 694 l 283 128 q 293 94 283 107 q 319 82 303 82 q 390 131 354 82 l 415 104 q 337 19 385 49 q 242 -10 289 -10 z "},"ĩ":{"ha":435,"x_min":28,"x_max":417,"o":"m 283 128 q 294 94 283 107 q 321 82 304 82 q 392 131 354 82 l 417 104 q 338 19 386 49 q 242 -10 290 -10 q 146 26 176 -10 q 115 136 115 61 l 115 636 l 283 694 l 283 128 m 329 1035 q 364 946 364 996 q 335 869 364 900 q 257 839 306 839 q 208 851 228 839 q 169 885 189 864 q 145 906 156 899 q 124 913 135 913 q 99 879 99 913 q 108 846 99 861 l 63 828 q 28 918 28 868 q 56 994 28 964 q 133 1025 85 1025 q 182 1013 163 1025 q 221 979 201 1000 q 245 958 235 965 q 267 951 256 951 q 286 960 279 951 q 293 983 293 968 q 282 1017 293 1001 l 329 1035 z "},"j":{"ha":400,"x_min":-264,"x_max":300,"o":"m 161 813 l 249 840 l 300 1168 l 107 1103 l 161 813 m 125 636 l 125 -29 q 86 -233 125 -176 q -24 -290 47 -290 q -160 -237 -96 -290 l -264 -367 q -139 -406 -211 -406 q 65 -337 -35 -406 q 228 -158 165 -269 q 290 76 290 -46 l 290 694 l 125 636 z "},"ȷ":{"ha":400,"x_min":-264,"x_max":290,"o":"m 125 636 l 125 -29 q 86 -233 125 -176 q -24 -290 47 -290 q -160 -237 -96 -290 l -264 -367 q -142 -406 -211 -406 q 65 -337 -36 -406 q 228 -158 165 -269 q 290 76 290 -47 l 290 694 l 125 636 z "},"ĵ":{"ha":400,"x_min":-264,"x_max":401,"o":"m 125 636 l 125 -29 q 86 -233 125 -176 q -24 -290 47 -290 q -160 -237 -96 -290 l -264 -367 q -142 -406 -211 -406 q 65 -337 -36 -406 q 228 -158 165 -269 q 290 76 290 -47 l 290 694 l 125 636 m 401 882 l 324 785 l 165 911 l 69 797 l 22 833 l 199 1043 l 401 882 z "},"k":{"ha":797,"x_min":111,"x_max":788,"o":"m 276 310 l 286 310 q 405 588 332 468 q 586 707 478 707 q 668 672 638 707 q 699 586 699 638 q 627 422 699 500 q 463 289 556 344 q 488 257 475 271 q 590 133 544 179 q 675 86 635 86 q 763 129 726 86 l 788 101 q 701 18 757 51 q 585 -15 646 -15 q 477 26 525 -15 q 369 143 429 68 q 311 210 324 199 l 299 203 q 284 117 290 174 q 276 18 278 60 l 111 -18 l 111 1225 l 276 1283 l 276 310 m 488 563 q 389 455 440 563 q 304 249 338 347 q 463 372 397 303 q 529 507 529 442 q 518 546 529 529 q 488 563 507 563 z "},"ķ":{"ha":797,"x_min":111,"x_max":788,"o":"m 276 310 l 286 310 q 405 588 332 468 q 586 707 478 707 q 668 672 638 707 q 699 586 699 638 q 627 422 699 500 q 463 289 556 344 q 488 257 475 271 q 590 133 544 179 q 675 86 635 86 q 763 129 726 86 l 788 101 q 701 18 757 51 q 585 -15 646 -15 q 477 26 525 -15 q 369 143 429 68 q 311 210 324 199 l 299 203 q 284 117 290 174 q 276 18 278 60 l 111 -18 l 111 1225 l 276 1283 l 276 310 m 488 563 q 389 455 440 563 q 304 249 338 347 q 463 372 397 303 q 529 507 529 442 q 518 546 529 529 q 488 563 507 563 m 486 -150 q 460 -85 486 -112 q 396 -58 433 -58 q 333 -85 358 -58 q 307 -150 307 -112 q 326 -206 307 -181 q 375 -239 344 -231 q 359 -277 371 -257 q 332 -312 347 -297 l 360 -336 q 451 -256 415 -303 q 486 -150 486 -208 z "},"ĸ":{"ha":797,"x_min":111,"x_max":775,"o":"m 278 725 l 278 310 l 289 310 q 406 586 331 465 q 590 707 481 707 q 672 672 640 707 q 703 586 703 636 q 624 414 703 496 q 446 276 546 332 q 499 218 464 260 q 591 120 554 154 q 663 86 628 86 q 744 129 714 86 l 775 101 q 697 18 749 51 q 589 -15 644 -15 q 490 29 542 -15 q 368 151 438 74 q 342 179 356 164 q 314 210 329 194 l 301 210 q 283 102 289 174 q 276 18 278 31 l 111 -18 l 111 667 l 278 725 m 489 563 q 395 461 443 563 q 319 271 347 360 q 401 343 350 293 q 491 443 451 393 q 531 521 531 493 q 519 549 531 536 q 489 563 508 563 z "},"l":{"ha":436,"x_min":118,"x_max":418,"o":"m 283 128 q 292 96 283 110 q 321 82 301 82 q 360 97 340 82 q 393 131 381 113 l 418 104 q 349 24 394 57 q 253 -10 304 -10 q 118 136 118 -10 l 118 1225 l 283 1285 l 283 128 z "},"ĺ":{"ha":436,"x_min":88,"x_max":418,"o":"m 283 128 q 292 96 283 110 q 321 82 301 82 q 360 97 340 82 q 393 131 381 113 l 418 104 q 349 24 394 57 q 253 -10 304 -10 q 118 136 118 -10 l 118 1225 l 283 1285 l 283 128 m 278 1538 l 88 1339 l 113 1297 l 369 1407 l 278 1538 z "},"ľ":{"ha":436,"x_min":118,"x_max":504,"o":"m 283 128 q 292 96 283 110 q 321 82 301 82 q 360 97 340 82 q 393 131 381 113 l 418 104 q 349 24 394 57 q 253 -10 304 -10 q 118 136 118 -10 l 118 1225 l 283 1285 l 283 128 m 504 964 q 478 1029 504 1001 q 415 1057 451 1057 q 351 1029 378 1057 q 324 964 324 1001 q 343 909 324 933 q 393 875 363 885 q 378 837 392 857 q 350 803 365 817 l 378 778 q 469 859 433 811 q 504 964 504 907 z "},"ļ":{"ha":436,"x_min":118,"x_max":418,"o":"m 283 128 q 292 96 283 110 q 321 82 301 82 q 360 97 340 82 q 393 131 381 113 l 418 104 q 349 24 394 57 q 253 -10 304 -10 q 118 136 118 -10 l 118 1225 l 283 1285 l 283 128 m 308 -150 q 282 -85 308 -112 q 218 -58 256 -58 q 155 -85 181 -58 q 129 -150 129 -112 q 148 -206 129 -181 q 197 -239 167 -231 q 181 -277 193 -257 q 154 -312 169 -297 l 182 -336 q 273 -256 238 -303 q 308 -150 308 -208 z "},"ŀ":{"ha":436,"x_min":118,"x_max":504,"o":"m 283 128 q 292 96 283 110 q 321 82 301 82 q 360 97 340 82 q 393 131 381 113 l 418 104 q 349 24 394 57 q 253 -10 304 -10 q 118 136 118 -10 l 118 1225 l 283 1285 l 283 128 m 504 506 q 476 569 504 542 q 410 597 447 597 q 344 570 372 597 q 317 506 317 543 q 344 438 317 464 q 410 411 371 411 q 476 438 449 411 q 504 506 504 465 z "},"ł":{"ha":436,"x_min":-1,"x_max":428,"o":"m 283 603 l 283 128 q 292 96 283 110 q 321 82 301 82 q 360 97 340 82 q 393 131 381 113 l 418 104 q 349 24 394 57 q 253 -10 304 -10 q 118 136 118 -10 l 118 532 l -1 481 l -1 581 l 118 632 l 118 1225 l 283 1285 l 283 704 l 428 767 l 428 664 l 283 603 z "},"m":{"ha":1138,"x_min":35,"x_max":1108,"o":"m 876 707 q 953 673 929 707 q 978 572 978 639 l 978 128 q 988 95 978 108 q 1014 82 997 82 q 1048 94 1029 82 q 1083 131 1067 107 l 1108 104 q 1024 12 1074 33 q 946 -10 974 -10 q 811 136 811 -10 l 811 511 q 805 536 811 525 q 789 547 799 547 q 728 481 760 547 q 676 294 697 415 q 654 18 654 174 l 486 -18 l 486 511 q 481 536 486 525 q 465 547 475 547 q 406 481 439 547 q 351 293 374 414 q 328 18 328 172 l 167 -18 l 167 565 q 156 601 167 588 q 129 614 146 614 q 94 600 113 614 q 61 561 76 586 l 35 589 q 121 684 69 661 q 199 707 172 707 q 329 561 329 707 l 329 396 l 335 396 q 428 624 369 542 q 551 707 488 707 q 629 674 607 707 q 651 572 651 640 l 651 396 l 660 396 q 752 624 693 542 q 876 707 811 707 z "},"n":{"ha":860,"x_min":19,"x_max":844,"o":"m 610 707 q 681 678 658 707 q 708 612 703 650 q 714 514 714 574 l 714 128 q 724 97 714 111 q 750 82 735 82 q 787 95 771 82 q 821 131 803 108 l 844 104 q 776 23 819 56 q 682 -10 732 -10 q 582 28 615 -10 q 549 136 549 67 l 549 500 q 544 533 549 519 q 525 547 540 547 q 429 447 478 547 q 347 215 381 346 q 314 18 314 85 l 151 -18 l 151 565 q 142 600 151 586 q 114 614 132 614 q 76 598 94 614 q 44 561 57 582 l 19 589 q 85 672 40 638 q 181 707 129 707 q 282 669 250 707 q 314 563 314 631 l 314 294 l 319 294 q 431 578 357 449 q 610 707 506 707 z "},"ń":{"ha":860,"x_min":19,"x_max":844,"o":"m 610 707 q 681 678 658 707 q 708 612 703 650 q 714 514 714 574 l 714 128 q 724 97 714 111 q 750 82 735 82 q 787 95 771 82 q 821 131 803 108 l 844 104 q 776 23 819 56 q 682 -10 732 -10 q 582 28 615 -10 q 549 136 549 67 l 549 500 q 544 533 549 519 q 525 547 540 547 q 429 447 478 547 q 347 215 381 346 q 314 18 314 85 l 151 -18 l 151 565 q 142 600 151 586 q 114 614 132 614 q 76 598 94 614 q 44 561 57 582 l 19 589 q 85 672 40 638 q 181 707 129 707 q 282 669 250 707 q 314 563 314 631 l 314 294 l 319 294 q 431 578 357 449 q 610 707 506 707 m 510 1031 l 319 832 l 344 790 l 601 900 l 510 1031 z "},"ŉ":{"ha":860,"x_min":19,"x_max":844,"o":"m 610 707 q 681 678 658 707 q 708 612 703 650 q 714 514 714 574 l 714 128 q 724 97 714 111 q 750 82 735 82 q 787 95 771 82 q 821 131 803 108 l 844 104 q 776 23 819 56 q 682 -10 732 -10 q 582 28 615 -10 q 549 136 549 67 l 549 500 q 544 533 549 519 q 525 547 540 547 q 429 447 478 547 q 347 215 381 346 q 314 18 314 85 l 151 -18 l 151 565 q 142 600 151 586 q 114 614 132 614 q 76 598 94 614 q 44 561 57 582 l 19 589 q 85 672 40 638 q 181 707 129 707 q 282 669 250 707 q 314 563 314 631 l 314 294 l 319 294 q 431 578 357 449 q 610 707 506 707 m 299 964 q 272 1029 299 1001 q 210 1057 246 1057 q 145 1029 172 1057 q 118 964 118 1001 q 138 909 118 933 q 188 875 157 885 q 173 837 186 857 q 144 803 160 817 l 172 778 q 263 859 228 811 q 299 964 299 907 z "},"ň":{"ha":860,"x_min":19,"x_max":844,"o":"m 610 707 q 681 678 658 707 q 708 612 703 650 q 714 514 714 574 l 714 128 q 724 97 714 111 q 750 82 735 82 q 787 95 771 82 q 821 131 803 108 l 844 104 q 776 23 819 56 q 682 -10 732 -10 q 582 28 615 -10 q 549 136 549 67 l 549 500 q 544 533 549 519 q 525 547 540 547 q 429 447 478 547 q 347 215 381 346 q 314 18 314 85 l 151 -18 l 151 565 q 142 600 151 586 q 114 614 132 614 q 76 598 94 614 q 44 561 57 582 l 19 589 q 85 672 40 638 q 181 707 129 707 q 282 669 250 707 q 314 563 314 631 l 314 294 l 319 294 q 431 578 357 449 q 610 707 506 707 m 496 936 l 594 1051 l 640 1014 l 464 806 l 261 967 l 340 1063 l 496 936 z "},"ņ":{"ha":860,"x_min":19,"x_max":844,"o":"m 610 707 q 681 678 658 707 q 708 612 703 650 q 714 514 714 574 l 714 128 q 724 97 714 111 q 750 82 735 82 q 787 95 771 82 q 821 131 803 108 l 844 104 q 776 23 819 56 q 682 -10 732 -10 q 582 28 615 -10 q 549 136 549 67 l 549 500 q 544 533 549 519 q 525 547 540 547 q 429 447 478 547 q 347 215 381 346 q 314 18 314 85 l 151 -18 l 151 565 q 142 600 151 586 q 114 614 132 614 q 76 598 94 614 q 44 561 57 582 l 19 589 q 85 672 40 638 q 181 707 129 707 q 282 669 250 707 q 314 563 314 631 l 314 294 l 319 294 q 431 578 357 449 q 610 707 506 707 m 522 -150 q 496 -85 522 -112 q 432 -58 469 -58 q 369 -85 394 -58 q 343 -150 343 -112 q 362 -206 343 -181 q 411 -239 381 -231 q 395 -277 407 -257 q 368 -312 383 -297 l 396 -336 q 487 -256 451 -303 q 522 -150 522 -208 z "},"ŋ":{"ha":835,"x_min":19,"x_max":714,"o":"m 606 707 q 694 653 675 707 q 714 513 714 599 l 714 76 q 654 -150 714 -37 q 496 -334 594 -262 q 288 -406 397 -406 q 165 -367 217 -406 l 267 -237 q 401 -290 332 -290 q 502 -251 471 -290 q 541 -143 533 -211 q 549 58 549 -75 l 549 500 q 543 533 549 518 q 524 547 538 547 q 428 447 476 547 q 347 215 379 346 q 314 18 314 85 l 151 -18 l 151 565 q 142 600 151 586 q 114 614 132 614 q 76 598 94 614 q 44 561 57 582 l 19 589 q 84 673 40 639 q 181 707 128 707 q 282 669 250 707 q 314 563 314 631 l 314 294 l 317 294 q 431 579 357 451 q 606 707 504 707 z "},"ñ":{"ha":860,"x_min":19,"x_max":844,"o":"m 610 707 q 681 678 658 707 q 708 612 703 650 q 714 514 714 574 l 714 128 q 724 97 714 111 q 750 82 735 82 q 787 95 771 82 q 821 131 803 108 l 844 104 q 776 23 819 56 q 682 -10 732 -10 q 582 28 615 -10 q 549 136 549 67 l 549 500 q 544 533 549 519 q 525 547 540 547 q 429 447 478 547 q 347 215 381 346 q 314 18 314 85 l 151 -18 l 151 565 q 142 600 151 586 q 114 614 132 614 q 76 598 94 614 q 44 561 57 582 l 19 589 q 85 672 40 638 q 181 707 129 707 q 282 669 250 707 q 314 563 314 631 l 314 294 l 319 294 q 431 578 357 449 q 610 707 506 707 m 583 1035 q 618 946 618 996 q 589 869 618 900 q 511 839 560 839 q 463 851 482 839 q 424 885 443 864 q 399 906 410 899 q 378 913 389 913 q 353 879 353 913 q 363 846 353 861 l 317 828 q 282 918 282 868 q 310 994 282 964 q 388 1025 339 1025 q 436 1013 417 1025 q 475 979 456 1000 q 499 958 489 965 q 521 951 510 951 q 540 960 533 951 q 547 983 547 968 q 536 1017 547 1001 l 583 1035 z "},"o":{"ha":775,"x_min":53,"x_max":722,"o":"m 417 678 q 273 530 325 613 q 221 336 221 447 q 244 213 221 275 q 314 109 268 150 q 424 68 360 68 q 553 126 504 68 q 603 271 603 185 q 569 403 603 336 q 478 517 535 471 q 356 569 421 564 q 419 628 385 601 q 504 692 453 654 q 663 568 604 658 q 722 369 722 478 q 680 183 722 274 q 558 37 638 93 q 372 -19 478 -19 q 212 22 285 -19 q 96 134 139 63 q 53 292 53 206 q 147 553 53 440 q 390 710 240 665 l 417 678 z "},"ó":{"ha":775,"x_min":53,"x_max":722,"o":"m 417 678 q 273 530 325 613 q 221 336 221 447 q 244 213 221 275 q 314 109 268 150 q 424 68 360 68 q 553 126 504 68 q 603 271 603 185 q 569 403 603 336 q 478 517 535 471 q 356 569 421 564 q 419 628 385 601 q 504 692 453 654 q 663 568 604 658 q 722 369 722 478 q 680 183 722 274 q 558 37 638 93 q 372 -19 478 -19 q 212 22 285 -19 q 96 134 139 63 q 53 292 53 206 q 147 553 53 440 q 390 710 240 665 l 417 678 m 460 1031 l 269 832 l 294 790 l 551 900 l 460 1031 z "},"ŏ":{"ha":775,"x_min":53,"x_max":722,"o":"m 417 678 q 273 530 325 613 q 221 336 221 447 q 244 213 221 275 q 314 109 268 150 q 424 68 360 68 q 553 126 504 68 q 603 271 603 185 q 569 403 603 336 q 478 517 535 471 q 356 569 421 564 q 419 628 385 601 q 504 692 453 654 q 663 568 604 658 q 722 369 722 478 q 680 183 722 274 q 558 37 638 93 q 372 -19 478 -19 q 212 22 285 -19 q 96 134 139 63 q 53 292 53 206 q 147 553 53 440 q 390 710 240 665 l 417 678 m 307 1051 q 259 992 276 1028 q 242 918 242 957 q 282 826 242 861 q 383 792 322 792 q 507 834 458 792 q 556 946 556 876 q 508 1056 556 1007 l 410 993 q 438 953 426 978 q 449 901 449 928 q 433 856 449 874 q 394 839 418 839 q 340 878 360 839 q 319 960 319 918 q 336 1031 319 1000 l 307 1051 z "},"ô":{"ha":775,"x_min":53,"x_max":722,"o":"m 417 678 q 273 530 325 613 q 221 336 221 447 q 244 213 221 275 q 314 109 268 150 q 424 68 360 68 q 553 126 504 68 q 603 271 603 185 q 569 403 603 336 q 478 517 535 471 q 356 569 421 564 q 419 628 385 601 q 504 692 453 654 q 663 568 604 658 q 722 369 722 478 q 680 183 722 274 q 558 37 638 93 q 372 -19 478 -19 q 212 22 285 -19 q 96 134 139 63 q 53 292 53 206 q 147 553 53 440 q 390 710 240 665 l 417 678 m 589 882 l 511 785 l 353 911 l 257 797 l 210 833 l 386 1043 l 589 882 z "},"ö":{"ha":775,"x_min":53,"x_max":722,"o":"m 417 678 q 273 530 325 613 q 221 336 221 447 q 244 213 221 275 q 314 109 268 150 q 424 68 360 68 q 553 126 504 68 q 603 271 603 185 q 569 403 603 336 q 478 517 535 471 q 356 569 421 564 q 419 628 385 601 q 504 692 453 654 q 663 568 604 658 q 722 369 722 478 q 680 183 722 274 q 558 37 638 93 q 372 -19 478 -19 q 212 22 285 -19 q 96 134 139 63 q 53 292 53 206 q 147 553 53 440 q 390 710 240 665 l 417 678 m 275 1022 q 338 995 311 1022 q 364 932 364 968 q 338 869 364 894 q 275 843 311 843 q 211 869 238 843 q 185 932 185 894 q 211 995 185 968 q 275 1022 238 1022 m 524 1022 q 589 996 563 1022 q 615 932 615 969 q 589 869 615 894 q 524 843 563 843 q 461 869 488 843 q 435 932 435 894 q 461 995 435 968 q 524 1022 488 1022 z "},"ò":{"ha":775,"x_min":53,"x_max":722,"o":"m 417 678 q 273 530 325 613 q 221 336 221 447 q 244 213 221 275 q 314 109 268 150 q 424 68 360 68 q 553 126 504 68 q 603 271 603 185 q 569 403 603 336 q 478 517 535 471 q 356 569 421 564 q 419 628 385 601 q 504 692 453 654 q 663 568 604 658 q 722 369 722 478 q 680 183 722 274 q 558 37 638 93 q 372 -19 478 -19 q 212 22 285 -19 q 96 134 139 63 q 53 292 53 206 q 147 553 53 440 q 390 710 240 665 l 417 678 m 533 832 l 340 1031 l 250 900 l 508 789 l 533 832 z "},"ő":{"ha":775,"x_min":53,"x_max":722,"o":"m 417 678 q 273 530 325 613 q 221 336 221 447 q 244 213 221 275 q 314 109 268 150 q 424 68 360 68 q 553 126 504 68 q 603 271 603 185 q 569 403 603 336 q 478 517 535 471 q 356 569 421 564 q 419 628 385 601 q 504 692 453 654 q 663 568 604 658 q 722 369 722 478 q 680 183 722 274 q 558 37 638 93 q 372 -19 478 -19 q 212 22 285 -19 q 96 134 139 63 q 53 292 53 206 q 147 553 53 440 q 390 710 240 665 l 417 678 m 317 1031 l 150 832 l 181 790 l 408 900 l 317 1031 m 560 1031 l 393 832 l 422 790 l 651 900 l 560 1031 z "},"ō":{"ha":775,"x_min":53,"x_max":722,"o":"m 417 678 q 273 530 325 613 q 221 336 221 447 q 244 213 221 275 q 314 109 268 150 q 424 68 360 68 q 553 126 504 68 q 603 271 603 185 q 569 403 603 336 q 478 517 535 471 q 356 569 421 564 q 419 628 385 601 q 504 692 453 654 q 663 568 604 658 q 722 369 722 478 q 680 183 722 274 q 558 37 638 93 q 372 -19 478 -19 q 212 22 285 -19 q 96 134 139 63 q 53 292 53 206 q 147 553 53 440 q 390 710 240 665 l 417 678 m 583 988 l 272 988 l 221 875 l 533 875 l 583 988 z "},"ø":{"ha":775,"x_min":53,"x_max":722,"o":"m 504 692 q 663 568 604 658 q 722 369 722 478 q 680 183 722 274 q 558 37 638 93 q 372 -19 478 -19 q 212 22 285 -19 q 96 134 139 63 q 53 292 53 206 q 147 553 53 440 q 390 710 240 665 l 417 678 q 273 530 325 613 q 221 336 221 447 q 244 213 221 275 q 314 109 268 150 q 424 68 360 68 q 553 126 504 68 q 603 271 603 185 q 569 403 603 336 q 478 517 535 471 q 356 569 421 564 q 419 628 385 601 q 504 692 453 654 z "},"ǿ":{"ha":775,"x_min":53,"x_max":722,"o":"m 294 790 l 269 832 l 460 1031 l 551 900 l 294 790 m 504 692 q 663 568 604 658 q 722 369 722 478 q 680 183 722 274 q 558 37 638 93 q 372 -19 478 -19 q 212 22 285 -19 q 96 134 139 63 q 53 292 53 206 q 147 553 53 440 q 390 710 240 665 l 417 678 q 273 530 325 613 q 221 336 221 447 q 244 213 221 275 q 314 109 268 150 q 424 68 360 68 q 553 126 504 68 q 603 271 603 185 q 569 403 603 336 q 478 517 535 471 q 356 569 421 564 q 419 628 385 601 q 504 692 453 654 z "},"õ":{"ha":775,"x_min":53,"x_max":722,"o":"m 417 678 q 273 530 325 613 q 221 336 221 447 q 244 213 221 275 q 314 109 268 150 q 424 68 360 68 q 553 126 504 68 q 603 271 603 185 q 569 403 603 336 q 478 517 535 471 q 356 569 421 564 q 419 628 385 601 q 504 692 453 654 q 663 568 604 658 q 722 369 722 478 q 680 183 722 274 q 558 37 638 93 q 372 -19 478 -19 q 212 22 285 -19 q 96 134 139 63 q 53 292 53 206 q 147 553 53 440 q 390 710 240 665 l 417 678 m 533 1035 q 568 946 568 996 q 539 869 568 900 q 461 839 510 839 q 413 851 432 839 q 374 885 393 864 q 349 906 360 899 q 328 913 339 913 q 303 879 303 913 q 313 846 303 861 l 267 828 q 232 918 232 868 q 260 994 232 964 q 338 1025 289 1025 q 386 1013 367 1025 q 425 979 406 1000 q 449 958 439 965 q 471 951 460 951 q 490 960 483 951 q 497 983 497 968 q 486 1017 497 1001 l 533 1035 z "},"œ":{"ha":1292,"x_min":53,"x_max":1254,"o":"m 1254 172 q 1104 33 1183 83 q 914 -17 1025 -17 q 757 22 826 -17 q 649 128 688 61 q 531 20 601 60 q 372 -19 460 -19 q 212 22 285 -19 q 96 134 139 63 q 53 292 53 206 q 147 553 53 440 q 390 710 240 665 l 417 678 q 273 530 325 613 q 221 336 221 447 q 244 213 221 275 q 314 109 268 150 q 424 68 360 68 q 553 126 504 68 q 603 271 603 185 q 569 403 603 336 q 478 517 535 471 q 356 569 421 564 q 419 628 385 601 q 504 692 453 654 q 612 628 565 671 q 686 528 658 586 q 834 658 746 610 q 1018 707 922 707 q 1154 666 1100 707 q 1208 547 1208 625 q 1141 408 1208 485 q 981 265 1074 331 q 824 169 889 199 q 994 76 879 76 q 1120 113 1057 76 q 1228 206 1183 149 l 1254 172 m 756 357 q 793 214 756 275 q 902 295 844 243 q 999 407 960 347 q 1038 515 1038 467 q 1012 590 1038 564 q 940 617 986 617 q 845 578 888 617 q 779 481 803 540 q 756 357 756 421 z "},"p":{"ha":826,"x_min":19,"x_max":768,"o":"m 508 706 q 640 664 581 706 q 733 551 699 622 q 768 393 768 479 q 728 177 768 269 q 616 35 689 85 q 446 -15 543 -15 q 318 19 383 -15 l 361 126 q 479 72 406 72 q 582 148 543 72 q 621 346 621 224 q 572 528 621 458 q 447 599 524 599 q 349 522 383 599 q 314 304 314 444 l 314 -385 l 151 -443 l 151 561 q 141 599 151 585 q 114 614 131 614 q 44 563 88 614 l 19 588 q 88 672 43 639 q 181 706 133 706 q 280 667 247 706 q 313 549 313 629 l 319 549 q 399 663 347 619 q 508 706 450 706 z "},"þ":{"ha":788,"x_min":-22,"x_max":728,"o":"m 469 706 q 601 664 542 706 q 694 550 660 622 q 728 393 728 478 q 690 180 728 272 q 578 36 651 88 q 404 -15 506 -15 q 274 29 332 -15 l 274 -385 l 108 -443 l 108 1117 q 99 1150 108 1138 q 72 1163 90 1163 q 33 1148 51 1163 q 3 1113 14 1133 l -22 1142 q 44 1224 -1 1189 q 140 1258 89 1258 q 274 1117 274 1258 l 274 549 l 279 549 q 352 660 300 615 q 469 706 404 706 m 449 72 q 544 149 507 72 q 581 346 581 226 q 558 472 581 414 q 495 565 535 531 q 408 599 456 599 q 274 304 274 599 l 274 46 l 347 117 q 449 72 382 72 z "},"q":{"ha":775,"x_min":61,"x_max":806,"o":"m 440 704 q 580 669 517 704 q 674 575 643 635 l 538 519 q 474 592 508 567 q 407 618 440 618 q 308 580 353 618 q 236 476 263 542 q 210 331 210 410 q 251 154 210 222 q 356 86 292 86 q 468 166 425 86 q 511 375 511 246 l 511 436 l 672 494 l 672 -264 q 683 -298 672 -285 q 711 -311 693 -311 q 749 -297 729 -311 q 781 -264 769 -283 l 806 -292 q 736 -375 782 -342 q 643 -408 690 -408 q 511 -262 511 -408 l 511 19 q 513 103 511 72 q 518 156 514 133 l 514 156 q 430 29 486 75 q 300 -17 374 -17 q 126 60 192 -17 q 61 263 61 138 q 110 488 61 388 q 247 647 160 589 q 440 704 333 704 z "},"r":{"ha":628,"x_min":31,"x_max":606,"o":"m 375 507 q 274 344 317 442 q 232 165 232 246 q 274 37 232 88 q 392 -14 315 -14 q 509 17 453 -14 q 606 99 565 47 l 585 124 q 496 93 538 93 q 401 136 433 93 q 368 243 368 179 q 425 450 368 347 q 563 628 482 553 l 538 654 q 360 593 444 593 q 262 635 306 593 q 203 735 218 678 l 69 585 q 97 546 75 565 q 124 522 119 526 l 31 331 l 88 306 l 178 499 q 257 485 214 485 q 371 513 324 485 l 375 507 z "},"ŕ":{"ha":628,"x_min":31,"x_max":606,"o":"m 375 507 q 274 344 317 442 q 232 165 232 246 q 274 37 232 88 q 392 -14 315 -14 q 509 17 453 -14 q 606 99 565 47 l 585 124 q 496 93 538 93 q 401 136 433 93 q 368 243 368 179 q 425 450 368 347 q 563 628 482 553 l 538 654 q 360 593 444 593 q 262 635 306 593 q 203 735 218 678 l 69 585 q 97 546 75 565 q 124 522 119 526 l 31 331 l 88 306 l 178 499 q 257 485 214 485 q 371 513 324 485 l 375 507 m 417 1031 l 226 832 l 251 790 l 508 900 l 417 1031 z "},"ř":{"ha":628,"x_min":31,"x_max":606,"o":"m 375 507 q 274 344 317 442 q 232 165 232 246 q 274 37 232 88 q 392 -14 315 -14 q 509 17 453 -14 q 606 99 565 47 l 585 124 q 496 93 538 93 q 401 136 433 93 q 368 243 368 179 q 425 450 368 347 q 563 628 482 553 l 538 654 q 360 593 444 593 q 262 635 306 593 q 203 735 218 678 l 69 585 q 97 546 75 565 q 124 522 119 526 l 31 331 l 88 306 l 178 499 q 257 485 214 485 q 371 513 324 485 l 375 507 m 403 936 l 501 1051 l 547 1014 l 371 806 l 168 967 l 247 1063 l 403 936 z "},"ŗ":{"ha":628,"x_min":31,"x_max":606,"o":"m 375 507 q 274 344 317 442 q 232 165 232 246 q 274 37 232 88 q 392 -14 315 -14 q 509 17 453 -14 q 606 99 565 47 l 585 124 q 496 93 538 93 q 401 136 433 93 q 368 243 368 179 q 425 450 368 347 q 563 628 482 553 l 538 654 q 360 593 444 593 q 262 635 306 593 q 203 735 218 678 l 69 585 q 97 546 75 565 q 124 522 119 526 l 31 331 l 88 306 l 178 499 q 257 485 214 485 q 371 513 324 485 l 375 507 m 406 -150 q 379 -85 406 -112 q 315 -58 353 -58 q 252 -85 278 -58 q 226 -150 226 -112 q 245 -206 226 -181 q 294 -239 264 -231 q 278 -277 290 -257 q 251 -312 267 -297 l 279 -336 q 370 -256 335 -303 q 406 -150 406 -208 z "},"s":{"ha":563,"x_min":39,"x_max":506,"o":"m 275 751 q 369 676 369 751 q 356 618 368 643 q 328 574 343 593 q 308 547 314 554 q 374 488 326 526 q 443 424 417 453 q 488 352 469 396 q 506 246 506 308 q 470 113 506 174 q 374 18 435 53 q 239 -17 313 -17 q 126 3 185 -17 q 39 57 68 22 l 140 193 q 210 114 169 149 q 290 79 250 79 q 379 114 342 79 q 417 201 417 149 q 381 286 417 244 q 278 388 344 328 q 219 442 232 428 l 125 304 l 75 338 l 183 488 q 156 603 156 538 q 186 709 156 667 q 275 751 217 751 m 275 694 q 253 685 258 694 q 247 657 247 675 q 253 626 247 642 q 265 596 258 611 q 292 629 281 607 q 303 668 303 651 q 295 687 303 679 q 275 694 288 694 z "},"ś":{"ha":563,"x_min":39,"x_max":506,"o":"m 275 751 q 369 676 369 751 q 356 618 368 643 q 328 574 343 593 q 308 547 314 554 q 374 488 326 526 q 443 424 417 453 q 488 352 469 396 q 506 246 506 308 q 470 113 506 174 q 374 18 435 53 q 239 -17 313 -17 q 126 3 185 -17 q 39 57 68 22 l 140 193 q 210 114 169 149 q 290 79 250 79 q 379 114 342 79 q 417 201 417 149 q 381 286 417 244 q 278 388 344 328 q 219 442 232 428 l 125 304 l 75 338 l 183 488 q 156 603 156 538 q 186 709 156 667 q 275 751 217 751 m 275 694 q 253 685 258 694 q 247 657 247 675 q 253 626 247 642 q 265 596 258 611 q 292 629 281 607 q 303 668 303 651 q 295 687 303 679 q 275 694 288 694 m 343 1031 l 153 832 l 178 790 l 435 900 l 343 1031 z "},"š":{"ha":563,"x_min":39,"x_max":506,"o":"m 275 751 q 369 676 369 751 q 356 618 368 643 q 328 574 343 593 q 308 547 314 554 q 374 488 326 526 q 443 424 417 453 q 488 352 469 396 q 506 246 506 308 q 470 113 506 174 q 374 18 435 53 q 239 -17 313 -17 q 126 3 185 -17 q 39 57 68 22 l 140 193 q 210 114 169 149 q 290 79 250 79 q 379 114 342 79 q 417 201 417 149 q 381 286 417 244 q 278 388 344 328 q 219 442 232 428 l 125 304 l 75 338 l 183 488 q 156 603 156 538 q 186 709 156 667 q 275 751 217 751 m 275 694 q 253 685 258 694 q 247 657 247 675 q 253 626 247 642 q 265 596 258 611 q 292 629 281 607 q 303 668 303 651 q 295 687 303 679 q 275 694 288 694 m 329 936 l 428 1051 l 474 1014 l 297 806 l 94 967 l 174 1063 l 329 936 z "},"ş":{"ha":563,"x_min":39,"x_max":506,"o":"m 506 246 q 475 121 506 178 q 390 28 444 64 q 269 -15 336 -8 l 242 -62 q 296 -51 271 -51 q 376 -81 344 -51 q 408 -162 408 -110 q 369 -247 408 -214 q 279 -279 331 -279 q 210 -260 243 -279 q 158 -210 176 -240 l 189 -187 q 249 -224 217 -224 q 290 -206 275 -224 q 304 -162 304 -187 q 288 -118 304 -136 q 246 -100 271 -100 q 206 -112 225 -100 l 179 -92 l 222 -17 q 117 6 169 -12 q 39 57 65 24 l 140 193 q 210 114 169 149 q 290 79 250 79 q 379 114 342 79 q 417 201 417 149 q 381 286 417 244 q 278 388 344 328 q 219 442 232 428 l 125 304 l 75 338 l 183 488 q 156 603 156 538 q 186 709 156 667 q 275 751 217 751 q 369 676 369 751 q 356 618 368 643 q 328 574 343 593 q 308 547 314 554 q 374 488 326 526 q 443 424 417 453 q 488 352 469 396 q 506 246 506 308 m 265 596 q 292 629 281 607 q 303 668 303 651 q 295 687 303 679 q 275 694 288 694 q 253 685 258 694 q 247 657 247 675 q 253 626 247 642 q 265 596 258 611 z "},"ŝ":{"ha":563,"x_min":39,"x_max":506,"o":"m 275 751 q 369 676 369 751 q 356 618 368 643 q 328 574 343 593 q 308 547 314 554 q 374 488 326 526 q 443 424 417 453 q 488 352 469 396 q 506 246 506 308 q 470 113 506 174 q 374 18 435 53 q 239 -17 313 -17 q 126 3 185 -17 q 39 57 68 22 l 140 193 q 210 114 169 149 q 290 79 250 79 q 379 114 342 79 q 417 201 417 149 q 381 286 417 244 q 278 388 344 328 q 219 442 232 428 l 125 304 l 75 338 l 183 488 q 156 603 156 538 q 186 709 156 667 q 275 751 217 751 m 275 694 q 253 685 258 694 q 247 657 247 675 q 253 626 247 642 q 265 596 258 611 q 292 629 281 607 q 303 668 303 651 q 295 687 303 679 q 275 694 288 694 m 471 882 l 393 785 l 235 911 l 139 797 l 92 833 l 268 1043 l 471 882 z "},"ș":{"ha":563,"x_min":39,"x_max":506,"o":"m 275 751 q 369 676 369 751 q 356 618 368 643 q 328 574 343 593 q 308 547 314 554 q 374 488 326 526 q 443 424 417 453 q 488 352 469 396 q 506 246 506 308 q 470 113 506 174 q 374 18 435 53 q 239 -17 313 -17 q 126 3 185 -17 q 39 57 68 22 l 140 193 q 210 114 169 149 q 290 79 250 79 q 379 114 342 79 q 417 201 417 149 q 381 286 417 244 q 278 388 344 328 q 219 442 232 428 l 125 304 l 75 338 l 183 488 q 156 603 156 538 q 186 709 156 667 q 275 751 217 751 m 275 694 q 253 685 258 694 q 247 657 247 675 q 253 626 247 642 q 265 596 258 611 q 292 629 281 607 q 303 668 303 651 q 295 687 303 679 q 275 694 288 694 m 372 -150 q 346 -85 372 -112 q 282 -58 319 -58 q 219 -85 244 -58 q 193 -150 193 -112 q 212 -206 193 -181 q 261 -239 231 -231 q 245 -277 257 -257 q 218 -312 233 -297 l 246 -336 q 337 -256 301 -303 q 372 -150 372 -208 z "},"ß":{"ha":919,"x_min":40,"x_max":867,"o":"m 471 1296 q 626 1244 567 1296 q 686 1099 686 1192 q 667 1012 686 1051 q 613 918 649 972 q 556 823 575 864 q 538 735 538 782 q 558 651 538 689 q 610 583 579 613 q 692 511 640 553 q 784 430 750 464 q 842 349 818 396 q 867 243 867 303 q 831 108 867 169 q 732 10 794 46 q 592 -25 669 -25 q 475 -6 535 -25 q 382 50 415 13 l 497 186 q 562 109 519 146 q 644 72 604 72 q 739 106 701 72 q 776 194 776 140 q 749 264 776 233 q 660 344 721 294 q 545 445 590 399 q 467 563 500 492 q 435 729 435 633 q 449 803 435 765 q 490 904 463 842 q 536 1013 521 969 q 551 1097 551 1056 q 515 1188 551 1147 q 425 1228 478 1228 q 328 1174 353 1228 q 303 1042 303 1121 l 303 -186 l 132 -257 l 132 575 l 40 575 l 81 664 l 132 664 q 149 967 132 839 q 241 1196 167 1096 q 471 1296 315 1296 z "},"t":{"ha":479,"x_min":25,"x_max":474,"o":"m 292 603 l 292 128 q 303 95 292 108 q 332 82 314 82 q 407 131 365 82 l 432 104 q 369 29 407 54 q 297 -4 332 4 q 263 -10 263 -12 q 124 136 124 -10 l 124 603 l 25 603 l 68 694 l 124 694 l 124 1010 l 292 1067 l 292 694 l 474 694 l 432 603 l 292 603 m 263 -10 z "},"ŧ":{"ha":478,"x_min":18,"x_max":474,"o":"m 292 361 l 292 128 q 303 95 292 108 q 332 82 314 82 q 407 131 365 82 l 432 104 q 369 29 407 54 q 297 -4 332 4 q 263 -10 263 -12 q 124 136 124 -10 l 124 361 l 18 361 l 56 429 l 124 429 l 124 603 l 25 603 l 68 694 l 124 694 l 124 1010 l 292 1067 l 292 694 l 474 694 l 432 603 l 292 603 l 292 429 l 464 429 l 429 361 l 292 361 m 263 -10 z "},"ť":{"ha":479,"x_min":25,"x_max":560,"o":"m 292 603 l 292 128 q 303 95 292 108 q 332 82 314 82 q 407 131 365 82 l 432 104 q 369 29 407 54 q 297 -4 332 4 q 263 -10 263 -12 q 124 136 124 -10 l 124 603 l 25 603 l 68 694 l 124 694 l 124 1010 l 292 1067 l 292 694 l 474 694 l 432 603 l 292 603 m 263 -10 m 560 964 q 533 1029 560 1001 q 471 1057 507 1057 q 406 1029 433 1057 q 379 964 379 1001 q 399 909 379 933 q 449 875 418 885 q 434 837 447 857 q 406 803 421 817 l 433 778 q 524 859 489 811 q 560 964 560 907 z "},"ț":{"ha":479,"x_min":25,"x_max":474,"o":"m 292 603 l 292 128 q 303 95 292 108 q 332 82 314 82 q 407 131 365 82 l 432 104 q 369 29 407 54 q 297 -4 332 4 q 263 -10 263 -12 q 124 136 124 -10 l 124 603 l 25 603 l 68 694 l 124 694 l 124 1010 l 292 1067 l 292 694 l 474 694 l 432 603 l 292 603 m 263 -10 m 333 -150 q 307 -85 333 -112 q 243 -58 281 -58 q 180 -85 206 -58 q 154 -150 154 -112 q 173 -206 154 -181 q 222 -239 192 -231 q 206 -277 218 -257 q 179 -312 194 -297 l 207 -336 q 298 -256 263 -303 q 333 -150 333 -208 z "},"u":{"ha":846,"x_min":17,"x_max":829,"o":"m 700 129 q 710 95 700 108 q 738 82 719 82 q 806 129 765 82 l 829 104 q 743 12 794 33 q 665 -10 692 -10 q 587 14 614 -10 q 548 92 560 38 q 536 247 536 147 l 536 289 l 531 385 l 525 385 q 426 110 492 236 q 253 -17 360 -17 q 183 6 206 -17 q 153 68 160 29 q 147 175 147 107 l 147 561 q 138 598 147 585 q 111 611 128 611 q 40 561 78 611 l 17 588 q 76 665 40 639 q 140 699 113 692 q 175 706 167 706 q 282 665 250 706 q 314 561 314 624 l 314 190 q 320 151 314 165 q 336 138 326 138 q 429 238 386 138 q 499 467 472 339 q 525 654 525 596 l 700 713 l 700 129 z "},"ú":{"ha":846,"x_min":17,"x_max":829,"o":"m 700 129 q 710 95 700 108 q 738 82 719 82 q 806 129 765 82 l 829 104 q 743 12 794 33 q 665 -10 692 -10 q 587 14 614 -10 q 548 92 560 38 q 536 247 536 147 l 536 289 l 531 385 l 525 385 q 426 110 492 236 q 253 -17 360 -17 q 183 6 206 -17 q 153 68 160 29 q 147 175 147 107 l 147 561 q 138 598 147 585 q 111 611 128 611 q 40 561 78 611 l 17 588 q 76 665 40 639 q 140 699 113 692 q 175 706 167 706 q 282 665 250 706 q 314 561 314 624 l 314 190 q 320 151 314 165 q 336 138 326 138 q 429 238 386 138 q 499 467 472 339 q 525 654 525 596 l 700 713 l 700 129 m 485 1031 l 294 832 l 319 790 l 576 900 l 485 1031 z "},"ŭ":{"ha":846,"x_min":17,"x_max":829,"o":"m 700 129 q 710 95 700 108 q 738 82 719 82 q 806 129 765 82 l 829 104 q 743 12 794 33 q 665 -10 692 -10 q 587 14 614 -10 q 548 92 560 38 q 536 247 536 147 l 536 289 l 531 385 l 525 385 q 426 110 492 236 q 253 -17 360 -17 q 183 6 206 -17 q 153 68 160 29 q 147 175 147 107 l 147 561 q 138 598 147 585 q 111 611 128 611 q 40 561 78 611 l 17 588 q 76 665 40 639 q 140 699 113 692 q 175 706 167 706 q 282 665 250 706 q 314 561 314 624 l 314 190 q 320 151 314 165 q 336 138 326 138 q 429 238 386 138 q 499 467 472 339 q 525 654 525 596 l 700 713 l 700 129 m 332 1051 q 284 992 301 1028 q 267 918 267 957 q 307 826 267 861 q 408 792 347 792 q 532 834 483 792 q 581 946 581 876 q 533 1056 581 1007 l 435 993 q 463 953 451 978 q 474 901 474 928 q 458 856 474 874 q 419 839 443 839 q 365 878 385 839 q 344 960 344 918 q 361 1031 344 1000 l 332 1051 z "},"û":{"ha":846,"x_min":17,"x_max":829,"o":"m 700 129 q 710 95 700 108 q 738 82 719 82 q 806 129 765 82 l 829 104 q 743 12 794 33 q 665 -10 692 -10 q 587 14 614 -10 q 548 92 560 38 q 536 247 536 147 l 536 289 l 531 385 l 525 385 q 426 110 492 236 q 253 -17 360 -17 q 183 6 206 -17 q 153 68 160 29 q 147 175 147 107 l 147 561 q 138 598 147 585 q 111 611 128 611 q 40 561 78 611 l 17 588 q 76 665 40 639 q 140 699 113 692 q 175 706 167 706 q 282 665 250 706 q 314 561 314 624 l 314 190 q 320 151 314 165 q 336 138 326 138 q 429 238 386 138 q 499 467 472 339 q 525 654 525 596 l 700 713 l 700 129 m 614 882 l 536 785 l 378 911 l 282 797 l 235 833 l 411 1043 l 614 882 z "},"ü":{"ha":846,"x_min":17,"x_max":829,"o":"m 700 129 q 710 95 700 108 q 738 82 719 82 q 806 129 765 82 l 829 104 q 743 12 794 33 q 665 -10 692 -10 q 587 14 614 -10 q 548 92 560 38 q 536 247 536 147 l 536 289 l 531 385 l 525 385 q 426 110 492 236 q 253 -17 360 -17 q 183 6 206 -17 q 153 68 160 29 q 147 175 147 107 l 147 561 q 138 598 147 585 q 111 611 128 611 q 40 561 78 611 l 17 588 q 76 665 40 639 q 140 699 113 692 q 175 706 167 706 q 282 665 250 706 q 314 561 314 624 l 314 190 q 320 151 314 165 q 336 138 326 138 q 429 238 386 138 q 499 467 472 339 q 525 654 525 596 l 700 713 l 700 129 m 300 1022 q 363 995 336 1022 q 389 932 389 968 q 363 869 389 894 q 300 843 336 843 q 236 869 263 843 q 210 932 210 894 q 236 995 210 968 q 300 1022 263 1022 m 549 1022 q 614 996 588 1022 q 640 932 640 969 q 614 869 640 894 q 549 843 588 843 q 486 869 513 843 q 460 932 460 894 q 486 995 460 968 q 549 1022 513 1022 z "},"ù":{"ha":846,"x_min":17,"x_max":829,"o":"m 700 129 q 710 95 700 108 q 738 82 719 82 q 806 129 765 82 l 829 104 q 743 12 794 33 q 665 -10 692 -10 q 587 14 614 -10 q 548 92 560 38 q 536 247 536 147 l 536 289 l 531 385 l 525 385 q 426 110 492 236 q 253 -17 360 -17 q 183 6 206 -17 q 153 68 160 29 q 147 175 147 107 l 147 561 q 138 598 147 585 q 111 611 128 611 q 40 561 78 611 l 17 588 q 76 665 40 639 q 140 699 113 692 q 175 706 167 706 q 282 665 250 706 q 314 561 314 624 l 314 190 q 320 151 314 165 q 336 138 326 138 q 429 238 386 138 q 499 467 472 339 q 525 654 525 596 l 700 713 l 700 129 m 558 832 l 365 1031 l 275 900 l 533 789 l 558 832 z "},"ű":{"ha":846,"x_min":17,"x_max":829,"o":"m 700 129 q 710 95 700 108 q 738 82 719 82 q 806 129 765 82 l 829 104 q 743 12 794 33 q 665 -10 692 -10 q 587 14 614 -10 q 548 92 560 38 q 536 247 536 147 l 536 289 l 531 385 l 525 385 q 426 110 492 236 q 253 -17 360 -17 q 183 6 206 -17 q 153 68 160 29 q 147 175 147 107 l 147 561 q 138 598 147 585 q 111 611 128 611 q 40 561 78 611 l 17 588 q 76 665 40 639 q 140 699 113 692 q 175 706 167 706 q 282 665 250 706 q 314 561 314 624 l 314 190 q 320 151 314 165 q 336 138 326 138 q 429 238 386 138 q 499 467 472 339 q 525 654 525 596 l 700 713 l 700 129 m 342 1031 l 175 832 l 206 790 l 433 900 l 342 1031 m 585 1031 l 418 832 l 447 790 l 676 900 l 585 1031 z "},"ū":{"ha":846,"x_min":17,"x_max":829,"o":"m 700 129 q 710 95 700 108 q 738 82 719 82 q 806 129 765 82 l 829 104 q 743 12 794 33 q 665 -10 692 -10 q 587 14 614 -10 q 548 92 560 38 q 536 247 536 147 l 536 289 l 531 385 l 525 385 q 426 110 492 236 q 253 -17 360 -17 q 183 6 206 -17 q 153 68 160 29 q 147 175 147 107 l 147 561 q 138 598 147 585 q 111 611 128 611 q 40 561 78 611 l 17 588 q 76 665 40 639 q 140 699 113 692 q 175 706 167 706 q 282 665 250 706 q 314 561 314 624 l 314 190 q 320 151 314 165 q 336 138 326 138 q 429 238 386 138 q 499 467 472 339 q 525 654 525 596 l 700 713 l 700 129 m 608 988 l 297 988 l 246 875 l 558 875 l 608 988 z "},"ų":{"ha":846,"x_min":17,"x_max":839,"o":"m 839 -172 q 778 -243 814 -217 q 703 -269 743 -269 q 625 -243 658 -269 q 592 -164 592 -217 q 681 -8 592 -82 l 665 -10 q 587 14 614 -10 q 548 92 560 38 q 536 247 536 147 l 536 289 l 531 385 l 525 385 q 426 110 492 236 q 253 -17 360 -17 q 183 6 206 -17 q 153 68 160 29 q 147 175 147 107 l 147 561 q 138 598 147 585 q 111 611 128 611 q 40 561 78 611 l 17 588 q 76 665 40 639 q 140 699 113 692 q 175 706 167 706 q 282 665 250 706 q 314 561 314 624 l 314 190 q 320 151 314 165 q 336 138 326 138 q 429 238 386 138 q 499 467 472 339 q 525 654 525 596 l 700 713 l 700 129 q 710 95 700 108 q 738 82 719 82 q 806 129 765 82 l 829 104 q 739 10 799 42 l 743 6 q 682 -121 682 -61 q 746 -189 682 -189 q 814 -151 783 -189 l 839 -172 z "},"ů":{"ha":846,"x_min":17,"x_max":829,"o":"m 700 129 q 710 95 700 108 q 738 82 719 82 q 806 129 765 82 l 829 104 q 743 12 794 33 q 665 -10 692 -10 q 587 14 614 -10 q 548 92 560 38 q 536 247 536 147 l 536 289 l 531 385 l 525 385 q 426 110 492 236 q 253 -17 360 -17 q 183 6 206 -17 q 153 68 160 29 q 147 175 147 107 l 147 561 q 138 598 147 585 q 111 611 128 611 q 40 561 78 611 l 17 588 q 76 665 40 639 q 140 699 113 692 q 175 706 167 706 q 282 665 250 706 q 314 561 314 624 l 314 190 q 320 151 314 165 q 336 138 326 138 q 429 238 386 138 q 499 467 472 339 q 525 654 525 596 l 700 713 l 700 129 m 424 1096 q 528 1058 488 1096 q 569 960 569 1019 q 526 865 569 906 q 424 824 483 824 q 322 863 363 824 q 281 960 281 903 q 323 1056 281 1017 q 424 1096 365 1096 m 407 1046 q 381 1031 390 1046 q 372 988 372 1015 q 394 908 372 940 q 442 875 417 875 q 467 892 458 875 q 475 936 475 908 q 453 1015 475 983 q 407 1046 431 1046 z "},"ũ":{"ha":846,"x_min":17,"x_max":829,"o":"m 700 129 q 710 95 700 108 q 738 82 719 82 q 806 129 765 82 l 829 104 q 743 12 794 33 q 665 -10 692 -10 q 587 14 614 -10 q 548 92 560 38 q 536 247 536 147 l 536 289 l 531 385 l 525 385 q 426 110 492 236 q 253 -17 360 -17 q 183 6 206 -17 q 153 68 160 29 q 147 175 147 107 l 147 561 q 138 598 147 585 q 111 611 128 611 q 40 561 78 611 l 17 588 q 76 665 40 639 q 140 699 113 692 q 175 706 167 706 q 282 665 250 706 q 314 561 314 624 l 314 190 q 320 151 314 165 q 336 138 326 138 q 429 238 386 138 q 499 467 472 339 q 525 654 525 596 l 700 713 l 700 129 m 558 1035 q 593 946 593 996 q 564 869 593 900 q 486 839 535 839 q 438 851 457 839 q 399 885 418 864 q 374 906 385 899 q 353 913 364 913 q 328 879 328 913 q 338 846 328 861 l 292 828 q 257 918 257 868 q 285 994 257 964 q 363 1025 314 1025 q 411 1013 392 1025 q 450 979 431 1000 q 474 958 464 965 q 496 951 485 951 q 515 960 508 951 q 522 983 522 968 q 511 1017 522 1001 l 558 1035 z "},"v":{"ha":719,"x_min":-17,"x_max":700,"o":"m 578 746 q 668 681 636 724 q 700 583 700 638 q 692 520 700 554 q 671 461 683 486 l 436 -6 q 419 -19 432 -14 q 393 -25 407 -25 q 363 -19 376 -25 q 346 -3 350 -14 l 114 508 q 49 565 83 565 q 6 538 29 565 l -17 557 q 50 652 0 611 q 160 693 100 693 q 223 653 197 693 q 272 558 249 614 l 453 151 l 553 357 q 579 450 579 413 q 551 542 579 503 q 474 604 524 581 l 578 746 z "},"w":{"ha":1019,"x_min":-4,"x_max":982,"o":"m 874 747 q 982 579 982 694 q 975 520 982 554 q 957 460 968 486 l 765 25 q 713 -10 750 -10 q 654 26 667 -10 l 546 394 l 401 28 q 380 -4 392 4 q 347 -12 368 -12 q 296 25 307 -12 l 140 504 q 115 551 129 538 q 76 565 101 565 q 46 556 61 565 q 21 535 31 547 l -4 557 q 72 654 25 615 q 183 693 118 693 q 254 658 228 693 q 299 563 281 622 l 410 201 l 518 486 l 468 653 l 632 711 l 776 199 l 849 368 q 867 450 867 408 q 841 541 867 501 q 769 604 815 581 l 874 747 z "},"ẃ":{"ha":1019,"x_min":-4,"x_max":982,"o":"m 874 747 q 982 579 982 694 q 975 520 982 554 q 957 460 968 486 l 765 25 q 713 -10 750 -10 q 654 26 667 -10 l 546 394 l 401 28 q 380 -4 392 4 q 347 -12 368 -12 q 296 25 307 -12 l 140 504 q 115 551 129 538 q 76 565 101 565 q 46 556 61 565 q 21 535 31 547 l -4 557 q 72 654 25 615 q 183 693 118 693 q 254 658 228 693 q 299 563 281 622 l 410 201 l 518 486 l 468 653 l 632 711 l 776 199 l 849 368 q 867 450 867 408 q 841 541 867 501 q 769 604 815 581 l 874 747 m 601 1031 l 411 832 l 436 790 l 693 900 l 601 1031 z "},"ŵ":{"ha":1019,"x_min":-4,"x_max":982,"o":"m 874 747 q 982 579 982 694 q 975 520 982 554 q 957 460 968 486 l 765 25 q 713 -10 750 -10 q 654 26 667 -10 l 546 394 l 401 28 q 380 -4 392 4 q 347 -12 368 -12 q 296 25 307 -12 l 140 504 q 115 551 129 538 q 76 565 101 565 q 46 556 61 565 q 21 535 31 547 l -4 557 q 72 654 25 615 q 183 693 118 693 q 254 658 228 693 q 299 563 281 622 l 410 201 l 518 486 l 468 653 l 632 711 l 776 199 l 849 368 q 867 450 867 408 q 841 541 867 501 q 769 604 815 581 l 874 747 m 731 882 l 653 785 l 494 911 l 399 797 l 351 833 l 528 1043 l 731 882 z "},"ẅ":{"ha":1019,"x_min":-4,"x_max":982,"o":"m 874 747 q 982 579 982 694 q 975 520 982 554 q 957 460 968 486 l 765 25 q 713 -10 750 -10 q 654 26 667 -10 l 546 394 l 401 28 q 380 -4 392 4 q 347 -12 368 -12 q 296 25 307 -12 l 140 504 q 115 551 129 538 q 76 565 101 565 q 46 556 61 565 q 21 535 31 547 l -4 557 q 72 654 25 615 q 183 693 118 693 q 254 658 228 693 q 299 563 281 622 l 410 201 l 518 486 l 468 653 l 632 711 l 776 199 l 849 368 q 867 450 867 408 q 841 541 867 501 q 769 604 815 581 l 874 747 m 417 1022 q 479 995 453 1022 q 506 932 506 968 q 479 869 506 894 q 417 843 453 843 q 353 869 379 843 q 326 932 326 894 q 353 995 326 968 q 417 1022 379 1022 m 665 1022 q 731 996 704 1022 q 757 932 757 969 q 731 869 757 894 q 665 843 704 843 q 603 869 629 843 q 576 932 576 894 q 603 995 576 968 q 665 1022 629 1022 z "},"ẁ":{"ha":1019,"x_min":-4,"x_max":982,"o":"m 874 747 q 982 579 982 694 q 975 520 982 554 q 957 460 968 486 l 765 25 q 713 -10 750 -10 q 654 26 667 -10 l 546 394 l 401 28 q 380 -4 392 4 q 347 -12 368 -12 q 296 25 307 -12 l 140 504 q 115 551 129 538 q 76 565 101 565 q 46 556 61 565 q 21 535 31 547 l -4 557 q 72 654 25 615 q 183 693 118 693 q 254 658 228 693 q 299 563 281 622 l 410 201 l 518 486 l 468 653 l 632 711 l 776 199 l 849 368 q 867 450 867 408 q 841 541 867 501 q 769 604 815 581 l 874 747 m 675 832 l 482 1031 l 392 900 l 650 789 l 675 832 z "},"x":{"ha":793,"x_min":26,"x_max":754,"o":"m 754 101 q 679 23 725 57 q 590 -11 633 -11 q 483 50 536 -11 q 371 221 431 111 q 284 50 335 111 q 144 -11 233 -11 q 26 32 74 -11 l 96 188 q 140 159 114 171 q 188 147 165 147 q 275 184 240 147 q 336 288 310 221 l 319 319 q 200 524 246 458 q 107 589 154 589 q 53 567 79 589 l 31 594 q 107 674 61 640 q 199 707 153 707 q 300 651 250 707 q 404 494 350 594 q 491 659 440 600 q 629 718 542 718 q 743 676 697 718 l 674 521 q 630 549 654 538 q 583 560 606 560 q 498 526 532 560 q 439 429 464 492 l 460 388 q 542 236 511 290 q 609 144 574 182 q 679 107 644 107 q 704 113 693 107 q 732 129 715 118 l 754 101 z "},"y":{"ha":806,"x_min":15,"x_max":700,"o":"m 700 76 q 642 -162 700 -49 q 488 -345 583 -276 q 288 -414 392 -414 q 217 -403 250 -414 q 147 -367 183 -392 l 250 -237 q 321 -285 282 -268 q 390 -303 360 -303 q 496 -206 457 -303 q 535 58 535 -110 q 540 421 535 304 l 532 421 q 253 -17 435 -17 q 188 0 211 -17 q 156 58 165 17 q 147 175 147 99 l 147 561 q 138 598 147 585 q 111 611 128 611 q 76 599 94 611 q 40 561 57 586 l 15 588 q 84 680 47 653 q 179 707 121 707 q 278 669 243 707 q 313 561 313 631 l 313 189 q 319 153 313 165 q 338 140 326 140 q 416 228 371 140 q 494 438 461 315 q 526 654 526 560 l 700 713 l 700 76 z "},"ý":{"ha":806,"x_min":15,"x_max":700,"o":"m 700 76 q 642 -162 700 -49 q 488 -345 583 -276 q 288 -414 392 -414 q 217 -403 250 -414 q 147 -367 183 -392 l 250 -237 q 321 -285 282 -268 q 390 -303 360 -303 q 496 -206 457 -303 q 535 58 535 -110 q 540 421 535 304 l 532 421 q 253 -17 435 -17 q 188 0 211 -17 q 156 58 165 17 q 147 175 147 99 l 147 561 q 138 598 147 585 q 111 611 128 611 q 76 599 94 611 q 40 561 57 586 l 15 588 q 84 680 47 653 q 179 707 121 707 q 278 669 243 707 q 313 561 313 631 l 313 189 q 319 153 313 165 q 338 140 326 140 q 416 228 371 140 q 494 438 461 315 q 526 654 526 560 l 700 713 l 700 76 m 483 1031 l 293 832 l 318 790 l 575 900 l 483 1031 z "},"ŷ":{"ha":806,"x_min":15,"x_max":700,"o":"m 700 76 q 642 -162 700 -49 q 488 -345 583 -276 q 288 -414 392 -414 q 217 -403 250 -414 q 147 -367 183 -392 l 250 -237 q 321 -285 282 -268 q 390 -303 360 -303 q 496 -206 457 -303 q 535 58 535 -110 q 540 421 535 304 l 532 421 q 253 -17 435 -17 q 188 0 211 -17 q 156 58 165 17 q 147 175 147 99 l 147 561 q 138 598 147 585 q 111 611 128 611 q 76 599 94 611 q 40 561 57 586 l 15 588 q 84 680 47 653 q 179 707 121 707 q 278 669 243 707 q 313 561 313 631 l 313 189 q 319 153 313 165 q 338 140 326 140 q 416 228 371 140 q 494 438 461 315 q 526 654 526 560 l 700 713 l 700 76 m 613 882 l 535 785 l 376 911 l 281 797 l 233 833 l 410 1043 l 613 882 z "},"ÿ":{"ha":806,"x_min":15,"x_max":700,"o":"m 700 76 q 642 -162 700 -49 q 488 -345 583 -276 q 288 -414 392 -414 q 217 -403 250 -414 q 147 -367 183 -392 l 250 -237 q 321 -285 282 -268 q 390 -303 360 -303 q 496 -206 457 -303 q 535 58 535 -110 q 540 421 535 304 l 532 421 q 253 -17 435 -17 q 188 0 211 -17 q 156 58 165 17 q 147 175 147 99 l 147 561 q 138 598 147 585 q 111 611 128 611 q 76 599 94 611 q 40 561 57 586 l 15 588 q 84 680 47 653 q 179 707 121 707 q 278 669 243 707 q 313 561 313 631 l 313 189 q 319 153 313 165 q 338 140 326 140 q 416 228 371 140 q 494 438 461 315 q 526 654 526 560 l 700 713 l 700 76 m 299 1022 q 361 995 335 1022 q 388 932 388 968 q 361 869 388 894 q 299 843 335 843 q 235 869 261 843 q 208 932 208 894 q 235 995 208 968 q 299 1022 261 1022 m 547 1022 q 613 996 586 1022 q 639 932 639 969 q 613 869 639 894 q 547 843 586 843 q 485 869 511 843 q 458 932 458 894 q 485 995 458 968 q 547 1022 511 1022 z "},"ỳ":{"ha":806,"x_min":15,"x_max":700,"o":"m 700 76 q 642 -162 700 -49 q 488 -345 583 -276 q 288 -414 392 -414 q 217 -403 250 -414 q 147 -367 183 -392 l 250 -237 q 321 -285 282 -268 q 390 -303 360 -303 q 496 -206 457 -303 q 535 58 535 -110 q 540 421 535 304 l 532 421 q 253 -17 435 -17 q 188 0 211 -17 q 156 58 165 17 q 147 175 147 99 l 147 561 q 138 598 147 585 q 111 611 128 611 q 76 599 94 611 q 40 561 57 586 l 15 588 q 84 680 47 653 q 179 707 121 707 q 278 669 243 707 q 313 561 313 631 l 313 189 q 319 153 313 165 q 338 140 326 140 q 416 228 371 140 q 494 438 461 315 q 526 654 526 560 l 700 713 l 700 76 m 557 832 l 364 1031 l 274 900 l 532 789 l 557 832 z "},"z":{"ha":685,"x_min":31,"x_max":661,"o":"m 219 138 q 290 158 251 151 q 361 165 328 165 q 429 161 393 165 q 460 158 442 160 q 504 157 479 157 q 661 186 593 157 l 547 3 q 485 -10 521 -10 q 418 -3 454 -10 q 374 6 382 4 q 264 21 304 21 q 60 -14 176 21 l 31 19 l 444 539 l 439 549 q 300 528 389 528 q 224 531 274 528 q 133 535 182 535 q 78 529 110 535 q 38 521 47 524 l 151 694 q 210 692 179 694 q 251 688 240 689 q 361 682 321 682 q 621 713 521 682 l 636 678 l 213 146 l 219 138 z "},"ź":{"ha":685,"x_min":31,"x_max":661,"o":"m 219 138 q 290 158 251 151 q 361 165 328 165 q 429 161 393 165 q 460 158 442 160 q 504 157 479 157 q 661 186 593 157 l 547 3 q 485 -10 521 -10 q 418 -3 454 -10 q 374 6 382 4 q 264 21 304 21 q 60 -14 176 21 l 31 19 l 444 539 l 439 549 q 300 528 389 528 q 224 531 274 528 q 133 535 182 535 q 78 529 110 535 q 38 521 47 524 l 151 694 q 210 692 179 694 q 251 688 240 689 q 361 682 321 682 q 621 713 521 682 l 636 678 l 213 146 l 219 138 m 461 1031 l 271 832 l 296 790 l 553 900 l 461 1031 z "},"ž":{"ha":685,"x_min":31,"x_max":661,"o":"m 219 138 q 290 158 251 151 q 361 165 328 165 q 429 161 393 165 q 460 158 442 160 q 504 157 479 157 q 661 186 593 157 l 547 3 q 485 -10 521 -10 q 418 -3 454 -10 q 374 6 382 4 q 264 21 304 21 q 60 -14 176 21 l 31 19 l 444 539 l 439 549 q 300 528 389 528 q 224 531 274 528 q 133 535 182 535 q 78 529 110 535 q 38 521 47 524 l 151 694 q 210 692 179 694 q 251 688 240 689 q 361 682 321 682 q 621 713 521 682 l 636 678 l 213 146 l 219 138 m 447 936 l 546 1051 l 592 1014 l 415 806 l 213 967 l 292 1063 l 447 936 z "},"ż":{"ha":685,"x_min":31,"x_max":661,"o":"m 219 138 q 290 158 251 151 q 361 165 328 165 q 429 161 393 165 q 460 158 442 160 q 504 157 479 157 q 661 186 593 157 l 547 3 q 485 -10 521 -10 q 418 -3 454 -10 q 374 6 382 4 q 264 21 304 21 q 60 -14 176 21 l 31 19 l 444 539 l 439 549 q 300 528 389 528 q 224 531 274 528 q 133 535 182 535 q 78 529 110 535 q 38 521 47 524 l 151 694 q 210 692 179 694 q 251 688 240 689 q 361 682 321 682 q 621 713 521 682 l 636 678 l 213 146 l 219 138 m 400 1028 q 465 999 438 1028 q 493 932 493 971 q 465 867 493 894 q 400 839 438 839 q 334 867 361 839 q 307 932 307 894 q 334 999 307 971 q 400 1028 361 1028 z "},"ﬀ":{"ha":786,"x_min":22,"x_max":935,"o":"m 758 996 q 858 969 810 996 q 935 894 907 942 l 806 824 q 724 935 779 935 q 656 817 656 935 l 656 533 l 815 533 l 783 463 l 656 463 l 656 -137 l 494 -197 l 494 463 l 257 463 l 257 -137 l 94 -197 l 94 463 l 22 463 l 53 533 l 94 533 l 94 678 q 122 832 94 760 q 210 950 149 904 q 365 996 271 996 q 472 974 418 996 q 568 911 525 951 q 758 996 635 996 m 350 935 q 277 897 297 935 q 257 806 257 858 l 257 533 l 494 533 l 494 678 q 503 767 494 721 q 443 890 482 844 q 350 935 404 935 z "},"ﬁ":{"ha":744,"x_min":25,"x_max":735,"o":"m 735 82 q 675 16 713 42 q 593 -10 638 -10 q 506 22 536 -10 q 476 107 476 54 l 476 463 l 258 463 l 258 -137 l 99 -197 l 99 463 l 25 463 l 57 533 l 99 533 l 99 678 q 125 832 99 760 q 211 950 151 904 q 365 996 271 996 q 514 953 442 996 q 625 838 586 911 l 469 782 q 422 894 453 853 q 350 935 392 935 q 278 897 297 935 q 258 806 258 858 l 258 533 l 476 533 l 635 578 l 635 110 q 642 83 635 93 q 663 74 650 74 q 711 106 689 74 l 735 82 z "},"ﬂ":{"ha":747,"x_min":25,"x_max":738,"o":"m 738 82 q 682 17 718 44 q 599 -10 646 -10 q 506 22 535 -10 q 478 107 478 54 l 478 808 q 428 900 461 865 q 350 935 394 935 q 278 897 297 935 q 258 806 258 858 l 258 533 l 415 533 l 383 463 l 258 463 l 258 -137 l 99 -197 l 99 463 l 25 463 l 57 533 l 99 533 l 99 678 q 125 832 99 760 q 211 950 151 904 q 365 996 271 996 q 442 984 403 996 q 518 950 482 972 l 639 989 l 639 110 q 645 83 639 93 q 664 74 651 74 q 715 106 686 74 l 738 82 z "},"ª":{"ha":575,"x_min":61,"x_max":679,"o":"m 388 1114 q 498 1090 447 1114 q 572 1018 549 1067 l 464 972 q 421 1021 449 1001 q 361 1040 393 1040 q 245 978 289 1040 q 201 822 201 915 q 226 681 201 736 q 308 626 251 626 q 414 699 385 626 q 443 858 443 772 l 443 907 l 574 953 l 574 664 q 581 637 574 649 q 603 625 589 625 q 658 664 632 625 l 679 643 q 628 578 664 606 q 550 550 592 550 q 472 586 496 550 q 447 679 447 622 l 443 679 q 372 582 417 619 q 269 544 328 544 q 131 610 179 544 q 83 779 83 675 q 122 944 83 868 q 229 1067 160 1021 q 388 1114 299 1114 m 61 343 l 471 343 l 504 443 l 96 443 l 61 343 z "},"º":{"ha":558,"x_min":61,"x_max":621,"o":"m 375 1100 q 260 982 301 1047 q 218 826 218 917 q 237 728 218 778 q 292 644 256 678 q 381 611 329 611 q 485 658 446 611 q 524 775 524 706 q 497 881 524 828 q 424 972 469 935 q 326 1014 379 1010 q 446 1111 364 1056 q 574 1013 526 1085 q 621 853 621 940 q 587 704 621 776 q 489 587 553 632 q 340 542 425 542 q 212 574 271 542 q 119 665 153 607 q 85 792 85 722 q 160 1001 85 911 q 354 1125 235 1090 l 375 1100 m 61 343 l 471 343 l 504 443 l 96 443 l 61 343 z "},"Ω":{"ha":1303,"x_min":74,"x_max":1231,"o":"m 651 1015 q 908 962 789 1015 q 1101 799 1028 908 q 1175 529 1175 689 q 1134 354 1175 439 q 1030 208 1093 269 q 900 124 967 147 l 1175 124 l 1231 0 l 736 0 l 736 113 q 856 206 797 144 q 954 351 915 267 q 993 532 993 436 q 950 756 993 664 q 829 894 907 847 q 651 940 751 940 q 474 894 551 940 q 354 756 397 847 q 311 532 311 664 q 350 351 311 436 q 447 206 389 267 q 567 113 506 144 l 567 0 l 74 0 l 129 124 l 406 124 q 274 208 338 147 q 169 353 210 268 q 129 529 129 439 q 203 799 129 689 q 395 962 276 908 q 651 1015 514 1015 z "},"µ":{"ha":925,"x_min":51,"x_max":883,"o":"m 747 129 q 759 96 747 110 q 785 82 771 82 q 822 94 801 82 q 858 129 842 107 l 883 104 q 806 19 853 49 q 710 -10 758 -10 q 620 28 656 -10 q 585 136 585 65 l 585 421 l 581 421 q 494 152 544 271 q 354 -6 443 33 l 354 -269 l 189 -337 l 189 561 q 177 598 189 585 q 146 611 165 611 q 113 598 132 611 q 78 561 94 585 l 51 588 q 131 676 82 644 q 225 707 179 707 q 317 668 279 707 q 354 561 354 629 l 354 189 q 379 140 354 140 q 498 301 442 140 q 581 654 554 463 l 747 713 l 747 129 z "},"π":{"ha":908,"x_min":65,"x_max":890,"o":"m 890 104 q 814 20 860 50 q 722 -10 768 -10 q 628 28 665 -10 q 590 136 590 65 l 590 579 l 324 579 l 324 0 l 156 -36 l 156 579 l 65 579 l 104 668 l 590 668 l 760 722 l 760 131 q 769 95 760 108 q 794 82 778 82 q 828 95 808 82 q 864 131 849 108 l 890 104 z "},"ऄ":{"ha":1186,"x_min":36,"x_max":1492,"o":"m 92 535 q 251 271 153 371 q 454 171 350 171 q 553 196 508 171 q 626 263 599 221 q 653 354 653 306 q 606 474 653 406 q 533 415 572 436 q 458 394 494 394 q 360 424 413 394 q 273 499 308 454 q 238 585 238 543 q 283 672 238 635 q 389 708 329 708 q 465 688 425 708 q 538 632 504 668 q 576 694 563 657 q 590 769 590 732 q 561 849 590 817 q 485 881 532 881 q 364 853 425 881 q 250 775 303 825 l 128 901 q 240 967 174 944 q 385 989 306 989 q 544 945 467 989 q 669 833 621 901 q 717 699 717 765 q 683 571 717 633 q 754 544 708 544 q 826 558 790 544 q 888 600 861 572 l 888 806 l 764 806 l 638 957 l 914 957 l 1049 806 l 1049 135 q 1088 73 1049 108 q 1178 12 1126 38 q 1267 -14 1231 -14 q 1350 35 1319 -14 l 1492 -50 q 1439 -90 1469 -76 q 1376 -104 1408 -104 q 1176 -45 1293 -104 q 974 94 1060 14 q 888 231 888 174 l 888 454 q 824 442 854 442 q 658 528 756 442 l 644 511 q 735 382 703 447 q 767 258 767 317 q 736 143 767 196 q 653 59 706 90 q 540 28 601 28 q 346 89 443 28 q 168 260 249 150 q 36 511 88 369 l 92 535 m 994 957 l 1206 957 l 1206 806 l 1128 806 l 994 957 m 378 493 q 432 515 399 493 q 507 583 465 538 q 457 613 485 613 q 390 581 426 613 q 353 521 353 549 q 360 501 353 510 q 378 493 368 493 m 336 1410 q 407 1324 344 1357 q 563 1292 469 1292 q 787 1267 697 1292 q 930 1168 876 1242 q 983 957 983 1094 l 922 957 q 890 1051 922 1007 q 797 1120 857 1094 q 658 1146 738 1146 q 396 1199 504 1146 q 281 1410 288 1253 l 336 1410 z "},"ॲ":{"ha":1186,"x_min":36,"x_max":1492,"o":"m 92 535 q 251 271 153 371 q 454 171 350 171 q 553 196 508 171 q 626 263 599 221 q 653 354 653 306 q 606 474 653 406 q 533 415 572 436 q 458 394 494 394 q 360 424 413 394 q 273 499 308 454 q 238 585 238 543 q 283 672 238 635 q 389 708 329 708 q 465 688 425 708 q 538 632 504 668 q 576 694 563 657 q 590 769 590 732 q 561 849 590 817 q 485 881 532 881 q 364 853 425 881 q 250 775 303 825 l 128 901 q 240 967 174 944 q 385 989 306 989 q 544 945 467 989 q 669 833 621 901 q 717 699 717 765 q 683 571 717 633 q 754 544 708 544 q 826 558 790 544 q 888 600 861 572 l 888 806 l 764 806 l 638 957 l 914 957 l 1049 806 l 1049 135 q 1088 73 1049 108 q 1178 12 1126 38 q 1267 -14 1231 -14 q 1350 35 1319 -14 l 1492 -50 q 1439 -90 1469 -76 q 1376 -104 1408 -104 q 1176 -45 1293 -104 q 974 94 1060 14 q 888 231 888 174 l 888 454 q 824 442 854 442 q 658 528 756 442 l 644 511 q 735 382 703 447 q 767 258 767 317 q 736 143 767 196 q 653 59 706 90 q 540 28 601 28 q 346 89 443 28 q 168 260 249 150 q 36 511 88 369 l 92 535 m 994 957 l 1206 957 l 1206 806 l 1128 806 l 994 957 m 378 493 q 432 515 399 493 q 507 583 465 538 q 457 613 485 613 q 390 581 426 613 q 353 521 353 549 q 360 501 353 510 q 378 493 368 493 m 694 1364 q 784 1238 725 1286 q 913 1190 843 1190 q 1048 1240 985 1190 q 1142 1374 1111 1290 l 1254 1299 q 1136 1131 1219 1194 q 954 1067 1053 1067 q 778 1141 863 1067 q 650 1339 694 1215 l 694 1364 z "},"अ":{"ha":1186,"x_min":36,"x_max":1492,"o":"m 92 535 q 251 271 153 371 q 454 171 350 171 q 553 196 508 171 q 626 263 599 221 q 653 354 653 306 q 606 474 653 406 q 533 415 572 436 q 458 394 494 394 q 360 424 413 394 q 273 499 308 454 q 238 585 238 543 q 283 672 238 635 q 389 708 329 708 q 465 688 425 708 q 538 632 504 668 q 576 694 563 657 q 590 769 590 732 q 561 849 590 817 q 485 881 532 881 q 364 853 425 881 q 250 775 303 825 l 128 901 q 240 967 174 944 q 385 989 306 989 q 544 945 467 989 q 669 833 621 901 q 717 699 717 765 q 683 571 717 633 q 754 544 708 544 q 826 558 790 544 q 888 600 861 572 l 888 806 l 764 806 l 638 957 l 914 957 l 1049 806 l 1049 135 q 1088 73 1049 108 q 1178 12 1126 38 q 1267 -14 1231 -14 q 1350 35 1319 -14 l 1492 -50 q 1439 -90 1469 -76 q 1376 -104 1408 -104 q 1176 -45 1293 -104 q 974 94 1060 14 q 888 231 888 174 l 888 454 q 824 442 854 442 q 658 528 756 442 l 644 511 q 735 382 703 447 q 767 258 767 317 q 736 143 767 196 q 653 59 706 90 q 540 28 601 28 q 346 89 443 28 q 168 260 249 150 q 36 511 88 369 l 92 535 m 994 957 l 1206 957 l 1206 806 l 1128 806 l 994 957 m 378 493 q 432 515 399 493 q 507 583 465 538 q 457 613 485 613 q 390 581 426 613 q 353 521 353 549 q 360 501 353 510 q 378 493 368 493 z "},"आ":{"ha":1619,"x_min":36,"x_max":1925,"o":"m 1267 -14 q 1350 35 1319 -14 l 1492 -50 q 1439 -90 1469 -76 q 1376 -104 1408 -104 q 1176 -45 1293 -104 q 974 94 1060 14 q 888 231 888 174 l 888 454 q 824 442 854 442 q 658 528 756 442 l 644 511 q 735 382 703 447 q 767 258 767 317 q 736 143 767 196 q 653 59 706 90 q 540 28 601 28 q 346 89 443 28 q 168 260 249 150 q 36 511 88 369 l 92 535 q 251 271 153 371 q 454 171 350 171 q 553 196 508 171 q 626 263 599 221 q 653 354 653 306 q 606 474 653 406 q 533 415 572 436 q 458 394 494 394 q 360 424 413 394 q 273 499 308 454 q 238 585 238 543 q 283 672 238 635 q 389 708 329 708 q 465 688 425 708 q 538 632 504 668 q 576 694 563 657 q 590 769 590 732 q 561 849 590 817 q 485 881 532 881 q 364 853 425 881 q 250 775 303 825 l 128 901 q 240 967 174 944 q 385 989 306 989 q 544 945 467 989 q 669 833 621 901 q 717 699 717 765 q 683 571 717 633 q 754 544 708 544 q 826 558 790 544 q 888 600 861 572 l 888 806 l 764 806 l 638 957 l 914 957 l 1049 806 l 1049 135 q 1088 73 1049 108 q 1178 12 1126 38 q 1267 -14 1231 -14 m 1925 -50 q 1874 -90 1904 -76 q 1810 -104 1844 -104 q 1609 -44 1726 -104 q 1406 99 1492 17 q 1319 242 1319 182 l 1319 806 l 1206 806 l 1128 806 l 994 957 l 1331 957 l 1482 806 l 1482 135 q 1519 73 1482 108 q 1608 12 1557 38 q 1694 -14 1658 -14 q 1782 36 1744 -14 l 1925 -50 m 1561 806 l 1411 957 l 1639 957 l 1639 806 l 1561 806 m 378 493 q 432 515 399 493 q 507 583 465 538 q 457 613 485 613 q 390 581 426 613 q 353 521 353 549 q 360 501 353 510 q 378 493 368 493 z "},"इ":{"ha":744,"x_min":-19,"x_max":835,"o":"m -19 957 l 382 957 l 529 806 q 588 724 567 764 q 608 651 608 683 q 583 603 608 624 q 519 581 557 582 l 338 575 q 237 540 281 574 q 193 465 193 507 q 213 424 193 442 q 258 407 232 407 q 297 417 278 407 q 344 450 317 428 q 401 488 379 475 q 451 500 424 500 q 565 459 510 500 q 654 359 619 418 q 689 253 689 300 q 651 156 689 201 q 548 77 614 110 q 403 35 482 44 q 508 -54 453 -22 q 611 -86 563 -86 q 670 -75 643 -86 q 714 -43 697 -64 l 835 -160 q 785 -192 817 -181 q 719 -203 754 -203 q 536 -144 635 -203 q 338 26 438 -85 q 205 49 264 26 q 113 109 146 72 q 79 185 79 146 q 106 237 79 215 q 168 258 132 258 q 251 235 207 258 q 331 172 294 213 q 443 199 383 172 q 544 264 503 225 q 585 339 585 303 q 569 383 585 365 q 533 400 554 400 q 481 371 519 400 q 413 328 446 344 q 344 311 381 311 q 223 351 289 311 q 110 449 157 392 q 64 551 64 507 q 91 625 64 590 q 160 681 118 660 q 244 703 201 703 l 438 706 q 472 716 457 706 q 486 743 486 726 q 476 774 486 756 q 450 806 465 792 l -19 806 l -19 957 m 463 957 l 765 957 l 765 806 l 610 806 l 463 957 z "},"ई":{"ha":744,"x_min":-19,"x_max":835,"o":"m -19 957 l 382 957 l 529 806 q 588 724 567 764 q 608 651 608 683 q 583 603 608 624 q 519 581 557 582 l 338 575 q 237 540 281 574 q 193 465 193 507 q 213 424 193 442 q 258 407 232 407 q 297 417 278 407 q 344 450 317 428 q 401 488 379 475 q 451 500 424 500 q 565 459 510 500 q 654 359 619 418 q 689 253 689 300 q 651 156 689 201 q 548 77 614 110 q 403 35 482 44 q 508 -54 453 -22 q 611 -86 563 -86 q 670 -75 643 -86 q 714 -43 697 -64 l 835 -160 q 785 -192 817 -181 q 719 -203 754 -203 q 536 -144 635 -203 q 338 26 438 -85 q 205 49 264 26 q 113 109 146 72 q 79 185 79 146 q 106 237 79 215 q 168 258 132 258 q 251 235 207 258 q 331 172 294 213 q 443 199 383 172 q 544 264 503 225 q 585 339 585 303 q 569 383 585 365 q 533 400 554 400 q 481 371 519 400 q 413 328 446 344 q 344 311 381 311 q 223 351 289 311 q 110 449 157 392 q 64 551 64 507 q 91 625 64 590 q 160 681 118 660 q 244 703 201 703 l 438 706 q 472 716 457 706 q 486 743 486 726 q 476 774 486 756 q 450 806 465 792 l -19 806 l -19 957 m 463 957 l 765 957 l 765 806 l 610 806 l 463 957 m 192 1233 q 219 1320 192 1278 q 290 1389 246 1363 q 382 1415 333 1415 q 475 1381 425 1415 q 571 1289 525 1347 l 531 1254 q 498 1281 517 1271 q 461 1290 479 1290 q 383 1247 417 1290 q 349 1150 349 1204 q 454 957 349 1050 l 389 957 q 246 1097 300 1024 q 192 1233 192 1171 z "},"उ":{"ha":829,"x_min":-19,"x_max":850,"o":"m -19 957 l 471 957 l 606 806 q 676 699 651 754 q 700 600 700 644 q 677 528 700 563 q 618 476 654 494 q 722 349 685 414 q 758 224 758 283 q 731 131 758 174 q 656 63 703 89 q 551 38 608 38 q 352 103 451 38 q 169 288 253 169 q 29 560 85 407 l 76 575 q 248 289 143 399 q 467 179 353 179 q 585 222 535 179 q 636 324 636 264 q 572 451 636 385 q 486 436 535 436 q 413 444 438 436 q 311 610 353 500 q 442 594 354 594 q 549 624 503 594 q 594 696 594 653 q 574 763 594 732 q 521 806 553 793 l -19 806 l -19 957 m 550 957 l 850 957 l 850 806 l 685 806 l 550 957 z "},"ऊ":{"ha":1185,"x_min":-19,"x_max":1204,"o":"m -19 957 l 471 957 l 606 806 q 676 699 651 754 q 700 600 700 644 q 677 528 700 563 q 618 476 654 494 l 644 447 q 758 540 696 507 q 882 572 819 572 q 994 528 935 572 q 1094 419 1054 485 q 1133 294 1133 354 q 1089 171 1133 226 q 976 96 1044 115 l 876 217 q 989 291 946 242 q 1032 396 1032 340 q 1014 438 1032 419 q 974 457 996 457 q 846 422 908 457 q 732 326 783 388 q 758 224 758 274 q 731 131 758 174 q 656 63 703 89 q 551 38 608 38 q 352 103 451 38 q 169 288 253 169 q 29 560 85 407 l 76 575 q 248 289 143 399 q 467 179 353 179 q 585 222 535 179 q 636 324 636 264 q 572 451 636 385 q 486 436 535 436 q 413 444 438 436 q 311 610 353 500 q 442 594 354 594 q 549 624 503 594 q 594 696 594 653 q 574 763 594 732 q 521 806 553 793 l -19 806 l -19 957 m 550 957 l 1204 957 l 1204 806 l 685 806 l 550 957 z "},"ऋ":{"ha":1261,"x_min":-19,"x_max":1281,"o":"m 699 806 l 699 572 q 756 530 719 544 q 835 515 792 515 q 914 538 878 515 q 875 626 875 581 q 899 681 875 658 q 957 703 924 703 q 1039 678 996 703 q 1111 615 1082 653 q 1140 544 1140 578 q 1116 492 1140 518 q 1051 446 1092 465 q 1175 309 1143 354 q 1207 224 1207 264 q 1162 125 1207 167 q 1057 83 1117 83 q 942 115 1001 83 q 833 201 883 147 l 863 236 q 910 207 882 218 q 968 196 938 196 q 1040 227 1010 196 q 1071 300 1071 258 q 1049 351 1071 319 q 990 415 1028 382 q 903 403 956 403 q 800 427 853 403 q 699 496 747 451 l 699 135 q 737 73 699 108 q 827 12 775 38 q 915 -14 879 -14 q 1000 35 968 -14 l 1142 -50 q 1089 -90 1119 -76 q 1026 -104 1058 -104 q 825 -45 943 -104 q 621 94 707 14 q 535 228 535 174 l 535 315 q 296 158 440 217 l 161 285 q 517 483 381 336 q 438 559 479 532 q 363 586 397 586 q 242 558 303 586 q 128 479 181 529 l 22 626 q 135 698 68 672 q 278 724 201 724 q 403 676 338 724 q 535 544 469 629 l 535 806 l -19 806 l -19 957 l 547 957 l 699 806 m 1281 806 l 778 806 l 625 957 l 1281 957 l 1281 806 z "},"ॠ":{"ha":1303,"x_min":-19,"x_max":1321,"o":"m 699 806 l 699 588 q 756 547 721 561 q 835 533 792 533 q 914 553 883 533 q 875 643 875 600 q 899 695 875 672 q 957 718 924 718 q 1039 692 996 718 q 1111 629 1082 667 q 1140 557 1140 592 q 1122 508 1140 533 q 1071 461 1104 483 q 1142 399 1115 432 q 1168 342 1168 367 q 1138 287 1168 306 q 1050 247 1108 268 q 984 220 1006 232 q 963 189 963 208 q 981 160 963 172 q 1025 149 999 149 q 1175 207 1100 149 l 1285 115 q 1096 58 1204 58 q 978 89 1040 58 q 874 165 915 119 q 832 254 832 211 q 869 314 832 294 q 975 351 906 333 q 1036 370 1018 363 q 1054 390 1054 378 q 1042 413 1054 400 q 1013 439 1029 426 q 908 421 958 421 q 802 444 857 421 q 699 513 747 468 l 699 135 q 736 73 699 108 q 825 12 774 38 q 915 -14 876 -14 q 961 -1 939 -14 q 1000 35 983 11 l 1142 -50 q 1088 -90 1118 -76 q 1026 -104 1058 -104 q 826 -43 943 -104 q 622 98 708 18 q 535 226 535 178 l 535 315 q 296 158 440 217 l 161 285 q 517 483 381 336 q 438 559 479 532 q 363 586 397 586 q 241 558 301 586 q 128 479 181 531 l 22 626 q 135 699 69 674 q 278 724 201 724 q 403 676 336 724 q 535 544 471 629 l 535 806 l -19 806 l -19 957 l 547 957 l 699 806 m 1321 806 l 778 806 l 625 957 l 1321 957 l 1321 806 z "},"ऌ":{"ha":1153,"x_min":-19,"x_max":1215,"o":"m -19 957 l 693 957 l 840 806 l 840 661 q 1018 538 950 621 q 1086 360 1086 454 q 1063 263 1086 304 q 1006 196 1039 222 q 921 136 974 169 q 837 74 864 100 q 810 13 810 49 q 840 -43 810 -22 q 918 -64 871 -64 q 1015 -42 968 -64 q 1099 24 1061 -19 l 1215 -90 q 1129 -142 1179 -124 q 1021 -161 1079 -161 q 868 -120 944 -161 q 743 -17 792 -79 q 694 100 694 44 q 726 185 694 151 q 821 260 757 218 q 928 344 892 304 q 964 450 964 385 q 926 547 964 506 q 838 588 889 588 q 706 519 760 588 q 651 310 651 451 l 489 374 q 500 479 489 413 q 449 532 478 513 q 392 551 421 551 q 298 519 342 551 q 228 432 254 486 q 203 317 203 378 q 238 217 203 272 q 325 123 274 161 q 418 85 376 85 q 531 128 486 85 l 629 6 q 532 -33 590 -33 q 325 44 433 -33 q 144 235 217 122 q 72 442 72 349 q 103 557 72 503 q 186 644 135 611 q 293 678 238 678 q 409 640 349 678 q 524 533 469 601 q 590 635 549 596 q 676 681 632 675 l 676 806 l -19 806 l -19 957 m 772 957 l 1172 957 l 1172 806 l 919 806 l 772 957 z "},"ॡ":{"ha":1149,"x_min":-19,"x_max":1222,"o":"m 676 806 l 676 681 q 590 636 631 675 q 524 533 549 597 q 410 640 469 603 q 293 678 350 678 q 184 645 235 678 q 103 558 133 613 q 72 442 72 503 q 147 235 72 347 q 331 44 222 122 q 532 -33 440 -33 q 629 6 590 -33 l 533 128 q 483 96 513 107 q 418 85 453 85 q 324 123 375 85 q 238 216 274 161 q 203 317 203 271 q 228 433 203 379 q 298 519 254 488 q 392 551 342 551 q 448 532 419 551 q 500 479 476 513 q 489 374 489 413 l 651 310 q 706 515 651 443 q 842 588 760 588 q 932 551 894 588 q 969 463 969 514 q 936 388 969 419 q 839 315 903 356 q 749 248 778 275 q 719 183 719 221 q 757 113 719 147 q 856 63 794 78 q 792 24 817 47 q 767 -22 767 0 q 810 -99 767 -61 q 921 -161 853 -137 q 1061 -185 989 -185 q 1222 -126 1146 -185 l 1133 -40 q 958 -117 1053 -117 q 909 -105 929 -117 q 889 -74 889 -93 q 934 -6 889 -37 q 1042 35 979 25 l 1000 106 q 926 85 953 85 q 877 96 896 85 q 858 126 858 107 q 881 172 858 153 q 951 219 903 192 q 1055 294 1018 258 q 1092 389 1092 331 q 1022 550 1092 475 q 840 661 953 625 l 840 806 l 693 957 l -19 957 l -19 806 l 676 806 m 1169 806 l 1169 957 l 772 957 l 919 806 l 1169 806 z "},"ऍ":{"ha":803,"x_min":-19,"x_max":1068,"o":"m -19 957 l 493 957 l 608 806 q 709 637 676 717 q 742 489 742 557 q 715 391 742 438 q 645 315 689 344 q 553 286 601 286 q 440 335 499 286 q 338 464 382 383 l 367 490 q 401 458 382 469 q 442 446 421 446 q 528 471 489 446 q 591 538 568 496 q 614 631 614 581 q 594 713 614 665 q 539 806 574 760 l 396 806 q 275 610 318 728 q 232 360 232 493 q 324 150 232 258 q 555 -30 417 42 q 818 -101 693 -101 q 886 -90 854 -101 q 942 -57 918 -78 l 1068 -181 q 946 -215 1017 -215 q 374 24 672 -215 q 74 481 74 260 q 203 806 74 646 l -19 806 l -19 957 m 572 957 l 822 957 l 822 806 l 688 806 l 572 957 m 274 1364 q 363 1238 304 1286 q 492 1190 422 1190 q 627 1240 564 1190 q 721 1374 690 1290 l 833 1299 q 715 1131 799 1194 q 533 1067 632 1067 q 358 1141 442 1067 q 229 1339 274 1215 l 274 1364 z "},"ऎ":{"ha":803,"x_min":-140,"x_max":1068,"o":"m -19 957 l 493 957 l 608 806 q 709 637 676 717 q 742 489 742 557 q 715 391 742 438 q 645 315 689 344 q 553 286 601 286 q 440 335 499 286 q 338 464 382 383 l 367 490 q 401 458 382 469 q 442 446 421 446 q 528 471 489 446 q 591 538 568 496 q 614 631 614 581 q 594 713 614 665 q 539 806 574 760 l 396 806 q 275 610 318 728 q 232 360 232 493 q 324 150 232 258 q 555 -30 417 42 q 818 -101 693 -101 q 886 -90 854 -101 q 942 -57 918 -78 l 1068 -181 q 946 -215 1017 -215 q 374 24 672 -215 q 74 481 74 260 q 203 806 74 646 l -19 806 l -19 957 m 572 957 l 822 957 l 822 806 l 688 806 l 572 957 m -85 1410 q -14 1324 -76 1357 q 142 1292 49 1292 q 366 1267 276 1292 q 509 1168 456 1242 q 563 957 563 1094 l 501 957 q 469 1051 501 1007 q 376 1120 436 1094 q 238 1146 317 1146 q -25 1199 83 1146 q -140 1410 -133 1253 l -85 1410 z "},"ए":{"ha":803,"x_min":-19,"x_max":1068,"o":"m -19 957 l 493 957 l 608 806 q 709 637 676 717 q 742 489 742 557 q 715 391 742 438 q 645 315 689 344 q 553 286 601 286 q 440 335 499 286 q 338 464 382 383 l 367 490 q 401 458 382 469 q 442 446 421 446 q 528 471 489 446 q 591 538 568 496 q 614 631 614 581 q 594 713 614 665 q 539 806 574 760 l 396 806 q 275 610 318 728 q 232 360 232 493 q 324 150 232 258 q 555 -30 417 42 q 818 -101 693 -101 q 886 -90 854 -101 q 942 -57 918 -78 l 1068 -181 q 946 -215 1017 -215 q 374 24 672 -215 q 74 481 74 260 q 203 806 74 646 l -19 806 l -19 957 m 572 957 l 822 957 l 822 806 l 688 806 l 572 957 z "},"ऐ":{"ha":803,"x_min":-146,"x_max":1068,"o":"m -19 957 l 493 957 l 608 806 q 709 637 676 717 q 742 489 742 557 q 715 391 742 438 q 645 315 689 344 q 553 286 601 286 q 440 335 499 286 q 338 464 382 383 l 367 490 q 401 458 382 469 q 442 446 421 446 q 528 471 489 446 q 591 538 568 496 q 614 631 614 581 q 594 713 614 665 q 539 806 574 760 l 396 806 q 275 610 318 728 q 232 360 232 493 q 324 150 232 258 q 555 -30 417 42 q 818 -101 693 -101 q 886 -90 854 -101 q 942 -57 918 -78 l 1068 -181 q 946 -215 1017 -215 q 374 24 672 -215 q 74 481 74 260 q 203 806 74 646 l -19 806 l -19 957 m 572 957 l 822 957 l 822 806 l 688 806 l 572 957 m -104 1411 q -65 1367 -89 1383 q -18 1351 -42 1351 q 25 1358 -1 1351 q 58 1367 51 1365 q 131 1382 110 1382 q 189 1360 156 1382 q 257 1296 222 1338 l 568 957 l 497 957 l 308 1144 q 200 1218 239 1218 q 131 1201 186 1218 q 99 1192 122 1199 q 64 1186 75 1186 q -40 1240 17 1186 q -146 1383 -96 1294 l -104 1411 z "},"ऑ":{"ha":1619,"x_min":36,"x_max":1925,"o":"m 1267 -14 q 1350 35 1319 -14 l 1492 -50 q 1439 -90 1469 -76 q 1376 -104 1408 -104 q 1176 -45 1293 -104 q 974 94 1060 14 q 888 231 888 174 l 888 454 q 824 442 854 442 q 658 528 756 442 l 644 511 q 735 382 703 447 q 767 258 767 317 q 736 143 767 196 q 653 59 706 90 q 540 28 601 28 q 346 89 443 28 q 168 260 249 150 q 36 511 88 369 l 92 535 q 251 271 153 371 q 454 171 350 171 q 553 196 508 171 q 626 263 599 221 q 653 354 653 306 q 606 474 653 406 q 533 415 572 436 q 458 394 494 394 q 360 424 413 394 q 273 499 308 454 q 238 585 238 543 q 283 672 238 635 q 389 708 329 708 q 465 688 425 708 q 538 632 504 668 q 576 694 563 657 q 590 769 590 732 q 561 849 590 817 q 485 881 532 881 q 364 853 425 881 q 250 775 303 825 l 128 901 q 240 967 174 944 q 385 989 306 989 q 544 945 467 989 q 669 833 621 901 q 717 699 717 765 q 683 571 717 633 q 754 544 708 544 q 826 558 790 544 q 888 600 861 572 l 888 806 l 764 806 l 638 957 l 914 957 l 1049 806 l 1049 135 q 1088 73 1049 108 q 1178 12 1126 38 q 1267 -14 1231 -14 m 1925 -50 q 1874 -90 1904 -76 q 1810 -104 1844 -104 q 1609 -44 1726 -104 q 1406 99 1492 17 q 1319 242 1319 182 l 1319 806 l 1206 806 l 1128 806 l 994 957 l 1331 957 l 1482 806 l 1482 135 q 1519 73 1482 108 q 1608 12 1557 38 q 1694 -14 1658 -14 q 1782 36 1744 -14 l 1925 -50 m 1561 806 l 1411 957 l 1639 957 l 1639 806 l 1561 806 m 378 493 q 432 515 399 493 q 507 583 465 538 q 457 613 485 613 q 390 581 426 613 q 353 521 353 549 q 360 501 353 510 q 378 493 368 493 m 1114 1364 q 1203 1238 1144 1286 q 1332 1190 1263 1190 q 1467 1240 1404 1190 q 1561 1374 1531 1290 l 1674 1299 q 1556 1131 1639 1194 q 1374 1067 1472 1067 q 1198 1141 1282 1067 q 1069 1339 1114 1215 l 1114 1364 z "},"ऒ":{"ha":1619,"x_min":36,"x_max":1925,"o":"m 1075 1146 q 813 1199 921 1146 q 697 1410 704 1253 l 753 1410 q 824 1324 763 1357 q 979 1292 886 1292 q 1203 1267 1114 1292 q 1347 1168 1293 1242 q 1400 957 1400 1094 l 1339 957 q 1306 1051 1339 1007 q 1214 1120 1274 1094 q 1075 1146 1154 1146 m 1267 -14 q 1350 35 1319 -14 l 1492 -50 q 1439 -90 1469 -76 q 1376 -104 1408 -104 q 1176 -45 1293 -104 q 974 94 1060 14 q 888 231 888 174 l 888 454 q 824 442 854 442 q 658 528 756 442 l 644 511 q 735 382 703 447 q 767 258 767 317 q 736 143 767 196 q 653 59 706 90 q 540 28 601 28 q 346 89 443 28 q 168 260 249 150 q 36 511 88 369 l 92 535 q 251 271 153 371 q 454 171 350 171 q 553 196 508 171 q 626 263 599 221 q 653 354 653 306 q 606 474 653 406 q 533 415 572 436 q 458 394 494 394 q 360 424 413 394 q 273 499 308 454 q 238 585 238 543 q 283 672 238 635 q 389 708 329 708 q 465 688 425 708 q 538 632 504 668 q 576 694 563 657 q 590 769 590 732 q 561 849 590 817 q 485 881 532 881 q 364 853 425 881 q 250 775 303 825 l 128 901 q 240 967 174 944 q 385 989 306 989 q 544 945 467 989 q 669 833 621 901 q 717 699 717 765 q 683 571 717 633 q 754 544 708 544 q 826 558 790 544 q 888 600 861 572 l 888 806 l 764 806 l 638 957 l 914 957 l 1049 806 l 1049 135 q 1088 73 1049 108 q 1178 12 1126 38 q 1267 -14 1231 -14 m 1925 -50 q 1874 -90 1904 -76 q 1810 -104 1844 -104 q 1609 -44 1726 -104 q 1406 99 1492 17 q 1319 242 1319 182 l 1319 806 l 1206 806 l 1128 806 l 994 957 l 1331 957 l 1482 806 l 1482 135 q 1519 73 1482 108 q 1608 12 1557 38 q 1694 -14 1658 -14 q 1782 36 1744 -14 l 1925 -50 m 1561 806 l 1411 957 l 1639 957 l 1639 806 l 1561 806 m 378 493 q 432 515 399 493 q 507 583 465 538 q 457 613 485 613 q 390 581 426 613 q 353 521 353 549 q 360 501 353 510 q 378 493 368 493 z "},"ओ":{"ha":1619,"x_min":36,"x_max":1925,"o":"m 1267 -14 q 1350 35 1319 -14 l 1492 -50 q 1439 -90 1469 -76 q 1376 -104 1408 -104 q 1176 -45 1293 -104 q 974 94 1060 14 q 888 231 888 174 l 888 454 q 824 442 854 442 q 658 528 756 442 l 644 511 q 735 382 703 447 q 767 258 767 317 q 736 143 767 196 q 653 59 706 90 q 540 28 601 28 q 346 89 443 28 q 168 260 249 150 q 36 511 88 369 l 92 535 q 251 271 153 371 q 454 171 350 171 q 553 196 508 171 q 626 263 599 221 q 653 354 653 306 q 606 474 653 406 q 533 415 572 436 q 458 394 494 394 q 360 424 413 394 q 273 499 308 454 q 238 585 238 543 q 283 672 238 635 q 389 708 329 708 q 465 688 425 708 q 538 632 504 668 q 576 694 563 657 q 590 769 590 732 q 561 849 590 817 q 485 881 532 881 q 364 853 425 881 q 250 775 303 825 l 128 901 q 240 967 174 944 q 385 989 306 989 q 544 945 467 989 q 669 833 621 901 q 717 699 717 765 q 683 571 717 633 q 754 544 708 544 q 826 558 790 544 q 888 600 861 572 l 888 806 l 764 806 l 638 957 l 914 957 l 1049 806 l 1049 135 q 1088 73 1049 108 q 1178 12 1126 38 q 1267 -14 1231 -14 m 1925 -50 q 1874 -90 1904 -76 q 1810 -104 1844 -104 q 1609 -44 1726 -104 q 1406 99 1492 17 q 1319 242 1319 182 l 1319 806 l 1206 806 l 1128 806 l 994 957 l 1331 957 l 1482 806 l 1482 135 q 1519 73 1482 108 q 1608 12 1557 38 q 1694 -14 1658 -14 q 1782 36 1744 -14 l 1925 -50 m 1561 806 l 1411 957 l 1639 957 l 1639 806 l 1561 806 m 378 493 q 432 515 399 493 q 507 583 465 538 q 457 613 485 613 q 390 581 426 613 q 353 521 353 549 q 360 501 353 510 q 378 493 368 493 m 736 1411 q 775 1367 751 1383 q 822 1351 799 1351 q 865 1358 839 1351 q 899 1367 892 1365 q 971 1382 950 1382 q 1029 1360 996 1382 q 1097 1296 1063 1338 l 1408 957 l 1338 957 l 1149 1144 q 1040 1218 1079 1218 q 971 1201 1026 1218 q 939 1192 963 1199 q 904 1186 915 1186 q 801 1240 857 1186 q 694 1383 744 1294 l 736 1411 z "},"औ":{"ha":1619,"x_min":36,"x_max":1925,"o":"m 1925 -50 q 1874 -90 1904 -76 q 1810 -104 1844 -104 q 1609 -44 1726 -104 q 1406 99 1492 17 q 1319 242 1319 182 l 1319 806 l 1206 806 l 1128 806 l 994 957 l 1321 957 l 1082 1113 q 986 1150 1028 1150 q 924 1136 974 1150 q 860 1121 875 1121 q 765 1159 818 1121 q 654 1267 711 1197 l 688 1301 q 725 1271 703 1282 q 767 1260 747 1260 q 838 1276 782 1260 q 872 1285 847 1279 q 906 1292 896 1292 q 1026 1233 946 1292 l 1358 986 l 1275 1186 q 1233 1254 1258 1228 q 1183 1281 1208 1281 q 1156 1277 1169 1279 q 1131 1274 1142 1275 q 1082 1267 1099 1267 q 999 1308 1047 1267 q 906 1421 951 1350 l 947 1449 q 983 1419 960 1431 q 1033 1408 1007 1408 q 1064 1413 1042 1408 q 1099 1418 1086 1417 q 1164 1428 1144 1428 q 1239 1391 1201 1428 q 1300 1292 1276 1354 l 1426 957 l 1639 957 l 1639 806 l 1561 806 l 1411 957 l 1331 957 l 1482 806 l 1482 135 q 1519 73 1482 108 q 1608 12 1557 38 q 1694 -14 1658 -14 q 1782 36 1744 -14 l 1925 -50 m 1267 -14 q 1350 35 1319 -14 l 1492 -50 q 1439 -90 1469 -76 q 1376 -104 1408 -104 q 1176 -45 1293 -104 q 974 94 1060 14 q 888 231 888 174 l 888 454 q 824 442 854 442 q 658 528 756 442 l 644 511 q 735 382 703 447 q 767 258 767 317 q 736 143 767 196 q 653 59 706 90 q 540 28 601 28 q 346 89 443 28 q 168 260 249 150 q 36 511 88 369 l 92 535 q 251 271 153 371 q 454 171 350 171 q 553 196 508 171 q 626 263 599 221 q 653 354 653 306 q 606 474 653 406 q 533 415 572 436 q 458 394 494 394 q 360 424 413 394 q 273 499 308 454 q 238 585 238 543 q 283 672 238 635 q 389 708 329 708 q 465 688 425 708 q 538 632 504 668 q 576 694 563 657 q 590 769 590 732 q 561 849 590 817 q 485 881 532 881 q 364 853 425 881 q 250 775 303 825 l 128 901 q 240 967 174 944 q 385 989 306 989 q 544 945 467 989 q 669 833 621 901 q 717 699 717 765 q 683 571 717 633 q 754 544 708 544 q 826 558 790 544 q 888 600 861 572 l 888 806 l 764 806 l 638 957 l 914 957 l 1049 806 l 1049 135 q 1088 73 1049 108 q 1178 12 1126 38 q 1267 -14 1231 -14 m 378 493 q 432 515 399 493 q 507 583 465 538 q 457 613 485 613 q 390 581 426 613 q 353 521 353 549 q 360 501 353 510 q 378 493 368 493 z "},"ॳ":{"ha":1186,"x_min":36,"x_max":1492,"o":"m 1492 -50 q 1439 -90 1469 -76 q 1376 -104 1408 -104 q 1176 -45 1293 -104 q 974 94 1060 14 q 888 231 888 174 l 888 454 q 824 442 854 442 q 658 528 756 442 l 644 511 q 735 382 703 447 q 767 258 767 317 q 736 143 767 196 q 653 59 706 90 q 540 28 601 28 q 346 89 443 28 q 168 260 249 150 q 36 511 88 369 l 92 535 q 251 271 153 371 q 454 171 350 171 q 553 196 508 171 q 626 263 599 221 q 653 354 653 306 q 606 474 653 406 q 533 415 572 436 q 458 394 494 394 q 360 424 413 394 q 273 499 308 454 q 238 585 238 543 q 283 672 238 635 q 389 708 329 708 q 465 688 425 708 q 538 632 504 668 q 576 694 563 657 q 590 769 590 732 q 561 849 590 817 q 485 881 532 881 q 364 853 425 881 q 250 775 303 825 l 128 901 q 240 967 174 944 q 385 989 306 989 q 544 945 467 989 q 669 833 621 901 q 717 699 717 765 q 683 571 717 633 q 754 544 708 544 q 826 558 790 544 q 888 600 861 572 l 888 806 l 764 806 l 638 957 l 872 957 l 872 1356 l 1035 1356 l 1035 957 l 1206 957 l 1206 806 l 1128 806 l 994 957 l 914 957 l 1049 806 l 1049 135 q 1088 73 1049 108 q 1178 12 1126 38 q 1267 -14 1231 -14 q 1350 35 1319 -14 l 1492 -50 m 378 493 q 432 515 399 493 q 507 583 465 538 q 457 613 485 613 q 390 581 426 613 q 353 521 353 549 q 360 501 353 510 q 378 493 368 493 z "},"ॴ":{"ha":1619,"x_min":36,"x_max":1925,"o":"m 1925 -50 q 1874 -90 1904 -76 q 1810 -104 1844 -104 q 1609 -44 1726 -104 q 1406 99 1492 17 q 1319 242 1319 182 l 1319 806 l 1206 806 l 1128 806 l 994 957 l 1292 957 l 1292 1356 l 1454 1356 l 1454 957 l 1639 957 l 1639 806 l 1561 806 l 1411 957 l 1331 957 l 1482 806 l 1482 135 q 1519 73 1482 108 q 1608 12 1557 38 q 1694 -14 1658 -14 q 1782 36 1744 -14 l 1925 -50 m 1267 -14 q 1350 35 1319 -14 l 1492 -50 q 1439 -90 1469 -76 q 1376 -104 1408 -104 q 1176 -45 1293 -104 q 974 94 1060 14 q 888 231 888 174 l 888 454 q 824 442 854 442 q 658 528 756 442 l 644 511 q 735 382 703 447 q 767 258 767 317 q 736 143 767 196 q 653 59 706 90 q 540 28 601 28 q 346 89 443 28 q 168 260 249 150 q 36 511 88 369 l 92 535 q 251 271 153 371 q 454 171 350 171 q 553 196 508 171 q 626 263 599 221 q 653 354 653 306 q 606 474 653 406 q 533 415 572 436 q 458 394 494 394 q 360 424 413 394 q 273 499 308 454 q 238 585 238 543 q 283 672 238 635 q 389 708 329 708 q 465 688 425 708 q 538 632 504 668 q 576 694 563 657 q 590 769 590 732 q 561 849 590 817 q 485 881 532 881 q 364 853 425 881 q 250 775 303 825 l 128 901 q 240 967 174 944 q 385 989 306 989 q 544 945 467 989 q 669 833 621 901 q 717 699 717 765 q 683 571 717 633 q 754 544 708 544 q 826 558 790 544 q 888 600 861 572 l 888 806 l 764 806 l 638 957 l 914 957 l 1049 806 l 1049 135 q 1088 73 1049 108 q 1178 12 1126 38 q 1267 -14 1231 -14 m 378 493 q 432 515 399 493 q 507 583 465 538 q 457 613 485 613 q 390 581 426 613 q 353 521 353 549 q 360 501 353 510 q 378 493 368 493 z "},"ॶ":{"ha":1186,"x_min":36,"x_max":1492,"o":"m 92 535 q 251 271 153 371 q 454 171 350 171 q 553 196 508 171 q 626 263 599 221 q 653 354 653 306 q 606 474 653 406 q 533 415 572 436 q 458 394 494 394 q 360 424 413 394 q 273 499 308 454 q 238 585 238 543 q 283 672 238 635 q 389 708 329 708 q 465 688 425 708 q 538 632 504 668 q 576 694 563 657 q 590 769 590 732 q 561 849 590 817 q 485 881 532 881 q 364 853 425 881 q 250 775 303 825 l 128 901 q 240 967 174 944 q 385 989 306 989 q 544 945 467 989 q 669 833 621 901 q 717 699 717 765 q 683 571 717 633 q 754 544 708 544 q 826 558 790 544 q 888 600 861 572 l 888 806 l 764 806 l 638 957 l 914 957 l 1049 806 l 1049 135 q 1088 73 1049 108 q 1178 12 1126 38 q 1267 -14 1231 -14 q 1350 35 1319 -14 l 1492 -50 q 1439 -90 1469 -76 q 1376 -104 1408 -104 q 1176 -45 1293 -104 q 974 94 1060 14 q 888 231 888 174 l 888 454 q 824 442 854 442 q 658 528 756 442 l 644 511 q 735 382 703 447 q 767 258 767 317 q 736 143 767 196 q 653 59 706 90 q 540 28 601 28 q 346 89 443 28 q 168 260 249 150 q 36 511 88 369 l 92 535 m 994 957 l 1206 957 l 1206 806 l 1128 806 l 994 957 m 378 493 q 432 515 399 493 q 507 583 465 538 q 457 613 485 613 q 390 581 426 613 q 353 521 353 549 q 360 501 353 510 q 378 493 368 493 m 381 -179 q 483 -267 418 -236 q 626 -299 547 -299 q 794 -265 717 -299 q 919 -174 872 -232 l 1067 -272 q 924 -377 1017 -339 q 721 -415 832 -415 q 506 -360 608 -415 q 342 -211 403 -306 l 381 -179 z "},"ॷ":{"ha":1186,"x_min":36,"x_max":1492,"o":"m 92 535 q 251 271 153 371 q 454 171 350 171 q 553 196 508 171 q 626 263 599 221 q 653 354 653 306 q 606 474 653 406 q 533 415 572 436 q 458 394 494 394 q 360 424 413 394 q 273 499 308 454 q 238 585 238 543 q 283 672 238 635 q 389 708 329 708 q 465 688 425 708 q 538 632 504 668 q 576 694 563 657 q 590 769 590 732 q 561 849 590 817 q 485 881 532 881 q 364 853 425 881 q 250 775 303 825 l 128 901 q 240 967 174 944 q 385 989 306 989 q 544 945 467 989 q 669 833 621 901 q 717 699 717 765 q 683 571 717 633 q 754 544 708 544 q 826 558 790 544 q 888 600 861 572 l 888 806 l 764 806 l 638 957 l 914 957 l 1049 806 l 1049 135 q 1088 73 1049 108 q 1178 12 1126 38 q 1267 -14 1231 -14 q 1350 35 1319 -14 l 1492 -50 q 1439 -90 1469 -76 q 1376 -104 1408 -104 q 1176 -45 1293 -104 q 974 94 1060 14 q 888 231 888 174 l 888 454 q 824 442 854 442 q 658 528 756 442 l 644 511 q 735 382 703 447 q 767 258 767 317 q 736 143 767 196 q 653 59 706 90 q 540 28 601 28 q 346 89 443 28 q 168 260 249 150 q 36 511 88 369 l 92 535 m 994 957 l 1206 957 l 1206 806 l 1128 806 l 994 957 m 378 493 q 432 515 399 493 q 507 583 465 538 q 457 613 485 613 q 390 581 426 613 q 353 521 353 549 q 360 501 353 510 q 378 493 368 493 m 381 -149 q 489 -226 421 -199 q 638 -253 557 -253 q 796 -222 724 -253 q 913 -133 868 -190 l 1069 -231 q 937 -318 1031 -286 q 721 -350 843 -350 q 513 -304 611 -350 q 346 -176 415 -258 l 381 -149 m 733 -560 q 529 -510 626 -560 q 357 -372 432 -461 l 392 -346 q 505 -431 436 -400 q 649 -462 574 -462 q 813 -435 738 -462 q 931 -358 889 -408 l 1082 -456 q 951 -532 1043 -504 q 733 -560 860 -560 z "},"ा":{"ha":433,"x_min":-19,"x_max":739,"o":"m -19 957 l 144 957 l 296 806 l 296 135 q 333 73 296 108 q 422 12 371 38 q 508 -14 472 -14 q 596 36 558 -14 l 739 -50 q 688 -90 718 -76 q 624 -104 658 -104 q 423 -44 540 -104 q 219 99 306 17 q 133 242 133 182 l 133 806 l -19 806 l -19 957 m 225 957 l 453 957 l 453 806 l 375 806 l 225 957 z "},"ि":{"ha":433,"x_min":-19,"x_max":1092,"o":"m -12 1211 q 22 1313 -12 1265 q 116 1387 57 1360 q 246 1414 175 1414 q 462 1378 365 1414 q 624 1297 558 1343 q 771 1182 690 1251 q 853 1115 822 1136 q 910 1094 885 1094 q 942 1104 926 1094 q 968 1128 958 1114 l 1092 1036 q 1035 985 1067 1003 q 974 968 1004 968 q 887 995 926 968 q 783 1083 847 1022 q 667 1185 719 1146 q 539 1254 615 1225 q 365 1283 463 1283 q 242 1260 296 1283 q 158 1199 188 1238 q 128 1117 128 1161 q 151 1038 128 1082 q 215 957 175 994 l 154 957 q 32 1079 76 1013 q -12 1211 -12 1146 m -19 957 l 144 957 l 296 806 l 296 135 q 333 73 296 108 q 422 12 371 38 q 508 -14 472 -14 q 596 36 558 -14 l 739 -50 q 688 -90 718 -76 q 624 -104 658 -104 q 423 -44 540 -104 q 219 99 306 17 q 133 242 133 182 l 133 806 l -19 806 l -19 957 m 225 957 l 453 957 l 453 806 l 375 806 l 225 957 z "},"ी":{"ha":433,"x_min":-435,"x_max":739,"o":"m -435 1200 q -405 1291 -435 1247 q -326 1362 -375 1335 q -224 1389 -278 1389 q -94 1357 -150 1389 q -2 1283 -37 1325 q 75 1179 33 1242 q 120 1117 104 1135 q 151 1099 136 1099 q 175 1108 164 1099 q 201 1135 186 1117 l 310 1019 q 258 981 289 994 q 197 967 228 967 q 131 998 161 967 q 56 1094 100 1029 q -41 1217 1 1175 q -142 1258 -83 1258 q -214 1240 -179 1258 q -271 1190 -249 1221 q -293 1124 -293 1160 q -274 1065 -293 1097 q -222 1000 -256 1032 l -268 967 q -390 1083 -346 1022 q -435 1200 -435 1144 m -19 957 l 144 957 l 296 806 l 296 135 q 333 73 296 108 q 422 12 371 38 q 508 -14 472 -14 q 596 36 558 -14 l 739 -50 q 688 -90 718 -76 q 624 -104 658 -104 q 423 -44 540 -104 q 219 99 306 17 q 133 242 133 182 l 133 806 l -19 806 l -19 957 m 225 957 l 453 957 l 453 806 l 375 806 l 225 957 z "},"ॉ":{"ha":433,"x_min":-118,"x_max":739,"o":"m -19 957 l 144 957 l 296 806 l 296 135 q 333 73 296 108 q 422 12 371 38 q 508 -14 472 -14 q 596 36 558 -14 l 739 -50 q 688 -90 718 -76 q 624 -104 658 -104 q 423 -44 540 -104 q 219 99 306 17 q 133 242 133 182 l 133 806 l -19 806 l -19 957 m 225 957 l 453 957 l 453 806 l 375 806 l 225 957 m -74 1364 q 16 1238 -43 1286 q 144 1190 75 1190 q 280 1240 217 1190 q 374 1374 343 1290 l 486 1299 q 368 1131 451 1194 q 186 1067 285 1067 q 10 1141 94 1067 q -118 1339 -74 1215 l -74 1364 z "},"ॊ":{"ha":433,"x_min":-487,"x_max":739,"o":"m -19 957 l 144 957 l 296 806 l 296 135 q 333 73 296 108 q 422 12 371 38 q 508 -14 472 -14 q 596 36 558 -14 l 739 -50 q 688 -90 718 -76 q 624 -104 658 -104 q 423 -44 540 -104 q 219 99 306 17 q 133 242 133 182 l 133 806 l -19 806 l -19 957 m 225 957 l 453 957 l 453 806 l 375 806 l 225 957 m -432 1410 q -361 1324 -424 1357 q -206 1292 -299 1292 q 19 1267 -71 1292 q 162 1168 108 1242 q 215 957 215 1094 l 154 957 q 122 1051 154 1007 q 29 1120 89 1094 q -110 1146 -31 1146 q -372 1199 -264 1146 q -487 1410 -481 1253 l -432 1410 z "},"ो":{"ha":433,"x_min":-493,"x_max":739,"o":"m -19 957 l 144 957 l 296 806 l 296 135 q 333 73 296 108 q 422 12 371 38 q 508 -14 472 -14 q 596 36 558 -14 l 739 -50 q 688 -90 718 -76 q 624 -104 658 -104 q 423 -44 540 -104 q 219 99 306 17 q 133 242 133 182 l 133 806 l -19 806 l -19 957 m 225 957 l 453 957 l 453 806 l 375 806 l 225 957 m -451 1411 q -412 1367 -436 1383 q -365 1351 -389 1351 q -322 1358 -349 1351 q -289 1367 -296 1365 q -217 1382 -237 1382 q -158 1360 -192 1382 q -90 1296 -125 1338 l 221 957 l 150 957 l -39 1144 q -147 1218 -108 1218 q -217 1201 -161 1218 q -249 1192 -225 1199 q -283 1186 -272 1186 q -387 1240 -331 1186 q -493 1383 -443 1294 l -451 1411 z "},"ौ":{"ha":433,"x_min":-533,"x_max":739,"o":"m -19 957 l 144 957 l 296 806 l 296 135 q 333 73 296 108 q 422 12 371 38 q 508 -14 472 -14 q 596 36 558 -14 l 739 -50 q 688 -90 718 -76 q 624 -104 658 -104 q 423 -44 540 -104 q 219 99 306 17 q 133 242 133 182 l 133 806 l -19 806 l -19 957 m 225 957 l 453 957 l 453 806 l 375 806 l 225 957 m -500 1301 q -462 1271 -485 1282 q -421 1260 -440 1260 q -350 1276 -406 1260 q -316 1285 -340 1279 q -282 1292 -292 1292 q -161 1233 -242 1292 l 171 986 l 88 1186 q 46 1254 71 1228 q -4 1281 21 1281 q -32 1277 -18 1279 q -57 1274 -46 1275 q -106 1267 -89 1267 q -188 1308 -140 1267 q -282 1421 -236 1350 l -240 1449 q -204 1419 -228 1431 q -154 1408 -181 1408 q -124 1413 -146 1408 q -89 1418 -101 1417 q -24 1428 -43 1428 q 51 1391 14 1428 q 113 1292 89 1354 l 238 957 l 133 957 l -107 1113 q -201 1150 -158 1150 q -265 1136 -212 1150 q -328 1121 -311 1121 q -423 1159 -369 1121 q -533 1267 -476 1197 l -500 1301 z "},"ऻ":{"ha":433,"x_min":-19,"x_max":739,"o":"m -19 957 l 144 957 l 296 806 l 296 135 q 333 73 296 108 q 422 12 371 38 q 508 -14 472 -14 q 596 36 558 -14 l 739 -50 q 688 -90 718 -76 q 624 -104 658 -104 q 423 -44 540 -104 q 219 99 306 17 q 133 242 133 182 l 133 806 l -19 806 l -19 957 m 225 957 l 453 957 l 453 806 l 375 806 l 225 957 m 133 1356 l 296 1356 l 296 957 l 133 957 l 133 1356 z "},"क":{"ha":1083,"x_min":-19,"x_max":1101,"o":"m 635 806 l 635 632 q 704 688 668 667 q 771 710 740 710 q 887 665 825 710 q 990 556 949 621 q 1032 435 1032 490 q 1001 339 1032 385 q 919 263 969 293 q 811 226 868 232 l 718 349 q 858 415 801 363 q 914 529 914 467 q 897 574 914 554 q 856 594 879 594 q 749 556 806 594 q 635 446 692 517 l 635 135 q 674 73 635 108 q 765 12 713 38 q 853 -14 817 -14 q 936 35 901 -14 l 1078 -50 q 1026 -90 1056 -76 q 963 -104 996 -104 q 763 -44 881 -104 q 559 95 646 15 q 472 231 472 175 l 472 328 q 401 278 440 296 q 324 260 363 260 q 200 301 265 260 q 90 406 135 343 q 46 528 46 468 q 78 619 46 576 q 163 687 110 661 q 275 713 217 713 l 346 713 q 387 689 364 713 q 443 619 410 665 l 429 586 q 375 601 400 601 q 279 577 328 601 q 199 513 231 553 q 167 431 167 472 q 187 391 167 407 q 236 375 207 375 q 358 414 294 375 q 472 522 421 453 l 472 806 l -19 806 l -19 957 l 486 957 l 635 806 m 1101 806 l 715 806 l 567 957 l 1101 957 l 1101 806 z "},"ख":{"ha":1353,"x_min":-19,"x_max":1657,"o":"m 1215 806 l 1215 135 q 1253 73 1215 108 q 1344 12 1292 38 q 1432 -14 1396 -14 q 1517 35 1481 -14 l 1657 -50 q 1540 -104 1610 -104 q 1330 -46 1446 -104 q 1103 118 1214 13 q 973 19 1044 54 q 828 -15 901 -15 q 351 189 625 -15 q 127 388 206 296 q 49 546 49 481 q 87 625 49 592 q 176 658 125 658 q 258 624 214 658 q 344 528 303 589 q 384 581 369 547 q 399 654 399 615 q 360 806 399 740 l -19 806 l -19 957 l 279 957 l 419 806 q 483 677 460 751 q 507 543 507 603 q 448 398 507 464 q 294 301 389 332 q 515 141 407 197 q 714 85 624 85 q 892 131 803 85 q 1051 260 982 178 l 1051 343 q 974 281 1018 303 q 882 260 931 260 q 760 297 825 260 q 650 390 694 335 q 606 494 606 444 q 638 586 606 543 q 722 656 669 629 q 833 682 775 682 q 949 655 892 682 q 1051 581 1007 628 l 1051 806 l 500 806 l 360 957 l 1065 957 l 1215 806 m 1372 806 l 1294 806 l 1147 957 l 1372 957 l 1372 806 m 938 576 q 843 551 892 576 q 762 489 794 526 q 729 417 729 451 q 747 383 729 397 q 790 369 765 369 q 919 408 851 369 q 1046 515 986 447 q 996 560 1025 543 q 938 576 967 576 m 256 538 q 192 514 222 538 q 161 461 161 490 q 189 413 161 436 q 310 489 257 435 q 280 525 294 513 q 256 538 265 538 z "},"ग":{"ha":1021,"x_min":-19,"x_max":1325,"o":"m -19 957 l 732 957 l 885 806 l 885 135 q 922 73 885 108 q 1009 12 958 38 q 1096 -14 1060 -14 q 1185 36 1143 -14 l 1325 -50 q 1211 -104 1283 -104 q 1014 -45 1132 -104 q 808 95 896 14 q 721 242 721 176 l 721 806 l 404 806 q 519 453 519 607 q 494 349 519 397 q 425 270 468 300 q 333 240 382 240 q 199 273 265 240 q 90 356 132 306 q 49 458 49 407 q 91 556 49 514 q 189 599 133 599 q 269 573 228 599 q 340 504 310 547 l 315 474 q 274 497 288 497 q 234 478 256 497 q 198 433 213 460 q 183 382 183 406 q 198 350 183 364 q 232 336 213 336 q 315 372 276 336 q 378 465 354 407 q 401 582 401 522 q 333 806 401 685 l -19 806 l -19 957 m 813 957 l 1042 957 l 1042 806 l 961 806 l 813 957 z "},"घ":{"ha":956,"x_min":-19,"x_max":1261,"o":"m -19 957 l 667 957 l 818 806 l 818 135 q 856 73 818 108 q 947 12 894 38 q 1035 -14 999 -14 q 1119 35 1081 -14 l 1261 -50 q 1208 -90 1239 -76 q 1144 -104 1176 -104 q 945 -45 1063 -104 q 742 94 828 14 q 656 231 656 174 l 656 307 q 561 226 618 254 q 440 197 504 197 q 277 236 357 197 q 147 338 197 275 q 97 469 97 401 q 126 537 97 504 q 203 592 154 569 q 97 665 131 632 q 63 731 63 699 q 89 806 63 764 l -19 806 l -19 957 m 749 957 l 974 957 l 974 806 l 899 806 l 749 957 m 310 292 q 493 353 401 292 q 656 518 585 414 l 656 806 l 269 806 q 219 747 238 776 q 200 692 200 717 q 254 615 200 649 q 353 638 314 638 l 444 518 q 335 497 389 518 q 249 442 282 476 q 217 368 217 407 q 244 314 217 336 q 310 292 272 292 z "},"ङ":{"ha":1019,"x_min":-19,"x_max":1039,"o":"m -19 957 l 514 957 l 644 806 q 694 722 676 763 q 713 653 713 682 q 680 593 713 617 q 603 569 647 569 l 450 569 q 353 537 393 569 q 314 457 314 504 q 338 410 314 429 q 396 390 361 390 q 438 400 418 390 q 492 429 458 410 q 549 460 524 450 q 600 471 574 471 q 717 428 654 471 q 822 324 779 386 q 865 208 865 263 q 825 103 865 151 q 717 26 785 54 q 572 -1 649 -1 q 356 49 461 -1 q 167 192 251 100 q 33 404 83 283 l 83 435 q 244 211 138 299 q 472 124 351 124 q 599 150 536 124 q 703 219 663 176 q 743 306 743 261 q 728 348 743 331 q 690 365 713 365 q 664 357 679 365 q 633 338 649 349 q 574 302 599 314 q 517 290 550 290 q 368 333 449 290 q 232 440 288 376 q 176 561 176 504 q 227 660 176 619 q 346 700 278 700 l 557 700 q 595 710 579 700 q 611 735 611 721 q 599 769 611 749 q 568 806 588 789 l -19 806 l -19 957 m 596 957 l 1039 957 l 1039 806 l 722 806 l 596 957 m 754 535 l 875 646 l 994 535 l 875 426 l 754 535 z "},"च":{"ha":1031,"x_min":-19,"x_max":1335,"o":"m -19 957 l 742 957 l 893 806 l 893 135 q 931 73 893 108 q 1022 12 969 38 q 1110 -14 1074 -14 q 1194 35 1158 -14 l 1335 -50 q 1283 -90 1313 -76 q 1219 -104 1253 -104 q 1022 -47 1138 -104 q 822 85 907 10 q 736 210 736 161 l 736 274 q 646 212 696 235 q 547 189 596 189 q 406 228 481 189 q 280 324 331 268 q 229 424 229 381 q 251 489 229 457 q 310 543 272 521 l 113 543 l 18 669 l 504 669 l 603 546 q 484 506 538 535 q 399 439 431 478 q 367 358 367 400 q 387 315 367 333 q 433 296 407 296 q 583 342 504 296 q 731 471 661 388 l 731 806 l -19 806 l -19 957 m 821 957 l 1050 957 l 1050 806 l 971 806 l 821 957 z "}}}
